<svg xmlns="http://www.w3.org/2000/svg" width="822" height="358" viewBox="0 0 822 358">
  <g id="Grupo_1106330" data-name="Grupo 1106330" transform="translate(-389.5 -4825)">
    <path id="Trazado_890215" data-name="Trazado 890215" d="M0,0H820V358H0Z" transform="translate(390 4825)" fill="#fff"/>
    <path id="Trazado_890087" data-name="Trazado 890087" d="M357.644,70H236.357A10.357,10.357,0,0,1,226,59.644V10.356A10.357,10.357,0,0,1,236.357,0H357.644A10.356,10.356,0,0,1,368,10.356V59.644A10.356,10.356,0,0,1,357.644,70" transform="translate(390.5 4835)" fill="#e4f5fd" stroke="#03a9f4" stroke-width="2"/>
    <path id="Trazado_890088" data-name="Trazado 890088" d="M689.034,298H231.967A5.774,5.774,0,0,1,226,292.441V255.559A5.774,5.774,0,0,1,231.967,250H689.034A5.774,5.774,0,0,1,695,255.559v36.882A5.774,5.774,0,0,1,689.034,298" transform="translate(340 4825)" fill="#f1f2f4"/>
    <path id="Trazado_890089" data-name="Trazado 890089" d="M583.644,70H462.357A10.357,10.357,0,0,1,452,59.644V10.356A10.357,10.357,0,0,1,462.357,0H583.644A10.356,10.356,0,0,1,594,10.356V59.644A10.356,10.356,0,0,1,583.644,70" transform="translate(390.5 4835)" fill="#efedfc" stroke="#6c5ce7" stroke-width="2"/>
    <path id="Trazado_890090" data-name="Trazado 890090" d="M809.644,70H688.357A10.357,10.357,0,0,1,678,59.644V10.356A10.357,10.357,0,0,1,688.357,0H809.644A10.356,10.356,0,0,1,820,10.356V59.644A10.356,10.356,0,0,1,809.644,70" transform="translate(390.5 4835)" fill="#f6fff6" stroke="#acffac" stroke-width="2"/>
    <path id="Trazado_890091" data-name="Trazado 890091" d="M221.5,35,202,28.457V33H146.5v4H202v4.543Z" transform="translate(390 4835)" fill="#868a9a"/>
    <path id="Trazado_890092" data-name="Trazado 890092" d="M447.5,35,428,28.457V33H372.5v4H428v4.543Z" transform="translate(390 4835)" fill="#868a9a"/>
    <path id="Trazado_890093" data-name="Trazado 890093" d="M673.5,35,654,28.457V33H598.5v4H654v4.543Z" transform="translate(390 4835)" fill="#868a9a"/>
    <path id="Trazado_890094" data-name="Trazado 890094" d="M71,70S52.971,177.257,409.985,177.257c249.271,0,315.724-52.287,333.131-83.847" transform="translate(390 4835)" fill="none" stroke="#ced0d6" stroke-linecap="round" stroke-linejoin="round" stroke-width="2" stroke-dasharray="5 10"/>
    <path id="Trazado_890086" data-name="Trazado 890086" d="M131.644,70H10.357A10.357,10.357,0,0,1,0,59.644V10.356A10.357,10.357,0,0,1,10.357,0H131.644A10.356,10.356,0,0,1,142,10.356V59.644A10.356,10.356,0,0,1,131.644,70" transform="translate(390.5 4835)" fill="#e5e6e9" stroke="#0f1837" stroke-width="2"/>
    <path id="Trazado_890216" data-name="Trazado 890216" d="M17.668,10.453V15H15.387V3.625h3.938a4.716,4.716,0,0,1,3.043.887,3,3,0,0,1,1.1,2.473A2.494,2.494,0,0,1,23,8.5a3.238,3.238,0,0,1-1.355,1.027,2.448,2.448,0,0,1,1.449.992,3.146,3.146,0,0,1,.441,1.719v.836a4.135,4.135,0,0,0,.129,1,1.37,1.37,0,0,0,.441.77V15H21.754a1.263,1.263,0,0,1-.4-.828,7.275,7.275,0,0,1-.09-1.117v-.8a1.808,1.808,0,0,0-.465-1.324,1.763,1.763,0,0,0-1.316-.473Zm0-1.758h1.617a2.139,2.139,0,0,0,1.43-.406,1.506,1.506,0,0,0,.469-1.2,1.655,1.655,0,0,0-.473-1.242,1.909,1.909,0,0,0-1.387-.461H17.668Zm11.406,6.469A3.8,3.8,0,0,1,26.121,14a4.252,4.252,0,0,1-1.062-2.988V10.7A4.628,4.628,0,0,1,26.09,7.594a3.506,3.506,0,0,1,2.836-1.2,3.282,3.282,0,0,1,2.613,1.043,4.122,4.122,0,0,1,.91,2.809v1.18H27.41l-.023.047a2.284,2.284,0,0,0,.527,1.406,1.766,1.766,0,0,0,1.4.539,4.692,4.692,0,0,0,1.3-.156,5.307,5.307,0,0,0,1.105-.477l.617,1.406a4.234,4.234,0,0,1-1.375.7A6.1,6.1,0,0,1,29.074,15.164Zm-.148-7.016a1.267,1.267,0,0,0-1.059.473,2.371,2.371,0,0,0-.449,1.254l.016.039h2.781V9.742a1.974,1.974,0,0,0-.3-1.168A1.127,1.127,0,0,0,28.926,8.148Zm8.383,5.266a1.27,1.27,0,0,0,.945-.355,1.291,1.291,0,0,0,.352-.949h2.078l.016.047a2.645,2.645,0,0,1-.953,2.145,3.564,3.564,0,0,1-2.437.863,3.6,3.6,0,0,1-2.9-1.2A4.558,4.558,0,0,1,33.387,10.9v-.234A4.588,4.588,0,0,1,34.406,7.6a3.57,3.57,0,0,1,2.887-1.207,3.486,3.486,0,0,1,2.492.891A2.976,2.976,0,0,1,40.7,9.625l-.016.047H38.605a1.687,1.687,0,0,0-.348-1.09,1.168,1.168,0,0,0-.965-.434,1.3,1.3,0,0,0-1.254.707,3.878,3.878,0,0,0-.371,1.809V10.9a3.863,3.863,0,0,0,.371,1.82A1.32,1.32,0,0,0,37.309,13.414ZM41.676,10.7A4.536,4.536,0,0,1,42.73,7.6a3.676,3.676,0,0,1,2.922-1.207,3.715,3.715,0,0,1,2.938,1.2,4.512,4.512,0,0,1,1.063,3.1v.164a4.519,4.519,0,0,1-1.059,3.105,4.178,4.178,0,0,1-5.859,0,4.519,4.519,0,0,1-1.059-3.105Zm2.273.164a3.677,3.677,0,0,0,.406,1.855,1.561,1.561,0,0,0,2.605,0,3.653,3.653,0,0,0,.41-1.852V10.7a3.616,3.616,0,0,0-.414-1.836,1.4,1.4,0,0,0-1.3-.711,1.384,1.384,0,0,0-1.293.715,3.648,3.648,0,0,0-.41,1.832ZM53.457,15H51.176V2.813h2.281ZM59,15.164A3.8,3.8,0,0,1,56.043,14a4.252,4.252,0,0,1-1.062-2.988V10.7a4.628,4.628,0,0,1,1.031-3.109,3.506,3.506,0,0,1,2.836-1.2,3.282,3.282,0,0,1,2.613,1.043,4.122,4.122,0,0,1,.91,2.809v1.18H57.332l-.023.047a2.284,2.284,0,0,0,.527,1.406,1.766,1.766,0,0,0,1.4.539,4.692,4.692,0,0,0,1.3-.156,5.307,5.307,0,0,0,1.105-.477l.617,1.406a4.234,4.234,0,0,1-1.375.7A6.1,6.1,0,0,1,59,15.164Zm-.148-7.016a1.267,1.267,0,0,0-1.059.473,2.371,2.371,0,0,0-.449,1.254l.016.039h2.781V9.742a1.974,1.974,0,0,0-.3-1.168A1.127,1.127,0,0,0,58.848,8.148Zm8.383,5.266a1.27,1.27,0,0,0,.945-.355,1.291,1.291,0,0,0,.352-.949h2.078l.016.047a2.645,2.645,0,0,1-.953,2.145,3.564,3.564,0,0,1-2.437.863,3.6,3.6,0,0,1-2.9-1.2A4.558,4.558,0,0,1,63.309,10.9v-.234A4.588,4.588,0,0,1,64.328,7.6a3.57,3.57,0,0,1,2.887-1.207,3.486,3.486,0,0,1,2.492.891,2.976,2.976,0,0,1,.914,2.344l-.016.047H68.527a1.687,1.687,0,0,0-.348-1.09,1.168,1.168,0,0,0-.965-.434,1.3,1.3,0,0,0-1.254.707,3.878,3.878,0,0,0-.371,1.809V10.9a3.863,3.863,0,0,0,.371,1.82A1.32,1.32,0,0,0,67.23,13.414Zm8.25,0a1.27,1.27,0,0,0,.945-.355,1.291,1.291,0,0,0,.352-.949h2.078l.016.047a2.645,2.645,0,0,1-.953,2.145,3.564,3.564,0,0,1-2.437.863,3.6,3.6,0,0,1-2.9-1.2A4.558,4.558,0,0,1,71.559,10.9v-.234A4.588,4.588,0,0,1,72.578,7.6a3.57,3.57,0,0,1,2.887-1.207,3.486,3.486,0,0,1,2.492.891,2.976,2.976,0,0,1,.914,2.344l-.016.047H76.777a1.687,1.687,0,0,0-.348-1.09,1.168,1.168,0,0,0-.965-.434,1.3,1.3,0,0,0-1.254.707,3.878,3.878,0,0,0-.371,1.809V10.9a3.863,3.863,0,0,0,.371,1.82A1.32,1.32,0,0,0,75.48,13.414ZM82.6,15H80.316V6.547H82.6Zm0-10.477H80.316V2.813H82.6ZM84.121,10.7a4.536,4.536,0,0,1,1.055-3.1A3.676,3.676,0,0,1,88.1,6.391a3.715,3.715,0,0,1,2.938,1.2A4.512,4.512,0,0,1,92.1,10.7v.164a4.519,4.519,0,0,1-1.059,3.105,4.178,4.178,0,0,1-5.859,0,4.519,4.519,0,0,1-1.059-3.105Zm2.273.164a3.677,3.677,0,0,0,.406,1.855,1.561,1.561,0,0,0,2.605,0,3.653,3.653,0,0,0,.41-1.852V10.7A3.616,3.616,0,0,0,89.4,8.859a1.4,1.4,0,0,0-1.3-.711,1.384,1.384,0,0,0-1.293.715,3.648,3.648,0,0,0-.41,1.832Zm2.164-7.922H91.1l.016.047L88.949,5.016H87ZM95.59,6.547l.1,1.211A3.092,3.092,0,0,1,96.73,6.75a2.7,2.7,0,0,1,1.383-.359,2.513,2.513,0,0,1,2,.824,3.908,3.908,0,0,1,.719,2.605V15H98.543V9.828a2.024,2.024,0,0,0-.316-1.285,1.166,1.166,0,0,0-.949-.379,1.992,1.992,0,0,0-.895.191,1.746,1.746,0,0,0-.637.527V15H93.465V6.547Z" transform="translate(404 4850)" fill="#12263f"/>
    <path id="Trazado_890217" data-name="Trazado 890217" d="M25.336,11.914l.141.625h.047l.133-.6,2.477-8.312h2.406L26.672,15H24.328L20.469,3.625h2.406ZM36.094,15a4.8,4.8,0,0,1-.215-.609,4.239,4.239,0,0,1-.129-.656,3.127,3.127,0,0,1-.93,1.023,2.33,2.33,0,0,1-1.375.406A2.855,2.855,0,0,1,31.4,14.48a2.449,2.449,0,0,1-.719-1.863,2.229,2.229,0,0,1,.957-1.926,4.78,4.78,0,0,1,2.793-.684h1.281V9.336a1.315,1.315,0,0,0-.32-.945,1.257,1.257,0,0,0-.953-.336,1.239,1.239,0,0,0-.855.27.941.941,0,0,0-.3.738h-2.2l-.016-.047A2.144,2.144,0,0,1,32,7.168a4.055,4.055,0,0,1,2.582-.777,3.784,3.784,0,0,1,2.465.766,2.667,2.667,0,0,1,.941,2.2v3.492a6.605,6.605,0,0,0,.09,1.117A5.606,5.606,0,0,0,38.367,15Zm-2.086-1.523a1.944,1.944,0,0,0,1.063-.3,1.6,1.6,0,0,0,.641-.687V11.3H34.43a1.519,1.519,0,0,0-1.1.359,1.181,1.181,0,0,0-.371.883.881.881,0,0,0,.277.684A1.1,1.1,0,0,0,34.008,13.477ZM42.1,15H39.82V2.813H42.1Zm4.273,0H44.094V6.547h2.281Zm0-10.477H44.094V2.813h2.281Zm1.523,6.32a5.493,5.493,0,0,1,.863-3.227A2.8,2.8,0,0,1,51.2,6.391a2.367,2.367,0,0,1,1.141.273,2.744,2.744,0,0,1,.891.781V2.813h2.289V15H53.57l-.2-1.039a2.826,2.826,0,0,1-.945.895,2.5,2.5,0,0,1-1.25.309,2.858,2.858,0,0,1-2.418-1.141,4.871,4.871,0,0,1-.863-3.016Zm2.273.164a3.443,3.443,0,0,0,.375,1.746,1.306,1.306,0,0,0,1.219.637,1.775,1.775,0,0,0,.859-.2,1.589,1.589,0,0,0,.6-.582v-3.6a1.756,1.756,0,0,0-.6-.621,1.589,1.589,0,0,0-.848-.223,1.287,1.287,0,0,0-1.223.742,4.194,4.194,0,0,0-.387,1.938ZM62.266,15a4.8,4.8,0,0,1-.215-.609,4.239,4.239,0,0,1-.129-.656,3.127,3.127,0,0,1-.93,1.023,2.33,2.33,0,0,1-1.375.406,2.855,2.855,0,0,1-2.047-.684,2.449,2.449,0,0,1-.719-1.863,2.229,2.229,0,0,1,.957-1.926,4.78,4.78,0,0,1,2.793-.684h1.281V9.336a1.315,1.315,0,0,0-.32-.945,1.257,1.257,0,0,0-.953-.336,1.239,1.239,0,0,0-.855.27.941.941,0,0,0-.3.738h-2.2l-.016-.047a2.144,2.144,0,0,1,.934-1.848,4.055,4.055,0,0,1,2.582-.777,3.784,3.784,0,0,1,2.465.766,2.667,2.667,0,0,1,.941,2.2v3.492a6.6,6.6,0,0,0,.09,1.117A5.606,5.606,0,0,0,64.539,15ZM60.18,13.477a1.944,1.944,0,0,0,1.063-.3,1.6,1.6,0,0,0,.641-.687V11.3H60.6a1.519,1.519,0,0,0-1.1.359,1.181,1.181,0,0,0-.371.883.881.881,0,0,0,.277.684A1.1,1.1,0,0,0,60.18,13.477Zm9.227-.062a1.27,1.27,0,0,0,.945-.355,1.291,1.291,0,0,0,.352-.949h2.078l.016.047a2.645,2.645,0,0,1-.953,2.145,3.564,3.564,0,0,1-2.437.863,3.6,3.6,0,0,1-2.9-1.2A4.558,4.558,0,0,1,65.484,10.9v-.234A4.588,4.588,0,0,1,66.5,7.6a3.57,3.57,0,0,1,2.887-1.207,3.486,3.486,0,0,1,2.492.891A2.976,2.976,0,0,1,72.8,9.625l-.016.047H70.7a1.687,1.687,0,0,0-.348-1.09,1.168,1.168,0,0,0-.965-.434,1.3,1.3,0,0,0-1.254.707,3.878,3.878,0,0,0-.371,1.809V10.9a3.863,3.863,0,0,0,.371,1.82A1.32,1.32,0,0,0,69.406,13.414ZM76.523,15H74.242V6.547h2.281Zm0-10.477H74.242V2.813h2.281ZM78.047,10.7A4.536,4.536,0,0,1,79.1,7.6a3.676,3.676,0,0,1,2.922-1.207,3.715,3.715,0,0,1,2.938,1.2,4.512,4.512,0,0,1,1.063,3.1v.164a4.519,4.519,0,0,1-1.059,3.105,4.178,4.178,0,0,1-5.859,0,4.519,4.519,0,0,1-1.059-3.105Zm2.273.164a3.677,3.677,0,0,0,.406,1.855,1.561,1.561,0,0,0,2.605,0,3.653,3.653,0,0,0,.41-1.852V10.7a3.616,3.616,0,0,0-.414-1.836,1.4,1.4,0,0,0-1.3-.711,1.384,1.384,0,0,0-1.293.715,3.648,3.648,0,0,0-.41,1.832Zm2.164-7.922h2.539l.016.047L82.875,5.016H80.93Zm7.031,3.609.1,1.211A3.092,3.092,0,0,1,90.656,6.75a2.7,2.7,0,0,1,1.383-.359,2.513,2.513,0,0,1,2,.824,3.908,3.908,0,0,1,.719,2.605V15H92.469V9.828a2.024,2.024,0,0,0-.316-1.285,1.166,1.166,0,0,0-.949-.379,1.992,1.992,0,0,0-.895.191,1.746,1.746,0,0,0-.637.527V15H87.391V6.547Z" transform="translate(629 4850)" fill="#12263f"/>
    <path id="Trazado_890218" data-name="Trazado 890218" d="M18,12.867h.047l3.633-9.242H23.6V15H22.059V6.477l-.047-.008L18.566,15H17.5L13.949,6.188,13.9,6.2V15H12.363V3.625h2.023Zm11.547,2.3A3.576,3.576,0,0,1,26.711,14a4.48,4.48,0,0,1-1.02-3.062v-.344a4.386,4.386,0,0,1,1.051-3.012,3.3,3.3,0,0,1,2.566-1.191,3.067,3.067,0,0,1,2.543,1.055,4.345,4.345,0,0,1,.848,2.8v.813H27.293l-.023.039a3.494,3.494,0,0,0,.563,2.066,1.965,1.965,0,0,0,1.719.793,3.872,3.872,0,0,0,1.371-.223,3.061,3.061,0,0,0,1.012-.613l.6,1a3.7,3.7,0,0,1-1.2.738A4.762,4.762,0,0,1,29.551,15.164ZM29.309,7.6a1.673,1.673,0,0,0-1.332.621,2.938,2.938,0,0,0-.645,1.59l.016.039H31.16V9.727A2.462,2.462,0,0,0,30.707,8.2,1.638,1.638,0,0,0,29.309,7.6Zm.578-4.648h1.8L31.7,3,29.6,5.031H28.441Zm6.68,1.555V6.547h1.6V7.688h-1.6V12.82a1.149,1.149,0,0,0,.246.836.89.89,0,0,0,.652.242,1.429,1.429,0,0,0,.3-.035,2.2,2.2,0,0,0,.273-.074l.211,1.055a1.36,1.36,0,0,1-.508.23,2.562,2.562,0,0,1-.664.09,1.993,1.993,0,0,1-1.492-.566,2.46,2.46,0,0,1-.555-1.777V7.688H33.684V6.547h1.344V4.508Zm7.25,3.4-.789-.047A1.762,1.762,0,0,0,42,8.148a1.855,1.855,0,0,0-.645.813V15H39.816V6.547h1.375l.148,1.234a2.934,2.934,0,0,1,.887-1.023,2.073,2.073,0,0,1,1.215-.367,1.9,1.9,0,0,1,.328.027,2.174,2.174,0,0,1,.258.059ZM47.082,15H45.543V6.547h1.539Zm0-10.617H45.543V2.813h1.539Zm5.727,9.578a1.81,1.81,0,0,0,1.242-.473,1.494,1.494,0,0,0,.531-1.16h1.391l.023.047a2.428,2.428,0,0,1-.937,1.941,3.582,3.582,0,0,1-5-.363,4.674,4.674,0,0,1-.969-3.016v-.328a4.654,4.654,0,0,1,.973-3,3.317,3.317,0,0,1,2.746-1.215,3.189,3.189,0,0,1,2.316.875A2.775,2.775,0,0,1,56,9.414l-.016.047h-1.4a1.865,1.865,0,0,0-.5-1.316,1.658,1.658,0,0,0-1.27-.543,1.777,1.777,0,0,0-1.652.879,4.114,4.114,0,0,0-.52,2.129v.328a4.192,4.192,0,0,0,.512,2.148A1.776,1.776,0,0,0,52.809,13.961ZM63.02,15q-.078-.383-.121-.676a4.96,4.96,0,0,1-.051-.59,3.589,3.589,0,0,1-1.121,1.02,2.867,2.867,0,0,1-1.488.41,2.763,2.763,0,0,1-2.012-.676,2.486,2.486,0,0,1-.691-1.863,2.183,2.183,0,0,1,.98-1.895,4.579,4.579,0,0,1,2.66-.684h1.672V9.211a1.551,1.551,0,0,0-.453-1.176A1.779,1.779,0,0,0,61.113,7.6a1.859,1.859,0,0,0-1.211.375,1.125,1.125,0,0,0-.461.9l-1.461.016-.016-.047a2.023,2.023,0,0,1,.863-1.687A3.578,3.578,0,0,1,61.2,6.391a3.49,3.49,0,0,1,2.313.73,2.588,2.588,0,0,1,.875,2.105V13.3a7.923,7.923,0,0,0,.047.875,4.5,4.5,0,0,0,.172.828Zm-2.555-1.125a2.739,2.739,0,0,0,1.508-.43,2.042,2.042,0,0,0,.875-.984V11.086H61.121a2.24,2.24,0,0,0-1.488.469,1.4,1.4,0,0,0-.559,1.1,1.159,1.159,0,0,0,.352.891A1.472,1.472,0,0,0,60.465,13.875Zm11.07-1.148a1.026,1.026,0,0,0-.387-.828,3.732,3.732,0,0,0-1.465-.562,6.146,6.146,0,0,1-2.293-.9,1.814,1.814,0,0,1-.8-1.547,2.229,2.229,0,0,1,.879-1.766,3.879,3.879,0,0,1,4.605.047,2.239,2.239,0,0,1,.852,1.82l-.016.047H71.441a1.331,1.331,0,0,0-.48-.992A1.717,1.717,0,0,0,69.746,7.6a1.751,1.751,0,0,0-1.215.367,1.146,1.146,0,0,0-.4.875.927.927,0,0,0,.348.773,3.848,3.848,0,0,0,1.434.5,6.058,6.058,0,0,1,2.359.93,1.872,1.872,0,0,1,.8,1.57,2.226,2.226,0,0,1-.91,1.836,3.754,3.754,0,0,1-2.379.711,3.715,3.715,0,0,1-2.547-.82,2.341,2.341,0,0,1-.883-1.914l.016-.047H67.84a1.424,1.424,0,0,0,.609,1.2,2.358,2.358,0,0,0,1.336.379,2.1,2.1,0,0,0,1.285-.348A1.063,1.063,0,0,0,71.535,12.727Zm7.078-1.8a5.641,5.641,0,0,1,.871-3.289,2.807,2.807,0,0,1,2.441-1.25,3.027,3.027,0,0,1,1.316.273,2.7,2.7,0,0,1,.98.8V2.813h1.539V15h-1.18l-.234-1.07a2.743,2.743,0,0,1-1.023.922,3.058,3.058,0,0,1-1.414.313,2.9,2.9,0,0,1-2.422-1.121,4.659,4.659,0,0,1-.875-2.949Zm1.539.164a3.588,3.588,0,0,0,.523,2.051,1.828,1.828,0,0,0,1.625.77,2.039,2.039,0,0,0,1.156-.312,2.334,2.334,0,0,0,.766-.875V8.781a2.37,2.37,0,0,0-.77-.832,2.033,2.033,0,0,0-1.137-.309,1.759,1.759,0,0,0-1.637.914,4.718,4.718,0,0,0-.527,2.375Zm11.406,4.07A3.576,3.576,0,0,1,88.719,14a4.48,4.48,0,0,1-1.02-3.062v-.344A4.386,4.386,0,0,1,88.75,7.582a3.3,3.3,0,0,1,2.566-1.191,3.067,3.067,0,0,1,2.543,1.055,4.345,4.345,0,0,1,.848,2.8v.813H89.3l-.023.039a3.494,3.494,0,0,0,.563,2.066,1.965,1.965,0,0,0,1.719.793,3.872,3.872,0,0,0,1.371-.223,3.061,3.061,0,0,0,1.012-.613l.6,1a3.7,3.7,0,0,1-1.2.738A4.762,4.762,0,0,1,91.559,15.164ZM91.316,7.6a1.673,1.673,0,0,0-1.332.621,2.938,2.938,0,0,0-.645,1.59l.016.039h3.813V9.727A2.462,2.462,0,0,0,92.715,8.2,1.638,1.638,0,0,0,91.316,7.6Zm17.422,3.758.016.047a3.417,3.417,0,0,1-1.125,2.68,4.3,4.3,0,0,1-3.055,1.078A4.012,4.012,0,0,1,101.43,13.8a5.028,5.028,0,0,1-1.215-3.469V8.3a5.043,5.043,0,0,1,1.215-3.473,4.006,4.006,0,0,1,3.145-1.371,4.416,4.416,0,0,1,3.07,1.027,3.4,3.4,0,0,1,1.109,2.723l-.016.047h-1.477a2.539,2.539,0,0,0-.7-1.891,2.7,2.7,0,0,0-1.984-.7,2.424,2.424,0,0,0-2.055,1.039,4.227,4.227,0,0,0-.766,2.578v2.039a4.254,4.254,0,0,0,.766,2.594,2.424,2.424,0,0,0,2.055,1.039,2.71,2.71,0,0,0,1.984-.691,2.557,2.557,0,0,0,.7-1.91Zm7,3.641q-.078-.383-.121-.676a4.96,4.96,0,0,1-.051-.59,3.589,3.589,0,0,1-1.121,1.02,2.867,2.867,0,0,1-1.488.41,2.763,2.763,0,0,1-2.012-.676,2.486,2.486,0,0,1-.691-1.863,2.183,2.183,0,0,1,.98-1.895,4.579,4.579,0,0,1,2.66-.684h1.672V9.211a1.551,1.551,0,0,0-.453-1.176,1.779,1.779,0,0,0-1.281-.434,1.859,1.859,0,0,0-1.211.375,1.125,1.125,0,0,0-.461.9l-1.461.016-.016-.047a2.023,2.023,0,0,1,.863-1.687,3.578,3.578,0,0,1,2.371-.766,3.49,3.49,0,0,1,2.313.73,2.588,2.588,0,0,1,.875,2.105V13.3a7.923,7.923,0,0,0,.047.875,4.5,4.5,0,0,0,.172.828Zm-2.555-1.125a2.739,2.739,0,0,0,1.508-.43,2.042,2.042,0,0,0,.875-.984V11.086H113.84a2.24,2.24,0,0,0-1.488.469,1.4,1.4,0,0,0-.559,1.1,1.159,1.159,0,0,0,.352.891A1.472,1.472,0,0,0,113.184,13.875ZM121,15h-1.539V2.813H121Zm4.031,0H123.5V6.547h1.539Zm0-10.617H123.5V2.813h1.539Zm2.016,6.547a5.641,5.641,0,0,1,.871-3.289,2.807,2.807,0,0,1,2.441-1.25,3.027,3.027,0,0,1,1.316.273,2.7,2.7,0,0,1,.98.8V2.813H134.2V15h-1.18l-.234-1.07a2.743,2.743,0,0,1-1.023.922,3.058,3.058,0,0,1-1.414.313,2.9,2.9,0,0,1-2.422-1.121,4.659,4.659,0,0,1-.875-2.949Zm1.539.164a3.588,3.588,0,0,0,.523,2.051,1.828,1.828,0,0,0,1.625.77,2.039,2.039,0,0,0,1.156-.312,2.334,2.334,0,0,0,.766-.875V8.781a2.37,2.37,0,0,0-.77-.832,2.033,2.033,0,0,0-1.137-.309,1.759,1.759,0,0,0-1.637.914,4.718,4.718,0,0,0-.527,2.375ZM141.691,15q-.078-.383-.121-.676a4.96,4.96,0,0,1-.051-.59,3.588,3.588,0,0,1-1.121,1.02,2.867,2.867,0,0,1-1.488.41,2.763,2.763,0,0,1-2.012-.676,2.486,2.486,0,0,1-.691-1.863,2.183,2.183,0,0,1,.98-1.895,4.579,4.579,0,0,1,2.66-.684h1.672V9.211a1.551,1.551,0,0,0-.453-1.176,1.779,1.779,0,0,0-1.281-.434,1.859,1.859,0,0,0-1.211.375,1.125,1.125,0,0,0-.461.9l-1.461.016-.016-.047a2.023,2.023,0,0,1,.863-1.687,3.578,3.578,0,0,1,2.371-.766,3.49,3.49,0,0,1,2.313.73,2.588,2.588,0,0,1,.875,2.105V13.3a7.923,7.923,0,0,0,.047.875,4.5,4.5,0,0,0,.172.828Zm-2.555-1.125a2.739,2.739,0,0,0,1.508-.43,2.042,2.042,0,0,0,.875-.984V11.086h-1.727a2.24,2.24,0,0,0-1.488.469,1.4,1.4,0,0,0-.559,1.1,1.159,1.159,0,0,0,.352.891A1.472,1.472,0,0,0,139.137,13.875Zm5.8-2.945a5.641,5.641,0,0,1,.871-3.289,2.807,2.807,0,0,1,2.441-1.25,3.027,3.027,0,0,1,1.316.273,2.7,2.7,0,0,1,.98.8V2.813h1.539V15h-1.18l-.234-1.07a2.743,2.743,0,0,1-1.023.922,3.058,3.058,0,0,1-1.414.313,2.9,2.9,0,0,1-2.422-1.121,4.659,4.659,0,0,1-.875-2.949Zm1.539.164A3.588,3.588,0,0,0,147,13.145a1.828,1.828,0,0,0,1.625.77,2.039,2.039,0,0,0,1.156-.312,2.334,2.334,0,0,0,.766-.875V8.781a2.37,2.37,0,0,0-.77-.832,2.033,2.033,0,0,0-1.137-.309,1.759,1.759,0,0,0-1.637.914,4.718,4.718,0,0,0-.527,2.375ZM156.066,15h-1.539V13.422h1.539Zm0-6.844h-1.539V6.578h1.539Zm14.664,3.2.016.047a3.417,3.417,0,0,1-1.125,2.68,4.3,4.3,0,0,1-3.055,1.078,4.012,4.012,0,0,1-3.145-1.367,5.028,5.028,0,0,1-1.215-3.469V8.3a5.043,5.043,0,0,1,1.215-3.473,4.006,4.006,0,0,1,3.145-1.371,4.416,4.416,0,0,1,3.07,1.027,3.4,3.4,0,0,1,1.109,2.723l-.016.047h-1.477a2.539,2.539,0,0,0-.7-1.891,2.7,2.7,0,0,0-1.984-.7,2.424,2.424,0,0,0-2.055,1.039,4.227,4.227,0,0,0-.766,2.578v2.039a4.254,4.254,0,0,0,.766,2.594,2.424,2.424,0,0,0,2.055,1.039,2.71,2.71,0,0,0,1.984-.691,2.557,2.557,0,0,0,.7-1.91Zm1.445-.664a4.654,4.654,0,0,1,1.016-3.09,3.764,3.764,0,0,1,5.535,0,4.639,4.639,0,0,1,1.02,3.094v.172a4.631,4.631,0,0,1-1.016,3.094,3.781,3.781,0,0,1-5.535,0,4.623,4.623,0,0,1-1.02-3.09Zm1.539.172a4.009,4.009,0,0,0,.566,2.219,2.046,2.046,0,0,0,3.355,0,3.988,3.988,0,0,0,.57-2.219V10.7a3.976,3.976,0,0,0-.574-2.211,1.882,1.882,0,0,0-1.684-.883,1.856,1.856,0,0,0-1.668.883,4.018,4.018,0,0,0-.566,2.211ZM183,6.547l.109,1.109a2.871,2.871,0,0,1,1.051-.934,3.158,3.158,0,0,1,1.48-.332,2.615,2.615,0,0,1,1.449.391A2.363,2.363,0,0,1,188,7.953a3.162,3.162,0,0,1,1.059-1.145,2.769,2.769,0,0,1,1.527-.418,2.531,2.531,0,0,1,2.039.887,4.051,4.051,0,0,1,.75,2.668V15H191.84V9.93a2.81,2.81,0,0,0-.43-1.77,1.567,1.567,0,0,0-1.281-.52,1.631,1.631,0,0,0-1.277.547,2.381,2.381,0,0,0-.574,1.383V15H186.73V9.93a2.772,2.772,0,0,0-.441-1.738,1.532,1.532,0,0,0-1.27-.551,2.115,2.115,0,0,0-1.156.289,1.867,1.867,0,0,0-.7.813V15h-1.539V6.547Zm19.813,4.547a4.659,4.659,0,0,1-.875,2.949,2.893,2.893,0,0,1-2.414,1.121,3.354,3.354,0,0,1-1.371-.262,2.622,2.622,0,0,1-1-.785V18.25h-1.539V6.547h1.18l.242,1.094a2.792,2.792,0,0,1,1.031-.93,3.078,3.078,0,0,1,1.438-.32,2.809,2.809,0,0,1,2.441,1.246,5.637,5.637,0,0,1,.871,3.293Zm-1.539-.164a4.467,4.467,0,0,0-.566-2.363,1.836,1.836,0,0,0-1.668-.926,2.054,2.054,0,0,0-1.133.3,2.25,2.25,0,0,0-.758.824v4.086a2.186,2.186,0,0,0,.758.816,2.126,2.126,0,0,0,1.148.293,1.894,1.894,0,0,0,1.656-.8,3.516,3.516,0,0,0,.563-2.066ZM206.371,15h-1.539V2.813h1.539Zm5.867.164A3.576,3.576,0,0,1,209.4,14a4.48,4.48,0,0,1-1.02-3.062v-.344a4.386,4.386,0,0,1,1.051-3.012A3.3,3.3,0,0,1,212,6.391a3.067,3.067,0,0,1,2.543,1.055,4.345,4.345,0,0,1,.848,2.8v.813H209.98l-.023.039a3.494,3.494,0,0,0,.563,2.066,1.965,1.965,0,0,0,1.719.793,3.872,3.872,0,0,0,1.371-.223,3.061,3.061,0,0,0,1.012-.613l.6,1a3.7,3.7,0,0,1-1.2.738A4.762,4.762,0,0,1,212.238,15.164ZM212,7.6a1.673,1.673,0,0,0-1.332.621,2.938,2.938,0,0,0-.645,1.59l.016.039h3.813V9.727a2.462,2.462,0,0,0-.453-1.523A1.638,1.638,0,0,0,212,7.6Zm7.258-3.094V6.547h1.6V7.688h-1.6V12.82a1.149,1.149,0,0,0,.246.836.89.89,0,0,0,.652.242,1.429,1.429,0,0,0,.3-.035,2.2,2.2,0,0,0,.273-.074l.211,1.055a1.36,1.36,0,0,1-.508.23,2.562,2.562,0,0,1-.664.09,1.993,1.993,0,0,1-1.492-.566,2.46,2.46,0,0,1-.555-1.777V7.688h-1.344V6.547h1.344V4.508ZM224.168,15h-1.539V6.547h1.539Zm0-10.617h-1.539V2.813h1.539Zm4.508.125V6.547h1.6V7.688h-1.6V12.82a1.149,1.149,0,0,0,.246.836.89.89,0,0,0,.652.242,1.429,1.429,0,0,0,.3-.035,2.2,2.2,0,0,0,.273-.074l.211,1.055a1.36,1.36,0,0,1-.508.23,2.562,2.562,0,0,1-.664.09,1.993,1.993,0,0,1-1.492-.566,2.46,2.46,0,0,1-.555-1.777V7.688h-1.344V6.547h1.344V4.508Zm8.617,9.242A2.863,2.863,0,0,1,236.27,14.8a2.8,2.8,0,0,1-1.445.367,2.716,2.716,0,0,1-2.156-.883,4.1,4.1,0,0,1-.773-2.75V6.547h1.539v5a3.147,3.147,0,0,0,.4,1.859,1.481,1.481,0,0,0,1.242.508,2.531,2.531,0,0,0,1.355-.332,2.077,2.077,0,0,0,.809-.941V6.547h1.539V15h-1.383Zm3.375-2.82a5.641,5.641,0,0,1,.871-3.289,2.807,2.807,0,0,1,2.441-1.25,3.027,3.027,0,0,1,1.316.273,2.7,2.7,0,0,1,.98.8V2.813h1.539V15h-1.18l-.234-1.07a2.743,2.743,0,0,1-1.023.922,3.058,3.058,0,0,1-1.414.313,2.9,2.9,0,0,1-2.422-1.121,4.659,4.659,0,0,1-.875-2.949Zm1.539.164a3.588,3.588,0,0,0,.523,2.051,1.828,1.828,0,0,0,1.625.77,2.039,2.039,0,0,0,1.156-.312,2.334,2.334,0,0,0,.766-.875V8.781a2.37,2.37,0,0,0-.77-.832,2.033,2.033,0,0,0-1.137-.309,1.759,1.759,0,0,0-1.637.914,4.718,4.718,0,0,0-.527,2.375Zm13.438,6.016h-1.539V3.625h1.539Zm14.711-5.75.016.047a3.417,3.417,0,0,1-1.125,2.68,4.3,4.3,0,0,1-3.055,1.078,4.012,4.012,0,0,1-3.145-1.367,5.028,5.028,0,0,1-1.215-3.469V8.3a5.043,5.043,0,0,1,1.215-3.473,4.006,4.006,0,0,1,3.145-1.371,4.416,4.416,0,0,1,3.07,1.027,3.4,3.4,0,0,1,1.109,2.723l-.016.047h-1.477a2.539,2.539,0,0,0-.7-1.891,2.7,2.7,0,0,0-1.984-.7,2.424,2.424,0,0,0-2.055,1.039,4.227,4.227,0,0,0-.766,2.578v2.039a4.254,4.254,0,0,0,.766,2.594,2.424,2.424,0,0,0,2.055,1.039,2.71,2.71,0,0,0,1.984-.691,2.557,2.557,0,0,0,.7-1.91ZM271.8,10.7a4.654,4.654,0,0,1,1.016-3.09,3.764,3.764,0,0,1,5.535,0,4.639,4.639,0,0,1,1.02,3.094v.172a4.631,4.631,0,0,1-1.016,3.094,3.781,3.781,0,0,1-5.535,0,4.623,4.623,0,0,1-1.02-3.09Zm1.539.172a4.009,4.009,0,0,0,.566,2.219,2.046,2.046,0,0,0,3.355,0,3.988,3.988,0,0,0,.57-2.219V10.7a3.976,3.976,0,0,0-.574-2.211,1.882,1.882,0,0,0-1.684-.883,1.856,1.856,0,0,0-1.668.883,4.018,4.018,0,0,0-.566,2.211Zm9.289-4.32.109,1.258A3.069,3.069,0,0,1,283.8,6.762a2.824,2.824,0,0,1,1.449-.371,2.759,2.759,0,0,1,2.117.8,3.515,3.515,0,0,1,.75,2.473V15h-1.539V9.7a2.287,2.287,0,0,0-.441-1.586,1.768,1.768,0,0,0-1.348-.469,2.386,2.386,0,0,0-1.207.285,2.073,2.073,0,0,0-.785.8V15h-1.539V6.547Zm12.633,6.18a1.026,1.026,0,0,0-.387-.828,3.732,3.732,0,0,0-1.465-.562,6.146,6.146,0,0,1-2.293-.9,1.814,1.814,0,0,1-.8-1.547,2.229,2.229,0,0,1,.879-1.766,3.879,3.879,0,0,1,4.605.047,2.239,2.239,0,0,1,.852,1.82l-.016.047h-1.469a1.331,1.331,0,0,0-.48-.992,1.717,1.717,0,0,0-1.215-.445,1.751,1.751,0,0,0-1.215.367,1.146,1.146,0,0,0-.4.875.927.927,0,0,0,.348.773,3.848,3.848,0,0,0,1.434.5,6.058,6.058,0,0,1,2.359.93,1.872,1.872,0,0,1,.8,1.57,2.226,2.226,0,0,1-.91,1.836,3.754,3.754,0,0,1-2.379.711,3.715,3.715,0,0,1-2.547-.82,2.341,2.341,0,0,1-.883-1.914l.016-.047h1.469a1.424,1.424,0,0,0,.609,1.2,2.358,2.358,0,0,0,1.336.379,2.1,2.1,0,0,0,1.285-.348A1.063,1.063,0,0,0,295.262,12.727ZM300.379,15H298.84V6.547h1.539Zm0-10.617H298.84V2.813h1.539Zm7.281,8.344a1.026,1.026,0,0,0-.387-.828,3.732,3.732,0,0,0-1.465-.562,6.146,6.146,0,0,1-2.293-.9,1.814,1.814,0,0,1-.8-1.547,2.229,2.229,0,0,1,.879-1.766,3.879,3.879,0,0,1,4.605.047,2.239,2.239,0,0,1,.852,1.82l-.016.047h-1.469a1.331,1.331,0,0,0-.48-.992,1.717,1.717,0,0,0-1.215-.445,1.751,1.751,0,0,0-1.215.367,1.146,1.146,0,0,0-.4.875.927.927,0,0,0,.348.773,3.848,3.848,0,0,0,1.434.5,6.058,6.058,0,0,1,2.359.93,1.872,1.872,0,0,1,.8,1.57,2.226,2.226,0,0,1-.91,1.836,3.754,3.754,0,0,1-2.379.711,3.715,3.715,0,0,1-2.547-.82,2.341,2.341,0,0,1-.883-1.914l.016-.047h1.469a1.424,1.424,0,0,0,.609,1.2,2.358,2.358,0,0,0,1.336.379,2.1,2.1,0,0,0,1.285-.348A1.063,1.063,0,0,0,307.66,12.727Zm5.594-8.219V6.547h1.6V7.688h-1.6V12.82a1.149,1.149,0,0,0,.246.836.89.89,0,0,0,.652.242,1.43,1.43,0,0,0,.3-.035,2.2,2.2,0,0,0,.273-.074l.211,1.055a1.36,1.36,0,0,1-.508.23,2.562,2.562,0,0,1-.664.09,1.993,1.993,0,0,1-1.492-.566,2.46,2.46,0,0,1-.555-1.777V7.688h-1.344V6.547h1.344V4.508ZM320,15.164A3.576,3.576,0,0,1,317.164,14a4.48,4.48,0,0,1-1.02-3.062v-.344A4.386,4.386,0,0,1,317.2,7.582a3.3,3.3,0,0,1,2.566-1.191A3.067,3.067,0,0,1,322.3,7.445a4.345,4.345,0,0,1,.848,2.8v.813h-5.406l-.023.039a3.494,3.494,0,0,0,.563,2.066,1.965,1.965,0,0,0,1.719.793,3.872,3.872,0,0,0,1.371-.223,3.061,3.061,0,0,0,1.012-.613l.6,1a3.7,3.7,0,0,1-1.2.738A4.762,4.762,0,0,1,320,15.164ZM319.762,7.6a1.673,1.673,0,0,0-1.332.621,2.938,2.938,0,0,0-.645,1.59l.016.039h3.813V9.727A2.461,2.461,0,0,0,321.16,8.2,1.638,1.638,0,0,0,319.762,7.6Zm6.492-1.055.109,1.258a3.069,3.069,0,0,1,1.059-1.043,2.824,2.824,0,0,1,1.449-.371,2.759,2.759,0,0,1,2.117.8,3.515,3.515,0,0,1,.75,2.473V15H330.2V9.7a2.287,2.287,0,0,0-.441-1.586,1.768,1.768,0,0,0-1.348-.469,2.386,2.386,0,0,0-1.207.285,2.073,2.073,0,0,0-.785.8V15h-1.539V6.547Zm11.078,7.414a1.81,1.81,0,0,0,1.242-.473,1.494,1.494,0,0,0,.531-1.16H340.5l.023.047a2.427,2.427,0,0,1-.937,1.941,3.582,3.582,0,0,1-5-.363,4.674,4.674,0,0,1-.969-3.016v-.328a4.654,4.654,0,0,1,.973-3,3.317,3.317,0,0,1,2.746-1.215,3.189,3.189,0,0,1,2.316.875,2.775,2.775,0,0,1,.871,2.148l-.016.047h-1.4a1.865,1.865,0,0,0-.5-1.316,1.658,1.658,0,0,0-1.27-.543,1.777,1.777,0,0,0-1.652.879,4.114,4.114,0,0,0-.52,2.129v.328a4.192,4.192,0,0,0,.512,2.148A1.776,1.776,0,0,0,337.332,13.961ZM344.012,15h-1.539V6.547h1.539Zm0-10.617h-1.539V2.813h1.539ZM351.574,15q-.078-.383-.121-.676a4.96,4.96,0,0,1-.051-.59,3.589,3.589,0,0,1-1.121,1.02,2.867,2.867,0,0,1-1.488.41,2.763,2.763,0,0,1-2.012-.676,2.486,2.486,0,0,1-.691-1.863,2.183,2.183,0,0,1,.98-1.895,4.579,4.579,0,0,1,2.66-.684H351.4V9.211a1.551,1.551,0,0,0-.453-1.176,1.779,1.779,0,0,0-1.281-.434,1.859,1.859,0,0,0-1.211.375,1.125,1.125,0,0,0-.461.9l-1.461.016-.016-.047a2.023,2.023,0,0,1,.863-1.687,3.578,3.578,0,0,1,2.371-.766,3.49,3.49,0,0,1,2.313.73,2.588,2.588,0,0,1,.875,2.105V13.3a7.923,7.923,0,0,0,.047.875,4.5,4.5,0,0,0,.172.828Zm-2.555-1.125a2.739,2.739,0,0,0,1.508-.43,2.042,2.042,0,0,0,.875-.984V11.086h-1.727a2.24,2.24,0,0,0-1.488.469,1.4,1.4,0,0,0-.559,1.1,1.159,1.159,0,0,0,.352.891A1.472,1.472,0,0,0,349.02,13.875Zm11.688,3.234h-1.539V3.625h1.539Zm8.133-6.672V15H367.3V3.625h4.352a4.009,4.009,0,0,1,2.832.938A3.207,3.207,0,0,1,375.5,7.031a3.2,3.2,0,0,1-1.012,2.477,4.031,4.031,0,0,1-2.832.93Zm0-1.2h2.813a2.231,2.231,0,0,0,1.727-.621,2.227,2.227,0,0,0,.57-1.566,2.26,2.26,0,0,0-.574-1.578,2.21,2.21,0,0,0-1.723-.633H368.84Zm12.422-1.328-.789-.047a1.762,1.762,0,0,0-1.027.289,1.854,1.854,0,0,0-.645.813V15h-1.539V6.547h1.375l.148,1.234a2.934,2.934,0,0,1,.887-1.023,2.073,2.073,0,0,1,1.215-.367,1.9,1.9,0,0,1,.328.027,2.175,2.175,0,0,1,.258.059Zm4.953,7.258A3.576,3.576,0,0,1,383.375,14a4.48,4.48,0,0,1-1.02-3.062v-.344a4.386,4.386,0,0,1,1.051-3.012,3.3,3.3,0,0,1,2.566-1.191,3.067,3.067,0,0,1,2.543,1.055,4.345,4.345,0,0,1,.848,2.8v.813h-5.406l-.023.039a3.494,3.494,0,0,0,.563,2.066,1.965,1.965,0,0,0,1.719.793,3.872,3.872,0,0,0,1.371-.223,3.061,3.061,0,0,0,1.012-.613l.6,1a3.7,3.7,0,0,1-1.2.738A4.762,4.762,0,0,1,386.215,15.164ZM385.973,7.6a1.673,1.673,0,0,0-1.332.621A2.938,2.938,0,0,0,384,9.813l.016.039h3.813V9.727a2.461,2.461,0,0,0-.453-1.523A1.638,1.638,0,0,0,385.973,7.6Zm8.477,6.359a1.81,1.81,0,0,0,1.242-.473,1.494,1.494,0,0,0,.531-1.16h1.391l.023.047a2.427,2.427,0,0,1-.937,1.941,3.582,3.582,0,0,1-5-.363,4.674,4.674,0,0,1-.969-3.016v-.328a4.654,4.654,0,0,1,.973-3,3.317,3.317,0,0,1,2.746-1.215,3.189,3.189,0,0,1,2.316.875,2.775,2.775,0,0,1,.871,2.148l-.016.047h-1.4a1.865,1.865,0,0,0-.5-1.316,1.658,1.658,0,0,0-1.27-.543,1.777,1.777,0,0,0-1.652.879,4.114,4.114,0,0,0-.52,2.129v.328a4.192,4.192,0,0,0,.512,2.148A1.776,1.776,0,0,0,394.449,13.961ZM401.129,15H399.59V6.547h1.539Zm0-10.617H399.59V2.813h1.539Zm7.281,8.344a1.026,1.026,0,0,0-.387-.828,3.732,3.732,0,0,0-1.465-.562,6.146,6.146,0,0,1-2.293-.9,1.814,1.814,0,0,1-.8-1.547,2.229,2.229,0,0,1,.879-1.766,3.879,3.879,0,0,1,4.605.047,2.239,2.239,0,0,1,.852,1.82l-.016.047h-1.469a1.331,1.331,0,0,0-.48-.992,1.717,1.717,0,0,0-1.215-.445,1.751,1.751,0,0,0-1.215.367,1.146,1.146,0,0,0-.4.875.927.927,0,0,0,.348.773,3.848,3.848,0,0,0,1.434.5,6.058,6.058,0,0,1,2.359.93,1.872,1.872,0,0,1,.8,1.57,2.226,2.226,0,0,1-.91,1.836,3.754,3.754,0,0,1-2.379.711,3.715,3.715,0,0,1-2.547-.82,2.341,2.341,0,0,1-.883-1.914l.016-.047h1.469a1.424,1.424,0,0,0,.609,1.2,2.358,2.358,0,0,0,1.336.379,2.1,2.1,0,0,0,1.285-.348A1.063,1.063,0,0,0,408.41,12.727ZM413.527,15h-1.539V6.547h1.539Zm0-10.617h-1.539V2.813h1.539Zm2.008,6.313a4.654,4.654,0,0,1,1.016-3.09,3.764,3.764,0,0,1,5.535,0,4.639,4.639,0,0,1,1.02,3.094v.172a4.631,4.631,0,0,1-1.016,3.094,3.781,3.781,0,0,1-5.535,0,4.623,4.623,0,0,1-1.02-3.09Zm1.539.172a4.009,4.009,0,0,0,.566,2.219,2.046,2.046,0,0,0,3.355,0,3.988,3.988,0,0,0,.57-2.219V10.7a3.976,3.976,0,0,0-.574-2.211,1.882,1.882,0,0,0-1.684-.883,1.856,1.856,0,0,0-1.668.883,4.018,4.018,0,0,0-.566,2.211Zm2.992-7.906h1.8l.016.047-2.1,2.031h-1.156Zm6.3,3.586.109,1.258a3.069,3.069,0,0,1,1.059-1.043,2.824,2.824,0,0,1,1.449-.371,2.759,2.759,0,0,1,2.117.8,3.515,3.515,0,0,1,.75,2.473V15h-1.539V9.7a2.287,2.287,0,0,0-.441-1.586,1.768,1.768,0,0,0-1.348-.469,2.386,2.386,0,0,0-1.207.285,2.073,2.073,0,0,0-.785.8V15h-1.539V6.547Z" transform="translate(578 5090)" fill="#12263f"/>
    <path id="Trazado_890219" data-name="Trazado 890219" d="M0,0H18V18H0Z" transform="translate(411 5154)" fill="#e5e6e9" stroke="#0f1837" stroke-width="2"/>
    <path id="Trazado_890220" data-name="Trazado 890220" d="M7.539,9.727H2.867V13.8H8.336V15H1.328V3.625H8.25V4.836H2.867v3.68H7.539Zm3.781-3.18L11.43,7.8a3.069,3.069,0,0,1,1.059-1.043,2.824,2.824,0,0,1,1.449-.371,2.759,2.759,0,0,1,2.117.8,3.515,3.515,0,0,1,.75,2.473V15H15.266V9.7a2.287,2.287,0,0,0-.441-1.586,1.768,1.768,0,0,0-1.348-.469,2.386,2.386,0,0,0-1.207.285,2.072,2.072,0,0,0-.785.8V15H9.945V6.547ZM21.18,4.508V6.547h1.6V7.688h-1.6V12.82a1.149,1.149,0,0,0,.246.836.89.89,0,0,0,.652.242,1.429,1.429,0,0,0,.3-.035,2.2,2.2,0,0,0,.273-.074l.211,1.055a1.36,1.36,0,0,1-.508.23,2.562,2.562,0,0,1-.664.09A1.993,1.993,0,0,1,20.2,14.6a2.46,2.46,0,0,1-.555-1.777V7.688H18.3V6.547h1.344V4.508Zm7.25,3.4-.789-.047a1.762,1.762,0,0,0-1.027.289,1.854,1.854,0,0,0-.645.813V15H24.43V6.547H25.8l.148,1.234a2.934,2.934,0,0,1,.887-1.023,2.073,2.073,0,0,1,1.215-.367,1.9,1.9,0,0,1,.328.027,2.175,2.175,0,0,1,.258.059ZM35.227,15q-.078-.383-.121-.676a4.96,4.96,0,0,1-.051-.59,3.589,3.589,0,0,1-1.121,1.02,2.867,2.867,0,0,1-1.488.41,2.763,2.763,0,0,1-2.012-.676,2.486,2.486,0,0,1-.691-1.863,2.183,2.183,0,0,1,.98-1.895,4.579,4.579,0,0,1,2.66-.684h1.672V9.211A1.551,1.551,0,0,0,34.6,8.035,1.779,1.779,0,0,0,33.32,7.6a1.859,1.859,0,0,0-1.211.375,1.125,1.125,0,0,0-.461.9l-1.461.016-.016-.047a2.023,2.023,0,0,1,.863-1.687,3.578,3.578,0,0,1,2.371-.766,3.49,3.49,0,0,1,2.313.73,2.588,2.588,0,0,1,.875,2.105V13.3a7.923,7.923,0,0,0,.047.875,4.5,4.5,0,0,0,.172.828Zm-2.555-1.125a2.739,2.739,0,0,0,1.508-.43,2.042,2.042,0,0,0,.875-.984V11.086H33.328a2.24,2.24,0,0,0-1.488.469,1.4,1.4,0,0,0-.559,1.1,1.159,1.159,0,0,0,.352.891A1.472,1.472,0,0,0,32.672,13.875Zm5.8-2.945a5.641,5.641,0,0,1,.871-3.289,2.807,2.807,0,0,1,2.441-1.25,3.027,3.027,0,0,1,1.316.273,2.7,2.7,0,0,1,.98.8V2.813h1.539V15h-1.18l-.234-1.07a2.743,2.743,0,0,1-1.023.922,3.058,3.058,0,0,1-1.414.313,2.9,2.9,0,0,1-2.422-1.121,4.659,4.659,0,0,1-.875-2.949Zm1.539.164a3.588,3.588,0,0,0,.523,2.051,1.828,1.828,0,0,0,1.625.77A2.039,2.039,0,0,0,43.32,13.6a2.334,2.334,0,0,0,.766-.875V8.781a2.37,2.37,0,0,0-.77-.832,2.033,2.033,0,0,0-1.137-.309,1.759,1.759,0,0,0-1.637.914,4.718,4.718,0,0,0-.527,2.375ZM53.117,15q-.078-.383-.121-.676a4.96,4.96,0,0,1-.051-.59,3.589,3.589,0,0,1-1.121,1.02,2.867,2.867,0,0,1-1.488.41,2.763,2.763,0,0,1-2.012-.676,2.486,2.486,0,0,1-.691-1.863,2.183,2.183,0,0,1,.98-1.895,4.579,4.579,0,0,1,2.66-.684h1.672V9.211a1.551,1.551,0,0,0-.453-1.176A1.779,1.779,0,0,0,51.211,7.6,1.859,1.859,0,0,0,50,7.977a1.125,1.125,0,0,0-.461.9l-1.461.016-.016-.047a2.023,2.023,0,0,1,.863-1.687A3.578,3.578,0,0,1,51.3,6.391a3.49,3.49,0,0,1,2.313.73,2.588,2.588,0,0,1,.875,2.105V13.3a7.923,7.923,0,0,0,.047.875A4.5,4.5,0,0,0,54.7,15Zm-2.555-1.125a2.739,2.739,0,0,0,1.508-.43,2.042,2.042,0,0,0,.875-.984V11.086H51.219a2.24,2.24,0,0,0-1.488.469,1.4,1.4,0,0,0-.559,1.1,1.159,1.159,0,0,0,.352.891A1.472,1.472,0,0,0,50.563,13.875Zm9.781-2.945a5.641,5.641,0,0,1,.871-3.289,2.807,2.807,0,0,1,2.441-1.25,3.027,3.027,0,0,1,1.316.273,2.7,2.7,0,0,1,.98.8V2.813h1.539V15h-1.18l-.234-1.07a2.743,2.743,0,0,1-1.023.922,3.058,3.058,0,0,1-1.414.313,2.9,2.9,0,0,1-2.422-1.121,4.659,4.659,0,0,1-.875-2.949Zm1.539.164a3.588,3.588,0,0,0,.523,2.051,1.828,1.828,0,0,0,1.625.77,2.039,2.039,0,0,0,1.156-.312,2.334,2.334,0,0,0,.766-.875V8.781a2.37,2.37,0,0,0-.77-.832,2.033,2.033,0,0,0-1.137-.309,1.759,1.759,0,0,0-1.637.914,4.718,4.718,0,0,0-.527,2.375Zm11.406,4.07A3.576,3.576,0,0,1,70.449,14a4.48,4.48,0,0,1-1.02-3.062v-.344A4.386,4.386,0,0,1,70.48,7.582a3.3,3.3,0,0,1,2.566-1.191A3.067,3.067,0,0,1,75.59,7.445a4.345,4.345,0,0,1,.848,2.8v.813H71.031l-.023.039a3.494,3.494,0,0,0,.563,2.066,1.965,1.965,0,0,0,1.719.793,3.872,3.872,0,0,0,1.371-.223,3.061,3.061,0,0,0,1.012-.613l.6,1a3.7,3.7,0,0,1-1.2.738A4.762,4.762,0,0,1,73.289,15.164ZM73.047,7.6a1.673,1.673,0,0,0-1.332.621,2.938,2.938,0,0,0-.645,1.59l.016.039H74.9V9.727A2.462,2.462,0,0,0,74.445,8.2,1.638,1.638,0,0,0,73.047,7.6Zm8.742,3.328a5.641,5.641,0,0,1,.871-3.289A2.807,2.807,0,0,1,85.1,6.391a3.027,3.027,0,0,1,1.316.273,2.7,2.7,0,0,1,.98.8V2.813h1.539V15h-1.18l-.234-1.07a2.743,2.743,0,0,1-1.023.922,3.058,3.058,0,0,1-1.414.313,2.9,2.9,0,0,1-2.422-1.121,4.659,4.659,0,0,1-.875-2.949Zm1.539.164a3.588,3.588,0,0,0,.523,2.051,1.828,1.828,0,0,0,1.625.77,2.039,2.039,0,0,0,1.156-.312,2.334,2.334,0,0,0,.766-.875V8.781a2.37,2.37,0,0,0-.77-.832,2.033,2.033,0,0,0-1.137-.309,1.759,1.759,0,0,0-1.637.914,4.718,4.718,0,0,0-.527,2.375ZM96.43,15q-.078-.383-.121-.676a4.96,4.96,0,0,1-.051-.59,3.589,3.589,0,0,1-1.121,1.02,2.867,2.867,0,0,1-1.488.41,2.763,2.763,0,0,1-2.012-.676,2.486,2.486,0,0,1-.691-1.863,2.183,2.183,0,0,1,.98-1.895,4.579,4.579,0,0,1,2.66-.684h1.672V9.211A1.551,1.551,0,0,0,95.8,8.035,1.779,1.779,0,0,0,94.523,7.6a1.859,1.859,0,0,0-1.211.375,1.125,1.125,0,0,0-.461.9l-1.461.016-.016-.047a2.023,2.023,0,0,1,.863-1.687,3.578,3.578,0,0,1,2.371-.766,3.49,3.49,0,0,1,2.313.73A2.588,2.588,0,0,1,97.8,9.227V13.3a7.923,7.923,0,0,0,.047.875,4.5,4.5,0,0,0,.172.828Zm-2.555-1.125a2.739,2.739,0,0,0,1.508-.43,2.042,2.042,0,0,0,.875-.984V11.086H94.531a2.24,2.24,0,0,0-1.488.469,1.4,1.4,0,0,0-.559,1.1,1.159,1.159,0,0,0,.352.891A1.472,1.472,0,0,0,93.875,13.875Zm8.3-9.367V6.547h1.6V7.688h-1.6V12.82a1.149,1.149,0,0,0,.246.836.89.89,0,0,0,.652.242,1.43,1.43,0,0,0,.3-.035,2.2,2.2,0,0,0,.273-.074l.211,1.055a1.36,1.36,0,0,1-.508.23,2.562,2.562,0,0,1-.664.09,1.993,1.993,0,0,1-1.492-.566,2.46,2.46,0,0,1-.555-1.777V7.688H99.289V6.547h1.344V4.508Zm2.891,6.188a4.654,4.654,0,0,1,1.016-3.09,3.764,3.764,0,0,1,5.535,0,4.639,4.639,0,0,1,1.02,3.094v.172a4.631,4.631,0,0,1-1.016,3.094,3.781,3.781,0,0,1-5.535,0,4.623,4.623,0,0,1-1.02-3.09Zm1.539.172a4.009,4.009,0,0,0,.566,2.219,2.046,2.046,0,0,0,3.355,0,3.988,3.988,0,0,0,.57-2.219V10.7a3.976,3.976,0,0,0-.574-2.211,1.882,1.882,0,0,0-1.684-.883,1.856,1.856,0,0,0-1.668.883A4.018,4.018,0,0,0,106.6,10.7Zm12.828,1.859a1.026,1.026,0,0,0-.387-.828,3.732,3.732,0,0,0-1.465-.562,6.146,6.146,0,0,1-2.293-.9,1.814,1.814,0,0,1-.8-1.547,2.229,2.229,0,0,1,.879-1.766,3.879,3.879,0,0,1,4.605.047,2.239,2.239,0,0,1,.852,1.82l-.016.047h-1.469a1.331,1.331,0,0,0-.48-.992,1.717,1.717,0,0,0-1.215-.445,1.751,1.751,0,0,0-1.215.367,1.146,1.146,0,0,0-.4.875.927.927,0,0,0,.348.773,3.848,3.848,0,0,0,1.434.5,6.058,6.058,0,0,1,2.359.93,1.872,1.872,0,0,1,.8,1.57,2.226,2.226,0,0,1-.91,1.836,3.754,3.754,0,0,1-2.379.711,3.715,3.715,0,0,1-2.547-.82,2.341,2.341,0,0,1-.883-1.914l.016-.047h1.469a1.424,1.424,0,0,0,.609,1.2,2.358,2.358,0,0,0,1.336.379,2.1,2.1,0,0,0,1.285-.348A1.063,1.063,0,0,0,119.43,12.727Z" transform="translate(439 5154)" fill="#12263f"/>
    <path id="Trazado_890221" data-name="Trazado 890221" d="M0,0H18V18H0Z" transform="translate(614 5154)" fill="#e4f5fd" stroke="#03a9f4" stroke-width="2"/>
    <path id="Trazado_890222" data-name="Trazado 890222" d="M1.328,15V3.625H4.906A4.812,4.812,0,0,1,8.488,5,4.824,4.824,0,0,1,9.844,8.539v1.555a4.808,4.808,0,0,1-1.355,3.543A4.827,4.827,0,0,1,4.906,15ZM2.867,4.836V13.8H4.906a3.137,3.137,0,0,0,2.488-1.039,3.9,3.9,0,0,0,.91-2.664V8.523a3.873,3.873,0,0,0-.91-2.648A3.137,3.137,0,0,0,4.906,4.836ZM15.453,15.164A3.576,3.576,0,0,1,12.613,14a4.48,4.48,0,0,1-1.02-3.062v-.344a4.386,4.386,0,0,1,1.051-3.012,3.3,3.3,0,0,1,2.566-1.191,3.067,3.067,0,0,1,2.543,1.055,4.345,4.345,0,0,1,.848,2.8v.813H13.2l-.023.039a3.494,3.494,0,0,0,.563,2.066,1.965,1.965,0,0,0,1.719.793,3.872,3.872,0,0,0,1.371-.223,3.061,3.061,0,0,0,1.012-.613l.6,1a3.7,3.7,0,0,1-1.2.738A4.762,4.762,0,0,1,15.453,15.164ZM15.211,7.6a1.673,1.673,0,0,0-1.332.621,2.938,2.938,0,0,0-.645,1.59l.016.039h3.813V9.727A2.462,2.462,0,0,0,16.609,8.2,1.638,1.638,0,0,0,15.211,7.6Zm7.258-3.094V6.547h1.6V7.688h-1.6V12.82a1.149,1.149,0,0,0,.246.836.89.89,0,0,0,.652.242,1.429,1.429,0,0,0,.3-.035,2.2,2.2,0,0,0,.273-.074l.211,1.055a1.36,1.36,0,0,1-.508.23,2.562,2.562,0,0,1-.664.09,1.993,1.993,0,0,1-1.492-.566,2.46,2.46,0,0,1-.555-1.777V7.688H19.586V6.547H20.93V4.508Zm6.75,10.656A3.576,3.576,0,0,1,26.379,14a4.48,4.48,0,0,1-1.02-3.062v-.344A4.386,4.386,0,0,1,26.41,7.582a3.3,3.3,0,0,1,2.566-1.191A3.067,3.067,0,0,1,31.52,7.445a4.345,4.345,0,0,1,.848,2.8v.813H26.961l-.023.039a3.494,3.494,0,0,0,.563,2.066,1.965,1.965,0,0,0,1.719.793,3.872,3.872,0,0,0,1.371-.223,3.061,3.061,0,0,0,1.012-.613l.6,1a3.7,3.7,0,0,1-1.2.738A4.762,4.762,0,0,1,29.219,15.164ZM28.977,7.6a1.673,1.673,0,0,0-1.332.621A2.938,2.938,0,0,0,27,9.813l.016.039h3.813V9.727A2.462,2.462,0,0,0,30.375,8.2,1.638,1.638,0,0,0,28.977,7.6Zm8.477,6.359a1.81,1.81,0,0,0,1.242-.473,1.494,1.494,0,0,0,.531-1.16h1.391l.023.047a2.428,2.428,0,0,1-.937,1.941,3.582,3.582,0,0,1-5-.363,4.674,4.674,0,0,1-.969-3.016v-.328a4.654,4.654,0,0,1,.973-3,3.317,3.317,0,0,1,2.746-1.215,3.189,3.189,0,0,1,2.316.875,2.775,2.775,0,0,1,.871,2.148l-.016.047h-1.4a1.865,1.865,0,0,0-.5-1.316,1.658,1.658,0,0,0-1.27-.543A1.777,1.777,0,0,0,35.8,8.48a4.114,4.114,0,0,0-.52,2.129v.328a4.192,4.192,0,0,0,.512,2.148A1.776,1.776,0,0,0,37.453,13.961Zm8.375,0a1.81,1.81,0,0,0,1.242-.473,1.494,1.494,0,0,0,.531-1.16h1.391l.023.047a2.428,2.428,0,0,1-.937,1.941,3.582,3.582,0,0,1-5-.363,4.674,4.674,0,0,1-.969-3.016v-.328a4.654,4.654,0,0,1,.973-3,3.317,3.317,0,0,1,2.746-1.215,3.189,3.189,0,0,1,2.316.875,2.775,2.775,0,0,1,.871,2.148L49,9.461H47.6a1.865,1.865,0,0,0-.5-1.316,1.658,1.658,0,0,0-1.27-.543,1.777,1.777,0,0,0-1.652.879,4.114,4.114,0,0,0-.52,2.129v.328a4.192,4.192,0,0,0,.512,2.148A1.776,1.776,0,0,0,45.828,13.961ZM52.508,15H50.969V6.547h1.539Zm0-10.617H50.969V2.813h1.539ZM54.516,10.7a4.654,4.654,0,0,1,1.016-3.09,3.764,3.764,0,0,1,5.535,0,4.639,4.639,0,0,1,1.02,3.094v.172a4.631,4.631,0,0,1-1.016,3.094,3.781,3.781,0,0,1-5.535,0,4.623,4.623,0,0,1-1.02-3.09Zm1.539.172a4.009,4.009,0,0,0,.566,2.219,2.046,2.046,0,0,0,3.355,0,3.988,3.988,0,0,0,.57-2.219V10.7a3.976,3.976,0,0,0-.574-2.211A1.882,1.882,0,0,0,58.289,7.6a1.856,1.856,0,0,0-1.668.883,4.018,4.018,0,0,0-.566,2.211Zm2.992-7.906h1.8l.016.047-2.1,2.031H57.6Zm6.3,3.586L65.453,7.8a3.069,3.069,0,0,1,1.059-1.043,2.824,2.824,0,0,1,1.449-.371,2.759,2.759,0,0,1,2.117.8,3.515,3.515,0,0,1,.75,2.473V15H69.289V9.7a2.287,2.287,0,0,0-.441-1.586A1.768,1.768,0,0,0,67.5,7.641a2.386,2.386,0,0,0-1.207.285,2.072,2.072,0,0,0-.785.8V15H63.969V6.547ZM76.688,10.93a5.641,5.641,0,0,1,.871-3.289A2.807,2.807,0,0,1,80,6.391a3.027,3.027,0,0,1,1.316.273,2.7,2.7,0,0,1,.98.8V2.813h1.539V15h-1.18l-.234-1.07a2.743,2.743,0,0,1-1.023.922,3.058,3.058,0,0,1-1.414.313,2.9,2.9,0,0,1-2.422-1.121,4.659,4.659,0,0,1-.875-2.949Zm1.539.164a3.588,3.588,0,0,0,.523,2.051,1.828,1.828,0,0,0,1.625.77,2.039,2.039,0,0,0,1.156-.312,2.334,2.334,0,0,0,.766-.875V8.781a2.37,2.37,0,0,0-.77-.832,2.033,2.033,0,0,0-1.137-.309,1.759,1.759,0,0,0-1.637.914,4.718,4.718,0,0,0-.527,2.375Zm11.406,4.07A3.576,3.576,0,0,1,86.793,14a4.48,4.48,0,0,1-1.02-3.062v-.344a4.386,4.386,0,0,1,1.051-3.012,3.3,3.3,0,0,1,2.566-1.191,3.067,3.067,0,0,1,2.543,1.055,4.345,4.345,0,0,1,.848,2.8v.813H87.375l-.023.039a3.494,3.494,0,0,0,.563,2.066,1.965,1.965,0,0,0,1.719.793A3.872,3.872,0,0,0,91,13.738a3.061,3.061,0,0,0,1.012-.613l.6,1a3.7,3.7,0,0,1-1.2.738A4.762,4.762,0,0,1,89.633,15.164ZM89.391,7.6a1.673,1.673,0,0,0-1.332.621,2.938,2.938,0,0,0-.645,1.59l.016.039h3.813V9.727A2.462,2.462,0,0,0,90.789,8.2,1.638,1.638,0,0,0,89.391,7.6Zm12.594,7.563A3.576,3.576,0,0,1,99.145,14a4.48,4.48,0,0,1-1.02-3.062v-.344a4.386,4.386,0,0,1,1.051-3.012,3.3,3.3,0,0,1,2.566-1.191,3.067,3.067,0,0,1,2.543,1.055,4.345,4.345,0,0,1,.848,2.8v.813H99.727L99.7,11.1a3.494,3.494,0,0,0,.563,2.066,1.965,1.965,0,0,0,1.719.793,3.872,3.872,0,0,0,1.371-.223,3.061,3.061,0,0,0,1.012-.613l.6,1a3.7,3.7,0,0,1-1.2.738A4.762,4.762,0,0,1,101.984,15.164ZM101.742,7.6a1.673,1.673,0,0,0-1.332.621,2.938,2.938,0,0,0-.645,1.59l.016.039h3.813V9.727a2.462,2.462,0,0,0-.453-1.523A1.638,1.638,0,0,0,101.742,7.6Zm9.117.3-.789-.047a1.762,1.762,0,0,0-1.027.289,1.854,1.854,0,0,0-.645.813V15h-1.539V6.547h1.375l.148,1.234a2.934,2.934,0,0,1,.887-1.023,2.073,2.073,0,0,1,1.215-.367,1.9,1.9,0,0,1,.328.027,2.175,2.175,0,0,1,.258.059Zm5.6,0-.789-.047a1.762,1.762,0,0,0-1.027.289,1.854,1.854,0,0,0-.645.813V15h-1.539V6.547h1.375l.148,1.234a2.934,2.934,0,0,1,.887-1.023,2.073,2.073,0,0,1,1.215-.367,1.9,1.9,0,0,1,.328.027,2.175,2.175,0,0,1,.258.059Zm1.086,2.789a4.654,4.654,0,0,1,1.016-3.09,3.764,3.764,0,0,1,5.535,0,4.639,4.639,0,0,1,1.02,3.094v.172a4.631,4.631,0,0,1-1.016,3.094,3.781,3.781,0,0,1-5.535,0,4.623,4.623,0,0,1-1.02-3.09Zm1.539.172a4.009,4.009,0,0,0,.566,2.219,2.046,2.046,0,0,0,3.355,0,3.988,3.988,0,0,0,.57-2.219V10.7A3.976,3.976,0,0,0,123,8.484,1.882,1.882,0,0,0,121.32,7.6a1.856,1.856,0,0,0-1.668.883,4.018,4.018,0,0,0-.566,2.211ZM131,7.906l-.789-.047a1.762,1.762,0,0,0-1.027.289,1.855,1.855,0,0,0-.645.813V15H127V6.547h1.375l.148,1.234a2.934,2.934,0,0,1,.887-1.023,2.073,2.073,0,0,1,1.215-.367,1.9,1.9,0,0,1,.328.027,2.174,2.174,0,0,1,.258.059Zm4.953,7.258A3.576,3.576,0,0,1,133.113,14a4.48,4.48,0,0,1-1.02-3.062v-.344a4.386,4.386,0,0,1,1.051-3.012,3.3,3.3,0,0,1,2.566-1.191,3.067,3.067,0,0,1,2.543,1.055,4.345,4.345,0,0,1,.848,2.8v.813H133.7l-.023.039a3.494,3.494,0,0,0,.563,2.066,1.965,1.965,0,0,0,1.719.793,3.872,3.872,0,0,0,1.371-.223,3.061,3.061,0,0,0,1.012-.613l.6,1a3.7,3.7,0,0,1-1.2.738A4.762,4.762,0,0,1,135.953,15.164ZM135.711,7.6a1.673,1.673,0,0,0-1.332.621,2.938,2.938,0,0,0-.645,1.59l.016.039h3.813V9.727a2.462,2.462,0,0,0-.453-1.523A1.638,1.638,0,0,0,135.711,7.6Zm10.031,5.125a1.026,1.026,0,0,0-.387-.828,3.732,3.732,0,0,0-1.465-.562,6.146,6.146,0,0,1-2.293-.9,1.814,1.814,0,0,1-.8-1.547,2.229,2.229,0,0,1,.879-1.766,3.879,3.879,0,0,1,4.605.047,2.239,2.239,0,0,1,.852,1.82l-.016.047h-1.469a1.331,1.331,0,0,0-.48-.992,1.717,1.717,0,0,0-1.215-.445,1.751,1.751,0,0,0-1.215.367,1.146,1.146,0,0,0-.4.875.927.927,0,0,0,.348.773,3.848,3.848,0,0,0,1.434.5,6.058,6.058,0,0,1,2.359.93,1.872,1.872,0,0,1,.8,1.57,2.226,2.226,0,0,1-.91,1.836,3.754,3.754,0,0,1-2.379.711,3.715,3.715,0,0,1-2.547-.82,2.341,2.341,0,0,1-.883-1.914l.016-.047h1.469a1.424,1.424,0,0,0,.609,1.2,2.358,2.358,0,0,0,1.336.379,2.1,2.1,0,0,0,1.285-.348A1.063,1.063,0,0,0,145.742,12.727Z" transform="translate(642 5154)" fill="#12263f"/>
    <path id="Trazado_890223" data-name="Trazado 890223" d="M0,0H18V18H0Z" transform="translate(845 5154)" fill="#efedfc" stroke="#6c5ce7" stroke-width="2"/>
    <path id="Trazado_890224" data-name="Trazado 890224" d="M2.867,10.438V15H1.328V3.625H5.68a4.009,4.009,0,0,1,2.832.938A3.207,3.207,0,0,1,9.523,7.031,3.2,3.2,0,0,1,8.512,9.508a4.031,4.031,0,0,1-2.832.93Zm0-1.2H5.68a2.231,2.231,0,0,0,1.727-.621,2.227,2.227,0,0,0,.57-1.566A2.26,2.26,0,0,0,7.4,5.469,2.21,2.21,0,0,0,5.68,4.836H2.867ZM15.289,7.906,14.5,7.859a1.762,1.762,0,0,0-1.027.289,1.854,1.854,0,0,0-.645.813V15H11.289V6.547h1.375l.148,1.234A2.934,2.934,0,0,1,13.7,6.758a2.073,2.073,0,0,1,1.215-.367,1.9,1.9,0,0,1,.328.027,2.174,2.174,0,0,1,.258.059ZM16.375,10.7a4.654,4.654,0,0,1,1.016-3.09,3.406,3.406,0,0,1,2.758-1.215A3.439,3.439,0,0,1,22.926,7.6a4.639,4.639,0,0,1,1.02,3.094v.172a4.631,4.631,0,0,1-1.016,3.094,3.429,3.429,0,0,1-2.766,1.2,3.436,3.436,0,0,1-2.77-1.207,4.623,4.623,0,0,1-1.02-3.09Zm1.539.172a4.009,4.009,0,0,0,.566,2.219,2.046,2.046,0,0,0,3.355,0,3.988,3.988,0,0,0,.57-2.219V10.7a3.976,3.976,0,0,0-.574-2.211A1.882,1.882,0,0,0,20.148,7.6a1.856,1.856,0,0,0-1.668.883,4.018,4.018,0,0,0-.566,2.211Zm11.273,3.094a1.81,1.81,0,0,0,1.242-.473,1.494,1.494,0,0,0,.531-1.16h1.391l.023.047a2.428,2.428,0,0,1-.937,1.941,3.582,3.582,0,0,1-5-.363,4.674,4.674,0,0,1-.969-3.016v-.328a4.654,4.654,0,0,1,.973-3,3.317,3.317,0,0,1,2.746-1.215,3.189,3.189,0,0,1,2.316.875,2.775,2.775,0,0,1,.871,2.148l-.016.047h-1.4a1.865,1.865,0,0,0-.5-1.316,1.658,1.658,0,0,0-1.27-.543,1.777,1.777,0,0,0-1.652.879,4.114,4.114,0,0,0-.52,2.129v.328a4.192,4.192,0,0,0,.512,2.148A1.776,1.776,0,0,0,29.188,13.961Zm8.516,1.2A3.576,3.576,0,0,1,34.863,14a4.48,4.48,0,0,1-1.02-3.062v-.344a4.386,4.386,0,0,1,1.051-3.012,3.3,3.3,0,0,1,2.566-1.191A3.067,3.067,0,0,1,40,7.445a4.345,4.345,0,0,1,.848,2.8v.813H35.445l-.023.039a3.494,3.494,0,0,0,.563,2.066,1.965,1.965,0,0,0,1.719.793,3.872,3.872,0,0,0,1.371-.223,3.061,3.061,0,0,0,1.012-.613l.6,1a3.7,3.7,0,0,1-1.2.738A4.762,4.762,0,0,1,37.7,15.164ZM37.461,7.6a1.673,1.673,0,0,0-1.332.621,2.938,2.938,0,0,0-.645,1.59l.016.039h3.813V9.727A2.462,2.462,0,0,0,38.859,8.2,1.638,1.638,0,0,0,37.461,7.6Zm10.031,5.125a1.026,1.026,0,0,0-.387-.828,3.732,3.732,0,0,0-1.465-.562,6.146,6.146,0,0,1-2.293-.9,1.814,1.814,0,0,1-.8-1.547,2.229,2.229,0,0,1,.879-1.766,3.879,3.879,0,0,1,4.605.047,2.239,2.239,0,0,1,.852,1.82l-.016.047H47.4a1.331,1.331,0,0,0-.48-.992A1.717,1.717,0,0,0,45.7,7.6a1.751,1.751,0,0,0-1.215.367,1.146,1.146,0,0,0-.4.875.927.927,0,0,0,.348.773,3.848,3.848,0,0,0,1.434.5,6.058,6.058,0,0,1,2.359.93,1.872,1.872,0,0,1,.8,1.57,2.226,2.226,0,0,1-.91,1.836,3.754,3.754,0,0,1-2.379.711,3.715,3.715,0,0,1-2.547-.82,2.341,2.341,0,0,1-.883-1.914l.016-.047H43.8a1.424,1.424,0,0,0,.609,1.2,2.358,2.358,0,0,0,1.336.379,2.1,2.1,0,0,0,1.285-.348A1.063,1.063,0,0,0,47.492,12.727ZM56.141,15q-.078-.383-.121-.676a4.96,4.96,0,0,1-.051-.59,3.589,3.589,0,0,1-1.121,1.02,2.867,2.867,0,0,1-1.488.41,2.763,2.763,0,0,1-2.012-.676,2.486,2.486,0,0,1-.691-1.863,2.183,2.183,0,0,1,.98-1.895,4.579,4.579,0,0,1,2.66-.684h1.672V9.211a1.551,1.551,0,0,0-.453-1.176A1.779,1.779,0,0,0,54.234,7.6a1.859,1.859,0,0,0-1.211.375,1.125,1.125,0,0,0-.461.9L51.1,8.891l-.016-.047a2.023,2.023,0,0,1,.863-1.687,3.578,3.578,0,0,1,2.371-.766,3.49,3.49,0,0,1,2.313.73,2.588,2.588,0,0,1,.875,2.105V13.3a7.923,7.923,0,0,0,.047.875,4.5,4.5,0,0,0,.172.828Zm-2.555-1.125a2.739,2.739,0,0,0,1.508-.43,2.042,2.042,0,0,0,.875-.984V11.086H54.242a2.24,2.24,0,0,0-1.488.469,1.4,1.4,0,0,0-.559,1.1,1.159,1.159,0,0,0,.352.891A1.472,1.472,0,0,0,53.586,13.875Zm7.531-7.328.109,1.109a2.871,2.871,0,0,1,1.051-.934,3.158,3.158,0,0,1,1.48-.332,2.615,2.615,0,0,1,1.449.391,2.363,2.363,0,0,1,.91,1.172,3.162,3.162,0,0,1,1.059-1.145A2.769,2.769,0,0,1,68.7,6.391a2.531,2.531,0,0,1,2.039.887,4.051,4.051,0,0,1,.75,2.668V15H69.953V9.93a2.81,2.81,0,0,0-.43-1.77,1.567,1.567,0,0,0-1.281-.52,1.631,1.631,0,0,0-1.277.547,2.381,2.381,0,0,0-.574,1.383V15H64.844V9.93A2.772,2.772,0,0,0,64.4,8.191a1.532,1.532,0,0,0-1.27-.551,2.115,2.115,0,0,0-1.156.289,1.867,1.867,0,0,0-.7.813V15H59.742V6.547ZM75.391,15H73.852V6.547h1.539Zm0-10.617H73.852V2.813h1.539Zm5.867,10.781A3.576,3.576,0,0,1,78.418,14a4.48,4.48,0,0,1-1.02-3.062v-.344a4.386,4.386,0,0,1,1.051-3.012,3.3,3.3,0,0,1,2.566-1.191,3.067,3.067,0,0,1,2.543,1.055,4.345,4.345,0,0,1,.848,2.8v.813H79l-.023.039a3.494,3.494,0,0,0,.563,2.066,1.965,1.965,0,0,0,1.719.793,3.872,3.872,0,0,0,1.371-.223,3.061,3.061,0,0,0,1.012-.613l.6,1a3.7,3.7,0,0,1-1.2.738A4.762,4.762,0,0,1,81.258,15.164ZM81.016,7.6a1.673,1.673,0,0,0-1.332.621,2.938,2.938,0,0,0-.645,1.59l.016.039h3.813V9.727A2.462,2.462,0,0,0,82.414,8.2,1.638,1.638,0,0,0,81.016,7.6Zm6.492-1.055L87.617,7.8a3.069,3.069,0,0,1,1.059-1.043,2.824,2.824,0,0,1,1.449-.371,2.759,2.759,0,0,1,2.117.8,3.515,3.515,0,0,1,.75,2.473V15H91.453V9.7a2.287,2.287,0,0,0-.441-1.586,1.768,1.768,0,0,0-1.348-.469,2.386,2.386,0,0,0-1.207.285,2.072,2.072,0,0,0-.785.8V15H86.133V6.547Zm9.859-2.039V6.547h1.6V7.688h-1.6V12.82a1.149,1.149,0,0,0,.246.836.89.89,0,0,0,.652.242,1.43,1.43,0,0,0,.3-.035,2.2,2.2,0,0,0,.273-.074l.211,1.055a1.36,1.36,0,0,1-.508.23,2.562,2.562,0,0,1-.664.09,1.993,1.993,0,0,1-1.492-.566,2.46,2.46,0,0,1-.555-1.777V7.688H94.484V6.547h1.344V4.508Zm2.891,6.188a4.654,4.654,0,0,1,1.016-3.09,3.764,3.764,0,0,1,5.535,0,4.639,4.639,0,0,1,1.02,3.094v.172a4.631,4.631,0,0,1-1.016,3.094,3.781,3.781,0,0,1-5.535,0,4.623,4.623,0,0,1-1.02-3.09Zm1.539.172a4.009,4.009,0,0,0,.566,2.219,2.046,2.046,0,0,0,3.355,0,3.988,3.988,0,0,0,.57-2.219V10.7a3.976,3.976,0,0,0-.574-2.211,1.882,1.882,0,0,0-1.684-.883,1.856,1.856,0,0,0-1.668.883A4.018,4.018,0,0,0,101.8,10.7Z" transform="translate(873 5154)" fill="#12263f"/>
    <path id="Trazado_890225" data-name="Trazado 890225" d="M0,0H18V18H0Z" transform="translate(1041 5154)" fill="#f6fff6" stroke="#acffac" stroke-width="2"/>
    <path id="Trazado_890226" data-name="Trazado 890226" d="M4.781,12.016l.258.945h.047l.258-.945L8.281,3.625H9.945L5.719,15H4.4L.172,3.625H1.844ZM16.07,15q-.078-.383-.121-.676a4.96,4.96,0,0,1-.051-.59,3.589,3.589,0,0,1-1.121,1.02,2.867,2.867,0,0,1-1.488.41,2.763,2.763,0,0,1-2.012-.676,2.486,2.486,0,0,1-.691-1.863,2.183,2.183,0,0,1,.98-1.895,4.579,4.579,0,0,1,2.66-.684H15.9V9.211a1.551,1.551,0,0,0-.453-1.176A1.779,1.779,0,0,0,14.164,7.6a1.859,1.859,0,0,0-1.211.375,1.125,1.125,0,0,0-.461.9l-1.461.016-.016-.047a2.023,2.023,0,0,1,.863-1.687,3.578,3.578,0,0,1,2.371-.766,3.49,3.49,0,0,1,2.313.73,2.588,2.588,0,0,1,.875,2.105V13.3a7.923,7.923,0,0,0,.047.875,4.5,4.5,0,0,0,.172.828Zm-2.555-1.125a2.739,2.739,0,0,0,1.508-.43,2.042,2.042,0,0,0,.875-.984V11.086H14.172a2.24,2.24,0,0,0-1.488.469,1.4,1.4,0,0,0-.559,1.1,1.159,1.159,0,0,0,.352.891A1.472,1.472,0,0,0,13.516,13.875ZM21.336,15H19.8V2.813h1.539Zm4.031,0H23.828V6.547h1.539Zm0-10.617H23.828V2.813h1.539Zm2.016,6.547a5.641,5.641,0,0,1,.871-3.289A2.807,2.807,0,0,1,30.7,6.391a3.027,3.027,0,0,1,1.316.273,2.7,2.7,0,0,1,.98.8V2.813h1.539V15h-1.18l-.234-1.07a2.743,2.743,0,0,1-1.023.922,3.058,3.058,0,0,1-1.414.313,2.9,2.9,0,0,1-2.422-1.121,4.659,4.659,0,0,1-.875-2.949Zm1.539.164a3.588,3.588,0,0,0,.523,2.051,1.828,1.828,0,0,0,1.625.77,2.039,2.039,0,0,0,1.156-.312,2.334,2.334,0,0,0,.766-.875V8.781a2.37,2.37,0,0,0-.77-.832,2.033,2.033,0,0,0-1.137-.309,1.759,1.759,0,0,0-1.637.914,4.718,4.718,0,0,0-.527,2.375ZM42.023,15q-.078-.383-.121-.676a4.96,4.96,0,0,1-.051-.59,3.589,3.589,0,0,1-1.121,1.02,2.867,2.867,0,0,1-1.488.41,2.763,2.763,0,0,1-2.012-.676,2.486,2.486,0,0,1-.691-1.863,2.183,2.183,0,0,1,.98-1.895,4.579,4.579,0,0,1,2.66-.684h1.672V9.211A1.551,1.551,0,0,0,41.4,8.035,1.779,1.779,0,0,0,40.117,7.6a1.859,1.859,0,0,0-1.211.375,1.125,1.125,0,0,0-.461.9l-1.461.016-.016-.047a2.023,2.023,0,0,1,.863-1.687A3.578,3.578,0,0,1,40.2,6.391a3.49,3.49,0,0,1,2.313.73,2.588,2.588,0,0,1,.875,2.105V13.3a7.923,7.923,0,0,0,.047.875,4.5,4.5,0,0,0,.172.828Zm-2.555-1.125a2.739,2.739,0,0,0,1.508-.43,2.042,2.042,0,0,0,.875-.984V11.086H40.125a2.24,2.24,0,0,0-1.488.469,1.4,1.4,0,0,0-.559,1.1,1.159,1.159,0,0,0,.352.891A1.472,1.472,0,0,0,39.469,13.875Zm9.516.086a1.81,1.81,0,0,0,1.242-.473,1.494,1.494,0,0,0,.531-1.16h1.391l.023.047a2.428,2.428,0,0,1-.937,1.941,3.582,3.582,0,0,1-5-.363,4.674,4.674,0,0,1-.969-3.016v-.328a4.654,4.654,0,0,1,.973-3,3.317,3.317,0,0,1,2.746-1.215,3.189,3.189,0,0,1,2.316.875,2.775,2.775,0,0,1,.871,2.148l-.016.047h-1.4a1.865,1.865,0,0,0-.5-1.316,1.658,1.658,0,0,0-1.27-.543,1.777,1.777,0,0,0-1.652.879,4.114,4.114,0,0,0-.52,2.129v.328a4.192,4.192,0,0,0,.512,2.148A1.776,1.776,0,0,0,48.984,13.961ZM55.664,15H54.125V6.547h1.539Zm0-10.617H54.125V2.813h1.539ZM57.672,10.7a4.654,4.654,0,0,1,1.016-3.09,3.764,3.764,0,0,1,5.535,0,4.639,4.639,0,0,1,1.02,3.094v.172a4.631,4.631,0,0,1-1.016,3.094,3.781,3.781,0,0,1-5.535,0,4.623,4.623,0,0,1-1.02-3.09Zm1.539.172a4.009,4.009,0,0,0,.566,2.219,2.046,2.046,0,0,0,3.355,0,3.988,3.988,0,0,0,.57-2.219V10.7a3.976,3.976,0,0,0-.574-2.211A1.882,1.882,0,0,0,61.445,7.6a1.856,1.856,0,0,0-1.668.883,4.018,4.018,0,0,0-.566,2.211ZM62.2,2.961H64l.016.047-2.1,2.031H60.758Zm6.3,3.586L68.609,7.8a3.069,3.069,0,0,1,1.059-1.043,2.824,2.824,0,0,1,1.449-.371,2.759,2.759,0,0,1,2.117.8,3.515,3.515,0,0,1,.75,2.473V15H72.445V9.7A2.287,2.287,0,0,0,72,8.109a1.768,1.768,0,0,0-1.348-.469,2.386,2.386,0,0,0-1.207.285,2.072,2.072,0,0,0-.785.8V15H67.125V6.547ZM80.625,15V7.688H79.3V6.547h1.328V5.633a2.875,2.875,0,0,1,.832-2.2,3.24,3.24,0,0,1,2.309-.781A4.431,4.431,0,0,1,84.8,2.77q.508.121,1.2.355l-.266,1.25a7.011,7.011,0,0,0-.883-.281,3.947,3.947,0,0,0-.961-.117,1.8,1.8,0,0,0-1.316.406,1.713,1.713,0,0,0-.4,1.25v.914h1.68V7.688h-1.68V15Zm6.117,0H85.2V6.547h1.547Zm3.734-8.453L90.586,7.8a3.069,3.069,0,0,1,1.059-1.043,2.824,2.824,0,0,1,1.449-.371,2.759,2.759,0,0,1,2.117.8,3.515,3.515,0,0,1,.75,2.473V15H94.422V9.7a2.287,2.287,0,0,0-.441-1.586,1.768,1.768,0,0,0-1.348-.469,2.386,2.386,0,0,0-1.207.285,2.072,2.072,0,0,0-.785.8V15H89.1V6.547ZM103.391,15q-.078-.383-.121-.676a4.96,4.96,0,0,1-.051-.59,3.589,3.589,0,0,1-1.121,1.02,2.867,2.867,0,0,1-1.488.41,2.763,2.763,0,0,1-2.012-.676,2.486,2.486,0,0,1-.691-1.863,2.183,2.183,0,0,1,.98-1.895,4.579,4.579,0,0,1,2.66-.684h1.672V9.211a1.551,1.551,0,0,0-.453-1.176,1.779,1.779,0,0,0-1.281-.434,1.859,1.859,0,0,0-1.211.375,1.125,1.125,0,0,0-.461.9l-1.461.016-.016-.047A2.023,2.023,0,0,1,99.2,7.156a3.578,3.578,0,0,1,2.371-.766,3.49,3.49,0,0,1,2.313.73,2.588,2.588,0,0,1,.875,2.105V13.3a7.923,7.923,0,0,0,.047.875,4.5,4.5,0,0,0,.172.828Zm-2.555-1.125a2.739,2.739,0,0,0,1.508-.43,2.042,2.042,0,0,0,.875-.984V11.086h-1.727a2.24,2.24,0,0,0-1.488.469,1.4,1.4,0,0,0-.559,1.1,1.159,1.159,0,0,0,.352.891A1.472,1.472,0,0,0,100.836,13.875ZM108.656,15h-1.539V2.813h1.539Z" transform="translate(1069 5154)" fill="#12263f"/>
    <path id="Trazado_890227" data-name="Trazado 890227" d="M104.779,12.764l.018.053a4.006,4.006,0,0,1-1.248,3.208,5.089,5.089,0,0,1-3.542,1.16A4.906,4.906,0,0,1,96.289,15.7a5.312,5.312,0,0,1-1.415-3.828V9.336a5.41,5.41,0,0,1,1.38-3.828,4.7,4.7,0,0,1,3.621-1.49,5.4,5.4,0,0,1,3.656,1.143,3.934,3.934,0,0,1,1.283,3.217l-.018.053h-2.5a2.516,2.516,0,0,0-.593-1.833A2.474,2.474,0,0,0,99.875,6a2.069,2.069,0,0,0-1.8.927,4.1,4.1,0,0,0-.646,2.4v2.558a3.98,3.98,0,0,0,.681,2.408,2.214,2.214,0,0,0,1.894.932,2.253,2.253,0,0,0,1.718-.6,2.619,2.619,0,0,0,.567-1.85ZM109.139,17h-2.566V7.49h2.566Zm0-11.786h-2.566V3.289h2.566Zm6.082,10a1.428,1.428,0,0,0,1.063-.4,1.452,1.452,0,0,0,.4-1.068h2.338l.018.053a2.976,2.976,0,0,1-1.072,2.413,4.01,4.01,0,0,1-2.742.971,4.052,4.052,0,0,1-3.261-1.349,5.128,5.128,0,0,1-1.151-3.45v-.264a5.161,5.161,0,0,1,1.147-3.45A4.016,4.016,0,0,1,115.2,7.314a3.922,3.922,0,0,1,2.8,1,3.348,3.348,0,0,1,1.028,2.637l-.018.053H116.68a1.9,1.9,0,0,0-.391-1.226,1.314,1.314,0,0,0-1.085-.488,1.465,1.465,0,0,0-1.411.8,4.362,4.362,0,0,0-.417,2.035v.264a4.346,4.346,0,0,0,.417,2.048A1.485,1.485,0,0,0,115.221,15.216ZM123.228,17h-2.566V3.289h2.566Zm1.714-4.843a5.1,5.1,0,0,1,1.187-3.485,4.136,4.136,0,0,1,3.287-1.358,4.18,4.18,0,0,1,3.3,1.354,5.076,5.076,0,0,1,1.2,3.489v.185a5.084,5.084,0,0,1-1.191,3.494,4.7,4.7,0,0,1-6.592,0,5.084,5.084,0,0,1-1.191-3.494Zm2.558.185a4.137,4.137,0,0,0,.457,2.087,1.756,1.756,0,0,0,2.931,0,4.11,4.11,0,0,0,.461-2.083v-.185a4.068,4.068,0,0,0-.466-2.065,1.576,1.576,0,0,0-1.468-.8,1.557,1.557,0,0,0-1.455.8,4.1,4.1,0,0,0-.461,2.061Zm12.085-.018a6.18,6.18,0,0,1,.971-3.63,3.154,3.154,0,0,1,2.738-1.38,2.663,2.663,0,0,1,1.283.308,3.087,3.087,0,0,1,1,.879V3.289h2.575V17h-2.188l-.22-1.169a3.179,3.179,0,0,1-1.063,1.006,2.812,2.812,0,0,1-1.406.347,3.215,3.215,0,0,1-2.72-1.283,5.479,5.479,0,0,1-.971-3.393Zm2.558.185a3.874,3.874,0,0,0,.422,1.964,1.469,1.469,0,0,0,1.371.716,2,2,0,0,0,.967-.224,1.788,1.788,0,0,0,.677-.655V10.259a1.975,1.975,0,0,0-.672-.7,1.788,1.788,0,0,0-.954-.25,1.448,1.448,0,0,0-1.375.835,4.718,4.718,0,0,0-.435,2.18Zm12.12,4.676a4.279,4.279,0,0,1-3.322-1.305,4.784,4.784,0,0,1-1.2-3.362v-.352a5.207,5.207,0,0,1,1.16-3.5,3.944,3.944,0,0,1,3.19-1.354,3.692,3.692,0,0,1,2.94,1.173,4.637,4.637,0,0,1,1.024,3.16v1.327H152.39l-.026.053a2.569,2.569,0,0,0,.593,1.582,1.987,1.987,0,0,0,1.578.606A5.279,5.279,0,0,0,156,15.04a5.971,5.971,0,0,0,1.244-.536l.694,1.582a4.764,4.764,0,0,1-1.547.782A6.86,6.86,0,0,1,154.262,17.185Zm-.167-7.893a1.425,1.425,0,0,0-1.191.532,2.667,2.667,0,0,0-.505,1.411l.018.044h3.129v-.193a2.221,2.221,0,0,0-.343-1.314A1.268,1.268,0,0,0,154.095,9.292Zm14.941.4-.94-.026a1.709,1.709,0,0,0-.94.237,1.5,1.5,0,0,0-.562.668V17h-2.558V7.49h2.382l.114,1.406a3,3,0,0,1,.866-1.165,2.022,2.022,0,0,1,1.582-.387q.163.031.33.075Zm5.291,7.488A4.279,4.279,0,0,1,171,15.879a4.784,4.784,0,0,1-1.2-3.362v-.352a5.207,5.207,0,0,1,1.16-3.5,3.944,3.944,0,0,1,3.19-1.354,3.692,3.692,0,0,1,2.94,1.173,4.637,4.637,0,0,1,1.024,3.16v1.327h-5.669l-.026.053a2.569,2.569,0,0,0,.593,1.582,1.987,1.987,0,0,0,1.578.606,5.279,5.279,0,0,0,1.463-.176,5.971,5.971,0,0,0,1.244-.536L178,16.086a4.764,4.764,0,0,1-1.547.782A6.86,6.86,0,0,1,174.327,17.185Zm-.167-7.893a1.425,1.425,0,0,0-1.191.532,2.667,2.667,0,0,0-.505,1.411l.018.044h3.129v-.193a2.221,2.221,0,0,0-.343-1.314A1.268,1.268,0,0,0,174.16,9.292Zm8.534-4.131V7.49H184.3v1.8h-1.608v4.843a1.105,1.105,0,0,0,.233.791.818.818,0,0,0,.611.237,2.45,2.45,0,0,0,.352-.022,2.961,2.961,0,0,0,.343-.075l.211,1.854a5.2,5.2,0,0,1-.751.2,4.48,4.48,0,0,1-.8.066,2.735,2.735,0,0,1-2.043-.729,3.2,3.2,0,0,1-.716-2.312V9.292h-1.389V7.49h1.389V5.161ZM190.886,9.7l-.94-.026a1.709,1.709,0,0,0-.94.237,1.5,1.5,0,0,0-.562.668V17h-2.558V7.49h2.382l.114,1.406a3,3,0,0,1,.866-1.165,2.022,2.022,0,0,1,1.582-.387q.163.031.33.075Zm.765,2.461a5.1,5.1,0,0,1,1.187-3.485,4.136,4.136,0,0,1,3.287-1.358,4.18,4.18,0,0,1,3.3,1.354,5.076,5.076,0,0,1,1.2,3.489v.185a5.084,5.084,0,0,1-1.191,3.494,4.7,4.7,0,0,1-6.592,0,5.084,5.084,0,0,1-1.191-3.494Zm2.558.185a4.137,4.137,0,0,0,.457,2.087,1.756,1.756,0,0,0,2.931,0,4.11,4.11,0,0,0,.461-2.083v-.185a4.068,4.068,0,0,0-.466-2.065,1.576,1.576,0,0,0-1.468-.8,1.557,1.557,0,0,0-1.455.8,4.1,4.1,0,0,0-.461,2.061ZM207.813,17a5.4,5.4,0,0,1-.242-.686,4.769,4.769,0,0,1-.145-.738,3.518,3.518,0,0,1-1.046,1.151,2.621,2.621,0,0,1-1.547.457,3.211,3.211,0,0,1-2.3-.769,2.755,2.755,0,0,1-.809-2.1,2.508,2.508,0,0,1,1.077-2.167,5.377,5.377,0,0,1,3.142-.769h1.441v-.756a1.48,1.48,0,0,0-.36-1.063,1.414,1.414,0,0,0-1.072-.378,1.394,1.394,0,0,0-.962.3,1.059,1.059,0,0,0-.338.831h-2.47l-.018-.053a2.412,2.412,0,0,1,1.05-2.079,4.562,4.562,0,0,1,2.9-.875,4.257,4.257,0,0,1,2.773.861,3,3,0,0,1,1.059,2.47v3.929a7.431,7.431,0,0,0,.1,1.257A6.307,6.307,0,0,0,210.371,17Zm-2.347-1.714a2.187,2.187,0,0,0,1.2-.334,1.8,1.8,0,0,0,.721-.773V12.834h-1.441a1.708,1.708,0,0,0-1.235.4,1.329,1.329,0,0,0-.417.993A.992.992,0,0,0,204.6,15,1.234,1.234,0,0,0,205.467,15.286ZM214.572,17h-2.566V3.289h2.566Zm4.808,0h-2.566V7.49h2.566Zm0-11.786h-2.566V3.289h2.566Zm4.491,2.276.105,1.257a3.2,3.2,0,0,1,1.147-1.059,3.3,3.3,0,0,1,1.6-.374,2.905,2.905,0,0,1,1.564.4,2.494,2.494,0,0,1,.984,1.222,3.3,3.3,0,0,1,1.143-1.2,3.1,3.1,0,0,1,1.652-.431,2.71,2.71,0,0,1,2.219,1,4.762,4.762,0,0,1,.813,3.045V17h-2.566V11.349a2.665,2.665,0,0,0-.352-1.591,1.248,1.248,0,0,0-1.046-.448,1.792,1.792,0,0,0-.945.242,1.761,1.761,0,0,0-.637.672q0,.167.009.286t.009.242V17h-2.558V11.349a2.673,2.673,0,0,0-.352-1.578A1.242,1.242,0,0,0,225.6,9.31a1.991,1.991,0,0,0-.91.2,1.745,1.745,0,0,0-.646.558V17h-2.558V7.49Zm17.314,9.694a4.279,4.279,0,0,1-3.322-1.305,4.784,4.784,0,0,1-1.2-3.362v-.352a5.207,5.207,0,0,1,1.16-3.5,3.944,3.944,0,0,1,3.19-1.354,3.692,3.692,0,0,1,2.94,1.173,4.637,4.637,0,0,1,1.024,3.16v1.327h-5.669l-.026.053a2.569,2.569,0,0,0,.593,1.582,1.987,1.987,0,0,0,1.578.606,5.279,5.279,0,0,0,1.463-.176,5.971,5.971,0,0,0,1.244-.536l.694,1.582a4.764,4.764,0,0,1-1.547.782A6.86,6.86,0,0,1,241.186,17.185Zm-.167-7.893a1.425,1.425,0,0,0-1.191.532,2.667,2.667,0,0,0-.505,1.411l.018.044h3.129v-.193a2.221,2.221,0,0,0-.343-1.314A1.268,1.268,0,0,0,241.019,9.292Zm7.8-1.8.114,1.362a3.478,3.478,0,0,1,1.169-1.134,3.034,3.034,0,0,1,1.556-.4,2.828,2.828,0,0,1,2.25.927,4.4,4.4,0,0,1,.809,2.931V17h-2.575V11.182a2.277,2.277,0,0,0-.356-1.446,1.312,1.312,0,0,0-1.068-.426,2.241,2.241,0,0,0-1.006.215,1.964,1.964,0,0,0-.716.593V17h-2.566V7.49Zm10.89-2.329V7.49h1.608v1.8h-1.608v4.843a1.105,1.105,0,0,0,.233.791.818.818,0,0,0,.611.237,2.45,2.45,0,0,0,.352-.022,2.961,2.961,0,0,0,.343-.075l.211,1.854a5.2,5.2,0,0,1-.751.2,4.48,4.48,0,0,1-.8.066,2.735,2.735,0,0,1-2.043-.729,3.2,3.2,0,0,1-.716-2.312V9.292h-1.389V7.49h1.389V5.161ZM268.511,17a5.4,5.4,0,0,1-.242-.686,4.769,4.769,0,0,1-.145-.738,3.518,3.518,0,0,1-1.046,1.151,2.621,2.621,0,0,1-1.547.457,3.211,3.211,0,0,1-2.3-.769,2.755,2.755,0,0,1-.809-2.1,2.508,2.508,0,0,1,1.077-2.167,5.377,5.377,0,0,1,3.142-.769h1.441v-.756a1.48,1.48,0,0,0-.36-1.063,1.414,1.414,0,0,0-1.072-.378,1.394,1.394,0,0,0-.962.3,1.059,1.059,0,0,0-.338.831h-2.47l-.018-.053a2.412,2.412,0,0,1,1.05-2.079,4.562,4.562,0,0,1,2.9-.875,4.257,4.257,0,0,1,2.773.861,3,3,0,0,1,1.059,2.47v3.929a7.431,7.431,0,0,0,.1,1.257A6.307,6.307,0,0,0,271.068,17Zm-2.347-1.714a2.187,2.187,0,0,0,1.2-.334,1.8,1.8,0,0,0,.721-.773V12.834h-1.441a1.708,1.708,0,0,0-1.235.4,1.329,1.329,0,0,0-.417.993A.992.992,0,0,0,265.3,15,1.234,1.234,0,0,0,266.164,15.286Zm10.38-.07a1.428,1.428,0,0,0,1.063-.4,1.452,1.452,0,0,0,.4-1.068h2.338l.018.053a2.976,2.976,0,0,1-1.072,2.413,4.01,4.01,0,0,1-2.742.971,4.052,4.052,0,0,1-3.261-1.349,5.128,5.128,0,0,1-1.151-3.45v-.264a5.161,5.161,0,0,1,1.147-3.45,4.016,4.016,0,0,1,3.248-1.358,3.922,3.922,0,0,1,2.8,1,3.348,3.348,0,0,1,1.028,2.637l-.018.053H278a1.9,1.9,0,0,0-.391-1.226,1.314,1.314,0,0,0-1.085-.488,1.465,1.465,0,0,0-1.411.8,4.362,4.362,0,0,0-.417,2.035v.264a4.346,4.346,0,0,0,.417,2.048A1.485,1.485,0,0,0,276.544,15.216ZM284.551,17h-2.566V7.49h2.566Zm0-11.786h-2.566V3.289h2.566Zm1.714,6.943a5.1,5.1,0,0,1,1.187-3.485,4.136,4.136,0,0,1,3.287-1.358,4.18,4.18,0,0,1,3.3,1.354,5.076,5.076,0,0,1,1.2,3.489v.185a5.084,5.084,0,0,1-1.191,3.494,4.7,4.7,0,0,1-6.592,0,5.084,5.084,0,0,1-1.191-3.494Zm2.558.185a4.137,4.137,0,0,0,.457,2.087,1.756,1.756,0,0,0,2.931,0,4.11,4.11,0,0,0,.461-2.083v-.185a4.068,4.068,0,0,0-.466-2.065,1.576,1.576,0,0,0-1.468-.8,1.557,1.557,0,0,0-1.455.8,4.1,4.1,0,0,0-.461,2.061Zm2.435-8.912h2.856l.018.053L291.7,5.768h-2.188Zm7.91,4.061.114,1.362a3.478,3.478,0,0,1,1.169-1.134,3.034,3.034,0,0,1,1.556-.4,2.828,2.828,0,0,1,2.25.927,4.4,4.4,0,0,1,.809,2.931V17h-2.575V11.182a2.277,2.277,0,0,0-.356-1.446,1.312,1.312,0,0,0-1.068-.426,2.241,2.241,0,0,0-1.006.215,1.964,1.964,0,0,0-.716.593V17h-2.566V7.49Z" transform="translate(600 5037)" fill="#12263f"/>
    <path id="Trazado_890228" data-name="Trazado 890228" d="M28.605,13.25H33.7V15H26.324V3.625h2.281ZM37.441,15H35.16V6.547h2.281Zm0-10.477H35.16V2.813h2.281Zm3.992,2.023.094,1.117a2.84,2.84,0,0,1,1.02-.941,2.932,2.932,0,0,1,1.418-.332,2.582,2.582,0,0,1,1.391.359,2.217,2.217,0,0,1,.875,1.086,2.93,2.93,0,0,1,1.016-1.062,2.756,2.756,0,0,1,1.469-.383,2.408,2.408,0,0,1,1.973.887,4.233,4.233,0,0,1,.723,2.707V15H49.129V9.977a2.369,2.369,0,0,0-.312-1.414,1.109,1.109,0,0,0-.93-.4,1.592,1.592,0,0,0-.84.215,1.565,1.565,0,0,0-.566.6q0,.148.008.254t.008.215V15H44.223V9.977a2.376,2.376,0,0,0-.312-1.4,1.1,1.1,0,0,0-.937-.41,1.769,1.769,0,0,0-.809.176,1.551,1.551,0,0,0-.574.5V15H39.316V6.547Zm19.352,4.461a4.855,4.855,0,0,1-.867,3.016A2.869,2.869,0,0,1,57.5,15.164a2.707,2.707,0,0,1-1.18-.246,2.423,2.423,0,0,1-.883-.723V18.25H53.16V6.547h2.055l.133,1a2.709,2.709,0,0,1,.9-.855,2.441,2.441,0,0,1,1.23-.3,2.813,2.813,0,0,1,2.438,1.227,5.474,5.474,0,0,1,.867,3.227ZM58.5,10.844a4.09,4.09,0,0,0-.4-1.937,1.3,1.3,0,0,0-1.219-.742,1.722,1.722,0,0,0-.879.211,1.505,1.505,0,0,0-.574.6v3.7a1.4,1.4,0,0,0,.574.547,1.935,1.935,0,0,0,.895.188,1.312,1.312,0,0,0,1.215-.648,3.423,3.423,0,0,0,.387-1.758ZM64.59,15H62.309V6.547H64.59Zm0-10.477H62.309V2.813H64.59Zm5.539,10.641A3.8,3.8,0,0,1,67.176,14a4.252,4.252,0,0,1-1.062-2.988V10.7a4.628,4.628,0,0,1,1.031-3.109,3.506,3.506,0,0,1,2.836-1.2,3.282,3.282,0,0,1,2.613,1.043,4.122,4.122,0,0,1,.91,2.809v1.18H68.465l-.023.047a2.284,2.284,0,0,0,.527,1.406,1.766,1.766,0,0,0,1.4.539,4.692,4.692,0,0,0,1.3-.156,5.307,5.307,0,0,0,1.105-.477l.617,1.406a4.234,4.234,0,0,1-1.375.7A6.1,6.1,0,0,1,70.129,15.164ZM69.98,8.148a1.267,1.267,0,0,0-1.059.473,2.371,2.371,0,0,0-.449,1.254l.016.039H71.27V9.742a1.974,1.974,0,0,0-.3-1.168A1.127,1.127,0,0,0,69.98,8.148Zm7.4,5.1h4.188V15H74.543V13.656l4.023-5.344h-3.9V6.547h6.766v1.3ZM87.988,15a4.8,4.8,0,0,1-.215-.609,4.238,4.238,0,0,1-.129-.656,3.127,3.127,0,0,1-.93,1.023,2.33,2.33,0,0,1-1.375.406,2.855,2.855,0,0,1-2.047-.684,2.449,2.449,0,0,1-.719-1.863,2.229,2.229,0,0,1,.957-1.926,4.78,4.78,0,0,1,2.793-.684h1.281V9.336a1.315,1.315,0,0,0-.32-.945,1.257,1.257,0,0,0-.953-.336,1.239,1.239,0,0,0-.855.27.941.941,0,0,0-.3.738h-2.2l-.016-.047A2.144,2.144,0,0,1,83.9,7.168a4.055,4.055,0,0,1,2.582-.777,3.784,3.784,0,0,1,2.465.766,2.667,2.667,0,0,1,.941,2.2v3.492a6.6,6.6,0,0,0,.09,1.117A5.606,5.606,0,0,0,90.262,15ZM85.9,13.477a1.944,1.944,0,0,0,1.063-.3,1.6,1.6,0,0,0,.641-.687V11.3H86.324a1.519,1.519,0,0,0-1.1.359,1.181,1.181,0,0,0-.371.883.881.881,0,0,0,.277.684A1.1,1.1,0,0,0,85.9,13.477Z" transform="translate(856 4850)" fill="#12263f"/>
    <path id="Trazado_890229" data-name="Trazado 890229" d="M28.813,11.234l.016.047a3.561,3.561,0,0,1-1.109,2.852,4.523,4.523,0,0,1-3.148,1.031,4.361,4.361,0,0,1-3.3-1.316,4.722,4.722,0,0,1-1.258-3.4V8.188a4.809,4.809,0,0,1,1.227-3.4,4.182,4.182,0,0,1,3.219-1.324A4.8,4.8,0,0,1,27.7,4.477a3.5,3.5,0,0,1,1.141,2.859l-.016.047H26.609a2.236,2.236,0,0,0-.527-1.629,2.2,2.2,0,0,0-1.629-.535,1.839,1.839,0,0,0-1.6.824,3.645,3.645,0,0,0-.574,2.129v2.273a3.538,3.538,0,0,0,.605,2.141,1.968,1.968,0,0,0,1.684.828,2,2,0,0,0,1.527-.535,2.328,2.328,0,0,0,.5-1.645Zm1.125-.539a4.536,4.536,0,0,1,1.055-3.1,3.676,3.676,0,0,1,2.922-1.207,3.715,3.715,0,0,1,2.938,1.2,4.512,4.512,0,0,1,1.063,3.1v.164a4.519,4.519,0,0,1-1.059,3.105,3.7,3.7,0,0,1-2.926,1.2A3.709,3.709,0,0,1,31,13.965a4.519,4.519,0,0,1-1.059-3.105Zm2.273.164a3.677,3.677,0,0,0,.406,1.855,1.561,1.561,0,0,0,2.605,0,3.653,3.653,0,0,0,.41-1.852V10.7a3.616,3.616,0,0,0-.414-1.836,1.4,1.4,0,0,0-1.3-.711,1.384,1.384,0,0,0-1.293.715,3.648,3.648,0,0,0-.41,1.832ZM43.766,8.508l-.836-.023a1.519,1.519,0,0,0-.836.211,1.337,1.337,0,0,0-.5.594V15H39.32V6.547h2.117l.1,1.25a2.667,2.667,0,0,1,.77-1.035,1.8,1.8,0,0,1,1.406-.344q.145.027.293.066Zm5.633,0-.836-.023a1.519,1.519,0,0,0-.836.211,1.337,1.337,0,0,0-.5.594V15H44.953V6.547H47.07l.1,1.25a2.667,2.667,0,0,1,.77-1.035,1.8,1.8,0,0,1,1.406-.344q.145.027.293.066Zm4.7,6.656A3.8,3.8,0,0,1,51.148,14a4.252,4.252,0,0,1-1.062-2.988V10.7a4.628,4.628,0,0,1,1.031-3.109,3.506,3.506,0,0,1,2.836-1.2,3.282,3.282,0,0,1,2.613,1.043,4.122,4.122,0,0,1,.91,2.809v1.18H52.438l-.023.047a2.284,2.284,0,0,0,.527,1.406,1.766,1.766,0,0,0,1.4.539,4.692,4.692,0,0,0,1.3-.156,5.307,5.307,0,0,0,1.105-.477l.617,1.406a4.234,4.234,0,0,1-1.375.7A6.1,6.1,0,0,1,54.1,15.164Zm-.148-7.016a1.267,1.267,0,0,0-1.059.473,2.371,2.371,0,0,0-.449,1.254l.016.039h2.781V9.742a1.974,1.974,0,0,0-.3-1.168A1.127,1.127,0,0,0,53.953,8.148Zm8.383,5.266a1.27,1.27,0,0,0,.945-.355,1.291,1.291,0,0,0,.352-.949h2.078l.016.047a2.645,2.645,0,0,1-.953,2.145,3.564,3.564,0,0,1-2.437.863,3.6,3.6,0,0,1-2.9-1.2A4.558,4.558,0,0,1,58.414,10.9v-.234A4.588,4.588,0,0,1,59.434,7.6,3.57,3.57,0,0,1,62.32,6.391a3.486,3.486,0,0,1,2.492.891,2.976,2.976,0,0,1,.914,2.344l-.016.047H63.633a1.687,1.687,0,0,0-.348-1.09,1.168,1.168,0,0,0-.965-.434,1.3,1.3,0,0,0-1.254.707,3.878,3.878,0,0,0-.371,1.809V10.9a3.863,3.863,0,0,0,.371,1.82A1.32,1.32,0,0,0,62.336,13.414Zm8.25,0a1.27,1.27,0,0,0,.945-.355,1.291,1.291,0,0,0,.352-.949h2.078l.016.047a2.645,2.645,0,0,1-.953,2.145,3.564,3.564,0,0,1-2.437.863,3.6,3.6,0,0,1-2.9-1.2A4.558,4.558,0,0,1,66.664,10.9v-.234A4.588,4.588,0,0,1,67.684,7.6,3.57,3.57,0,0,1,70.57,6.391a3.486,3.486,0,0,1,2.492.891,2.976,2.976,0,0,1,.914,2.344l-.016.047H71.883a1.687,1.687,0,0,0-.348-1.09,1.168,1.168,0,0,0-.965-.434,1.3,1.3,0,0,0-1.254.707,3.878,3.878,0,0,0-.371,1.809V10.9a3.863,3.863,0,0,0,.371,1.82A1.32,1.32,0,0,0,70.586,13.414ZM77.7,15H75.422V6.547H77.7Zm0-10.477H75.422V2.813H77.7ZM79.227,10.7a4.536,4.536,0,0,1,1.055-3.1A3.676,3.676,0,0,1,83.2,6.391a3.715,3.715,0,0,1,2.938,1.2A4.512,4.512,0,0,1,87.2,10.7v.164a4.519,4.519,0,0,1-1.059,3.105,4.178,4.178,0,0,1-5.859,0,4.519,4.519,0,0,1-1.059-3.105Zm2.273.164a3.677,3.677,0,0,0,.406,1.855,1.561,1.561,0,0,0,2.605,0,3.653,3.653,0,0,0,.41-1.852V10.7a3.616,3.616,0,0,0-.414-1.836,1.4,1.4,0,0,0-1.3-.711,1.384,1.384,0,0,0-1.293.715A3.648,3.648,0,0,0,81.5,10.7Zm2.164-7.922H86.2l.016.047L84.055,5.016H82.109ZM90.7,6.547l.1,1.211A3.092,3.092,0,0,1,91.836,6.75a2.7,2.7,0,0,1,1.383-.359,2.513,2.513,0,0,1,2,.824,3.908,3.908,0,0,1,.719,2.605V15H93.648V9.828a2.024,2.024,0,0,0-.316-1.285,1.166,1.166,0,0,0-.949-.379,1.992,1.992,0,0,0-.895.191,1.746,1.746,0,0,0-.637.527V15H88.57V6.547Z" transform="translate(1082 4850)" fill="#12263f"/>
    <path id="Trazado_890230" data-name="Trazado 890230" d="M17.395,9.438a4.936,4.936,0,0,1,.762-2.878,2.456,2.456,0,0,1,2.136-1.094,2.649,2.649,0,0,1,1.152.239,2.361,2.361,0,0,1,.858.7V2.336h1.347V13H22.617l-.205-.937a2.4,2.4,0,0,1-.9.807,2.675,2.675,0,0,1-1.237.273,2.538,2.538,0,0,1-2.119-.981,4.077,4.077,0,0,1-.766-2.581Zm1.347.144a3.14,3.14,0,0,0,.458,1.794,1.6,1.6,0,0,0,1.422.673,1.784,1.784,0,0,0,1.012-.273,2.042,2.042,0,0,0,.67-.766V7.559a2.074,2.074,0,0,0-.673-.728,1.779,1.779,0,0,0-.995-.27,1.539,1.539,0,0,0-1.432.8,4.128,4.128,0,0,0-.461,2.078ZM30.205,13q-.068-.335-.106-.591a4.34,4.34,0,0,1-.044-.516,3.14,3.14,0,0,1-.981.892,2.509,2.509,0,0,1-1.3.359,2.418,2.418,0,0,1-1.76-.591,2.175,2.175,0,0,1-.6-1.63,1.91,1.91,0,0,1,.858-1.658,4.007,4.007,0,0,1,2.328-.6h1.463V7.935a1.357,1.357,0,0,0-.4-1.029,1.557,1.557,0,0,0-1.121-.379,1.627,1.627,0,0,0-1.06.328.985.985,0,0,0-.4.786L25.8,7.654l-.014-.041a1.77,1.77,0,0,1,.755-1.477,3.131,3.131,0,0,1,2.075-.67,3.054,3.054,0,0,1,2.023.639A2.264,2.264,0,0,1,31.4,7.948V11.51a6.933,6.933,0,0,0,.041.766,3.937,3.937,0,0,0,.15.725Zm-2.235-.984a2.4,2.4,0,0,0,1.319-.376,1.787,1.787,0,0,0,.766-.861v-1.2H28.544a1.96,1.96,0,0,0-1.3.41,1.227,1.227,0,0,0-.489.964,1.014,1.014,0,0,0,.308.779A1.288,1.288,0,0,0,27.97,12.016Zm7.26-8.2V5.6h1.4v1h-1.4v4.491a1.006,1.006,0,0,0,.215.731.778.778,0,0,0,.571.212,1.251,1.251,0,0,0,.26-.031,1.927,1.927,0,0,0,.239-.065l.185.923a1.19,1.19,0,0,1-.444.2,2.242,2.242,0,0,1-.581.079,1.744,1.744,0,0,1-1.306-.5,2.153,2.153,0,0,1-.485-1.555V6.6H32.707v-1h1.176V3.819Zm2.529,5.414a4.072,4.072,0,0,1,.889-2.7,3.293,3.293,0,0,1,4.843,0,4.059,4.059,0,0,1,.892,2.707v.15a4.052,4.052,0,0,1-.889,2.707,3.308,3.308,0,0,1-4.843,0,4.045,4.045,0,0,1-.892-2.7Zm1.347.15a3.508,3.508,0,0,0,.5,1.941,1.79,1.79,0,0,0,2.936,0,3.49,3.49,0,0,0,.5-1.941v-.15a3.479,3.479,0,0,0-.5-1.935,1.647,1.647,0,0,0-1.473-.772A1.624,1.624,0,0,0,39.6,7.3a3.516,3.516,0,0,0-.5,1.935ZM50.33,11.011a.9.9,0,0,0-.338-.725,3.266,3.266,0,0,0-1.282-.492A5.378,5.378,0,0,1,46.7,9.008,1.588,1.588,0,0,1,46,7.654a1.95,1.95,0,0,1,.769-1.545,3.394,3.394,0,0,1,4.03.041,1.959,1.959,0,0,1,.745,1.593l-.014.041H50.248a1.165,1.165,0,0,0-.42-.868,1.5,1.5,0,0,0-1.063-.39,1.532,1.532,0,0,0-1.063.321,1,1,0,0,0-.352.766.811.811,0,0,0,.3.677,3.367,3.367,0,0,0,1.254.438,5.3,5.3,0,0,1,2.064.813,1.638,1.638,0,0,1,.7,1.374,1.947,1.947,0,0,1-.8,1.606,3.285,3.285,0,0,1-2.082.622,3.251,3.251,0,0,1-2.229-.718,2.048,2.048,0,0,1-.772-1.675l.014-.041H47.1a1.246,1.246,0,0,0,.533,1.049,2.063,2.063,0,0,0,1.169.332,1.841,1.841,0,0,0,1.125-.3A.93.93,0,0,0,50.33,11.011Zm9.44,1.08a1.584,1.584,0,0,0,1.087-.414,1.307,1.307,0,0,0,.465-1.015h1.217l.021.041a2.124,2.124,0,0,1-.82,1.7,3.134,3.134,0,0,1-4.375-.318,4.09,4.09,0,0,1-.848-2.639V9.158a4.072,4.072,0,0,1,.851-2.628,2.9,2.9,0,0,1,2.4-1.063,2.791,2.791,0,0,1,2.027.766,2.428,2.428,0,0,1,.762,1.88l-.014.041H61.322A1.632,1.632,0,0,0,60.881,7a1.451,1.451,0,0,0-1.111-.475,1.555,1.555,0,0,0-1.446.769,3.6,3.6,0,0,0-.455,1.863v.287a3.668,3.668,0,0,0,.448,1.88A1.554,1.554,0,0,0,59.771,12.091Zm7.889-5.3-.69-.041a1.542,1.542,0,0,0-.9.253,1.623,1.623,0,0,0-.564.711V13H64.159V5.6h1.2l.13,1.08a2.567,2.567,0,0,1,.776-.9,1.814,1.814,0,0,1,1.063-.321,1.664,1.664,0,0,1,.287.024,1.9,1.9,0,0,1,.226.051Zm6.1,5.113a2.505,2.505,0,0,1-.9.916,2.45,2.45,0,0,1-1.265.321,2.376,2.376,0,0,1-1.887-.772,3.587,3.587,0,0,1-.677-2.406V5.6H70.38V9.979a2.754,2.754,0,0,0,.349,1.627,1.3,1.3,0,0,0,1.087.444A2.215,2.215,0,0,0,73,11.759a1.818,1.818,0,0,0,.708-.824V5.6h1.347V13h-1.21ZM76.71,9.438a4.936,4.936,0,0,1,.762-2.878,2.456,2.456,0,0,1,2.136-1.094,2.649,2.649,0,0,1,1.152.239,2.361,2.361,0,0,1,.858.7V2.336h1.347V13H81.933l-.205-.937a2.4,2.4,0,0,1-.9.807,2.675,2.675,0,0,1-1.237.273,2.538,2.538,0,0,1-2.119-.981,4.077,4.077,0,0,1-.766-2.581Zm1.347.144a3.14,3.14,0,0,0,.458,1.794,1.6,1.6,0,0,0,1.422.673,1.784,1.784,0,0,0,1.012-.273,2.042,2.042,0,0,0,.67-.766V7.559a2.074,2.074,0,0,0-.673-.728,1.779,1.779,0,0,0-.995-.27,1.539,1.539,0,0,0-1.432.8,4.128,4.128,0,0,0-.461,2.078Zm6.6-.349a4.072,4.072,0,0,1,.889-2.7,3.293,3.293,0,0,1,4.843,0,4.059,4.059,0,0,1,.892,2.707v.15a4.052,4.052,0,0,1-.889,2.707,3.308,3.308,0,0,1-4.843,0,4.045,4.045,0,0,1-.892-2.7Zm1.347.15a3.508,3.508,0,0,0,.5,1.941,1.79,1.79,0,0,0,2.936,0,3.49,3.49,0,0,0,.5-1.941v-.15a3.479,3.479,0,0,0-.5-1.935,1.647,1.647,0,0,0-1.473-.772A1.624,1.624,0,0,0,86.5,7.3a3.516,3.516,0,0,0-.5,1.935Zm11.225,1.627a.9.9,0,0,0-.338-.725,3.266,3.266,0,0,0-1.282-.492A5.378,5.378,0,0,1,93.6,9.008a1.588,1.588,0,0,1-.7-1.354,1.95,1.95,0,0,1,.769-1.545,3.394,3.394,0,0,1,4.03.041,1.959,1.959,0,0,1,.745,1.593l-.014.041H97.149a1.165,1.165,0,0,0-.42-.868,1.5,1.5,0,0,0-1.063-.39,1.532,1.532,0,0,0-1.063.321,1,1,0,0,0-.352.766.811.811,0,0,0,.3.677,3.367,3.367,0,0,0,1.254.438,5.3,5.3,0,0,1,2.064.813,1.638,1.638,0,0,1,.7,1.374,1.947,1.947,0,0,1-.8,1.606,3.285,3.285,0,0,1-2.082.622,3.251,3.251,0,0,1-2.229-.718,2.048,2.048,0,0,1-.772-1.675l.014-.041H94a1.246,1.246,0,0,0,.533,1.049,2.063,2.063,0,0,0,1.169.332,1.841,1.841,0,0,0,1.125-.3A.93.93,0,0,0,97.231,11.011Z" transform="translate(404 4874)" fill="#12263f"/>
    <path id="Trazado_890231" data-name="Trazado 890231" d="M3.842,9.438A4.936,4.936,0,0,1,4.6,6.561,2.456,2.456,0,0,1,6.741,5.467a2.649,2.649,0,0,1,1.152.239,2.361,2.361,0,0,1,.858.7V2.336H10.1V13H9.065l-.205-.937a2.4,2.4,0,0,1-.9.807,2.675,2.675,0,0,1-1.237.273,2.538,2.538,0,0,1-2.119-.981,4.077,4.077,0,0,1-.766-2.581Zm1.347.144a3.14,3.14,0,0,0,.458,1.794,1.6,1.6,0,0,0,1.422.673,1.784,1.784,0,0,0,1.012-.273,2.042,2.042,0,0,0,.67-.766V7.559a2.074,2.074,0,0,0-.673-.728,1.779,1.779,0,0,0-.995-.27,1.539,1.539,0,0,0-1.432.8,4.128,4.128,0,0,0-.461,2.078ZM15.607,6.793l-.69-.041a1.542,1.542,0,0,0-.9.253,1.623,1.623,0,0,0-.564.711V13H12.107V5.6h1.2l.13,1.08a2.568,2.568,0,0,1,.776-.9,1.814,1.814,0,0,1,1.063-.321,1.664,1.664,0,0,1,.287.024,1.9,1.9,0,0,1,.226.051Zm.95,2.44a4.072,4.072,0,0,1,.889-2.7,2.98,2.98,0,0,1,2.413-1.063,3.009,3.009,0,0,1,2.43,1.06,4.059,4.059,0,0,1,.892,2.707v.15a4.052,4.052,0,0,1-.889,2.707,3,3,0,0,1-2.42,1.053,3.006,3.006,0,0,1-2.423-1.056,4.045,4.045,0,0,1-.892-2.7Zm1.347.15a3.508,3.508,0,0,0,.5,1.941,1.79,1.79,0,0,0,2.936,0,3.49,3.49,0,0,0,.5-1.941v-.15a3.479,3.479,0,0,0-.5-1.935,1.647,1.647,0,0,0-1.473-.772A1.624,1.624,0,0,0,18.4,7.3a3.516,3.516,0,0,0-.5,1.935Zm13.228.2a4.077,4.077,0,0,1-.766,2.581,2.531,2.531,0,0,1-2.112.981,2.935,2.935,0,0,1-1.2-.229,2.294,2.294,0,0,1-.878-.687v3.616H24.829V5.6h1.032l.212.957a2.443,2.443,0,0,1,.9-.813,2.694,2.694,0,0,1,1.258-.28,2.458,2.458,0,0,1,2.136,1.09,4.933,4.933,0,0,1,.762,2.881Zm-1.347-.144a3.908,3.908,0,0,0-.5-2.068,1.606,1.606,0,0,0-1.459-.81,1.8,1.8,0,0,0-.991.263,1.968,1.968,0,0,0-.663.721V11.12a1.912,1.912,0,0,0,.663.714,1.86,1.86,0,0,0,1,.256,1.657,1.657,0,0,0,1.449-.7,3.077,3.077,0,0,0,.492-1.808Zm8.36,4.614h-6.31V13h6.31Zm.7-4.614A4.936,4.936,0,0,1,39.6,6.561a2.456,2.456,0,0,1,2.136-1.094,2.649,2.649,0,0,1,1.152.239,2.361,2.361,0,0,1,.858.7V2.336H45.1V13H44.065l-.205-.937a2.4,2.4,0,0,1-.9.807,2.675,2.675,0,0,1-1.237.273,2.538,2.538,0,0,1-2.119-.981,4.077,4.077,0,0,1-.766-2.581Zm1.347.144a3.14,3.14,0,0,0,.458,1.794,1.6,1.6,0,0,0,1.422.673,1.784,1.784,0,0,0,1.012-.273,2.042,2.042,0,0,0,.67-.766V7.559a2.074,2.074,0,0,0-.673-.728,1.779,1.779,0,0,0-.995-.27,1.539,1.539,0,0,0-1.432.8,4.128,4.128,0,0,0-.461,2.078ZM51.8,11.906a2.505,2.505,0,0,1-.9.916,2.45,2.45,0,0,1-1.265.321,2.376,2.376,0,0,1-1.887-.772,3.587,3.587,0,0,1-.677-2.406V5.6h1.347V9.979a2.754,2.754,0,0,0,.349,1.627,1.3,1.3,0,0,0,1.087.444,2.215,2.215,0,0,0,1.186-.291,1.818,1.818,0,0,0,.708-.824V5.6H53.1V13h-1.21Zm9.563-2.324a4.077,4.077,0,0,1-.766,2.581,2.531,2.531,0,0,1-2.112.981,2.935,2.935,0,0,1-1.2-.229,2.294,2.294,0,0,1-.878-.687v3.616H55.064V5.6H56.1l.212.957a2.443,2.443,0,0,1,.9-.813,2.694,2.694,0,0,1,1.258-.28A2.458,2.458,0,0,1,60.6,6.557a4.933,4.933,0,0,1,.762,2.881ZM60.02,9.438a3.908,3.908,0,0,0-.5-2.068,1.606,1.606,0,0,0-1.459-.81,1.8,1.8,0,0,0-.991.263,1.968,1.968,0,0,0-.663.721V11.12a1.912,1.912,0,0,0,.663.714,1.86,1.86,0,0,0,1,.256,1.657,1.657,0,0,0,1.449-.7,3.077,3.077,0,0,0,.492-1.808ZM64.477,13H63.13V2.336h1.347ZM68,13H66.658V5.6H68Zm0-9.29H66.658V2.336H68Zm5.011,8.381a1.584,1.584,0,0,0,1.087-.414,1.307,1.307,0,0,0,.465-1.015h1.217l.021.041a2.124,2.124,0,0,1-.82,1.7,3.134,3.134,0,0,1-4.375-.318,4.09,4.09,0,0,1-.848-2.639V9.158a4.072,4.072,0,0,1,.851-2.628,2.9,2.9,0,0,1,2.4-1.063,2.791,2.791,0,0,1,2.027.766,2.428,2.428,0,0,1,.762,1.88l-.014.041H74.567A1.632,1.632,0,0,0,74.126,7a1.451,1.451,0,0,0-1.111-.475,1.555,1.555,0,0,0-1.446.769,3.6,3.6,0,0,0-.455,1.863v.287a3.668,3.668,0,0,0,.448,1.88A1.554,1.554,0,0,0,73.015,12.091ZM81.95,13q-.068-.335-.106-.591a4.34,4.34,0,0,1-.044-.516,3.14,3.14,0,0,1-.981.892,2.509,2.509,0,0,1-1.3.359,2.418,2.418,0,0,1-1.76-.591,2.175,2.175,0,0,1-.6-1.63,1.91,1.91,0,0,1,.858-1.658,4.007,4.007,0,0,1,2.328-.6H81.8V7.935a1.357,1.357,0,0,0-.4-1.029,1.557,1.557,0,0,0-1.121-.379,1.627,1.627,0,0,0-1.06.328.985.985,0,0,0-.4.786l-1.278.014-.014-.041a1.77,1.77,0,0,1,.755-1.477,3.131,3.131,0,0,1,2.075-.67,3.054,3.054,0,0,1,2.023.639,2.264,2.264,0,0,1,.766,1.842V11.51a6.933,6.933,0,0,0,.041.766,3.937,3.937,0,0,0,.15.725Zm-2.235-.984a2.4,2.4,0,0,0,1.319-.376,1.787,1.787,0,0,0,.766-.861v-1.2H80.289a1.96,1.96,0,0,0-1.3.41,1.227,1.227,0,0,0-.489.964,1.014,1.014,0,0,0,.308.779A1.288,1.288,0,0,0,79.714,12.016Zm7.26-8.2V5.6h1.4v1h-1.4v4.491a1.006,1.006,0,0,0,.215.731.779.779,0,0,0,.571.212,1.251,1.251,0,0,0,.26-.031,1.927,1.927,0,0,0,.239-.065l.185.923a1.19,1.19,0,0,1-.444.2,2.242,2.242,0,0,1-.581.079,1.744,1.744,0,0,1-1.306-.5,2.152,2.152,0,0,1-.485-1.555V6.6H84.452v-1h1.176V3.819Zm5.906,9.324A3.129,3.129,0,0,1,90.4,12.125a3.92,3.92,0,0,1-.892-2.68v-.3a3.838,3.838,0,0,1,.919-2.635,2.883,2.883,0,0,1,2.246-1.042,2.684,2.684,0,0,1,2.225.923,3.8,3.8,0,0,1,.742,2.454v.711H90.9l-.021.034a3.057,3.057,0,0,0,.492,1.808,1.72,1.72,0,0,0,1.5.694,3.388,3.388,0,0,0,1.2-.195,2.678,2.678,0,0,0,.885-.537l.526.875a3.237,3.237,0,0,1-1.046.646A4.167,4.167,0,0,1,92.88,13.144Zm-.212-6.617A1.464,1.464,0,0,0,91.5,7.07a2.571,2.571,0,0,0-.564,1.391l.014.034h3.336V8.386a2.154,2.154,0,0,0-.4-1.333A1.433,1.433,0,0,0,92.668,6.526Zm8.777,4.484a.9.9,0,0,0-.338-.725,3.266,3.266,0,0,0-1.282-.492,5.378,5.378,0,0,1-2.006-.786,1.588,1.588,0,0,1-.7-1.354,1.95,1.95,0,0,1,.769-1.545,3.394,3.394,0,0,1,4.03.041,1.959,1.959,0,0,1,.745,1.593l-.014.041h-1.285a1.165,1.165,0,0,0-.42-.868,1.5,1.5,0,0,0-1.063-.39,1.532,1.532,0,0,0-1.063.321,1,1,0,0,0-.352.766.811.811,0,0,0,.3.677,3.367,3.367,0,0,0,1.254.438,5.3,5.3,0,0,1,2.064.813,1.638,1.638,0,0,1,.7,1.374,1.947,1.947,0,0,1-.8,1.606,3.285,3.285,0,0,1-2.082.622,3.251,3.251,0,0,1-2.229-.718,2.048,2.048,0,0,1-.772-1.675l.014-.041h1.285a1.246,1.246,0,0,0,.533,1.049,2.063,2.063,0,0,0,1.169.332,1.841,1.841,0,0,0,1.125-.3A.93.93,0,0,0,101.446,11.011Zm2.946-2.051a9.15,9.15,0,0,1,1.087-4.6,6.292,6.292,0,0,1,2.283-2.543l.041.007.26.793a5.832,5.832,0,0,0-1.63,2.345,10.1,10.1,0,0,0-.694,3.985v.089a10.142,10.142,0,0,0,.69,3.985,6.344,6.344,0,0,0,1.634,2.406l-.26.738h-.041a6.294,6.294,0,0,1-2.283-2.54,9.146,9.146,0,0,1-1.087-4.6Zm7.451.062a9.123,9.123,0,0,1-1.09,4.6,6.338,6.338,0,0,1-2.28,2.54h-.041l-.26-.738a5.821,5.821,0,0,0,1.624-2.362,10.28,10.28,0,0,0,.7-4.03V8.946a9.935,9.935,0,0,0-.721-3.989,6.591,6.591,0,0,0-1.6-2.4l.26-.738h.041a6.336,6.336,0,0,1,2.28,2.543,9.127,9.127,0,0,1,1.09,4.6Z" transform="translate(629 4874)" fill="#12263f"/>
    <path id="Trazado_890232" data-name="Trazado 890232" d="M39.434,13V6.6H38.271v-1h1.162V4.8a2.516,2.516,0,0,1,.728-1.928,2.835,2.835,0,0,1,2.02-.684,3.877,3.877,0,0,1,.9.106q.444.106,1.046.311L43.9,3.7a6.135,6.135,0,0,0-.772-.246,3.454,3.454,0,0,0-.841-.1,1.574,1.574,0,0,0-1.152.355A1.5,1.5,0,0,0,40.78,4.8v.8h1.47v1H40.78V13Zm5.353,0H43.433V5.6h1.354Zm3.521,0H46.96V2.336h1.347Zm3.527,0H50.487V2.336h1.347Zm3.274-7.4.1,1.1a2.686,2.686,0,0,1,.926-.913A2.471,2.471,0,0,1,57.4,5.467a2.414,2.414,0,0,1,1.853.7,3.076,3.076,0,0,1,.656,2.164V13H58.561V8.358a2,2,0,0,0-.386-1.388A1.547,1.547,0,0,0,57,6.561a2.088,2.088,0,0,0-1.056.25,1.813,1.813,0,0,0-.687.7V13H53.905V5.6Zm11.3,7.4q-.068-.335-.106-.591a4.34,4.34,0,0,1-.044-.516,3.14,3.14,0,0,1-.981.892,2.509,2.509,0,0,1-1.3.359,2.418,2.418,0,0,1-1.76-.591,2.175,2.175,0,0,1-.6-1.63,1.91,1.91,0,0,1,.858-1.658,4.007,4.007,0,0,1,2.328-.6h1.463V7.935a1.357,1.357,0,0,0-.4-1.029,1.557,1.557,0,0,0-1.121-.379,1.627,1.627,0,0,0-1.06.328.985.985,0,0,0-.4.786L62,7.654l-.014-.041a1.77,1.77,0,0,1,.755-1.477,3.131,3.131,0,0,1,2.075-.67,3.054,3.054,0,0,1,2.023.639A2.264,2.264,0,0,1,67.6,7.948V11.51a6.933,6.933,0,0,0,.041.766A3.937,3.937,0,0,0,67.8,13Zm-2.235-.984a2.4,2.4,0,0,0,1.319-.376,1.787,1.787,0,0,0,.766-.861v-1.2H64.747a1.96,1.96,0,0,0-1.3.41,1.227,1.227,0,0,0-.489.964,1.014,1.014,0,0,0,.308.779A1.288,1.288,0,0,0,64.173,12.016ZM69.484,8.96a9.15,9.15,0,0,1,1.087-4.6,6.292,6.292,0,0,1,2.283-2.543l.041.007.26.793a5.832,5.832,0,0,0-1.63,2.345,10.1,10.1,0,0,0-.694,3.985v.089a10.142,10.142,0,0,0,.69,3.985,6.344,6.344,0,0,0,1.634,2.406l-.26.738h-.041a6.294,6.294,0,0,1-2.283-2.54,9.146,9.146,0,0,1-1.087-4.6Zm7.451.062a9.123,9.123,0,0,1-1.09,4.6,6.338,6.338,0,0,1-2.28,2.54h-.041l-.26-.738a5.821,5.821,0,0,0,1.624-2.362,10.28,10.28,0,0,0,.7-4.03V8.946a9.935,9.935,0,0,0-.721-3.989,6.591,6.591,0,0,0-1.6-2.4l.26-.738h.041a6.336,6.336,0,0,1,2.28,2.543,9.127,9.127,0,0,1,1.09,4.6Z" transform="translate(856 4874)" fill="#12263f"/>
    <path id="Trazado_890233" data-name="Trazado 890233" d="M25.034,3.819V5.6h1.4v1h-1.4v4.491a1.006,1.006,0,0,0,.215.731.779.779,0,0,0,.571.212,1.251,1.251,0,0,0,.26-.031,1.927,1.927,0,0,0,.239-.065l.185.923a1.19,1.19,0,0,1-.444.2,2.242,2.242,0,0,1-.581.079,1.744,1.744,0,0,1-1.306-.5,2.152,2.152,0,0,1-.485-1.555V6.6H22.511v-1h1.176V3.819Zm6.344,2.974-.69-.041a1.542,1.542,0,0,0-.9.253,1.623,1.623,0,0,0-.564.711V13H27.877V5.6h1.2l.13,1.08a2.568,2.568,0,0,1,.776-.9,1.814,1.814,0,0,1,1.063-.321,1.664,1.664,0,0,1,.287.024,1.9,1.9,0,0,1,.226.051ZM37.325,13q-.068-.335-.106-.591a4.34,4.34,0,0,1-.044-.516,3.14,3.14,0,0,1-.981.892,2.509,2.509,0,0,1-1.3.359,2.418,2.418,0,0,1-1.76-.591,2.175,2.175,0,0,1-.6-1.63,1.91,1.91,0,0,1,.858-1.658,4.007,4.007,0,0,1,2.328-.6h1.463V7.935a1.357,1.357,0,0,0-.4-1.029,1.557,1.557,0,0,0-1.121-.379,1.627,1.627,0,0,0-1.06.328.985.985,0,0,0-.4.786l-1.278.014L32.9,7.613a1.77,1.77,0,0,1,.755-1.477,3.131,3.131,0,0,1,2.075-.67,3.054,3.054,0,0,1,2.023.639,2.264,2.264,0,0,1,.766,1.842V11.51a6.933,6.933,0,0,0,.041.766,3.937,3.937,0,0,0,.15.725Zm-2.235-.984a2.4,2.4,0,0,0,1.319-.376,1.787,1.787,0,0,0,.766-.861v-1.2H35.664a1.96,1.96,0,0,0-1.3.41,1.227,1.227,0,0,0-.489.964,1.014,1.014,0,0,0,.308.779A1.288,1.288,0,0,0,35.089,12.016ZM41.679,5.6l.1,1.1a2.686,2.686,0,0,1,.926-.913,2.471,2.471,0,0,1,1.268-.325,2.414,2.414,0,0,1,1.853.7,3.076,3.076,0,0,1,.656,2.164V13H45.131V8.358a2,2,0,0,0-.386-1.388,1.547,1.547,0,0,0-1.179-.41,2.088,2.088,0,0,0-1.056.25,1.813,1.813,0,0,0-.687.7V13H40.476V5.6Zm11.054,5.407a.9.9,0,0,0-.338-.725,3.266,3.266,0,0,0-1.282-.492,5.378,5.378,0,0,1-2.006-.786,1.588,1.588,0,0,1-.7-1.354,1.95,1.95,0,0,1,.769-1.545,3.394,3.394,0,0,1,4.03.041,1.959,1.959,0,0,1,.745,1.593l-.014.041H52.651a1.165,1.165,0,0,0-.42-.868,1.5,1.5,0,0,0-1.063-.39,1.532,1.532,0,0,0-1.063.321,1,1,0,0,0-.352.766.811.811,0,0,0,.3.677,3.367,3.367,0,0,0,1.254.438,5.3,5.3,0,0,1,2.064.813,1.638,1.638,0,0,1,.7,1.374,1.947,1.947,0,0,1-.8,1.606,3.285,3.285,0,0,1-2.082.622,3.251,3.251,0,0,1-2.229-.718,2.048,2.048,0,0,1-.772-1.675l.014-.041H49.5a1.246,1.246,0,0,0,.533,1.049,2.063,2.063,0,0,0,1.169.332,1.841,1.841,0,0,0,1.125-.3A.93.93,0,0,0,52.733,11.011ZM56.315,13V6.6H55.16v-1h1.155V4.667a2.538,2.538,0,0,1,.619-1.829,2.277,2.277,0,0,1,1.726-.646,2.971,2.971,0,0,1,.468.038q.236.038.523.106l-.164,1.025q-.123-.027-.3-.048a3.131,3.131,0,0,0-.366-.021,1.063,1.063,0,0,0-.875.352,1.583,1.583,0,0,0-.287,1.022V5.6H59v1h-1.34V13Zm3.732-3.767a4.072,4.072,0,0,1,.889-2.7,3.293,3.293,0,0,1,4.843,0,4.059,4.059,0,0,1,.892,2.707v.15a4.052,4.052,0,0,1-.889,2.707,3.308,3.308,0,0,1-4.843,0,4.045,4.045,0,0,1-.892-2.7Zm1.347.15a3.508,3.508,0,0,0,.5,1.941,1.79,1.79,0,0,0,2.936,0,3.49,3.49,0,0,0,.5-1.941v-.15a3.479,3.479,0,0,0-.5-1.935,1.647,1.647,0,0,0-1.473-.772A1.624,1.624,0,0,0,61.89,7.3a3.516,3.516,0,0,0-.5,1.935ZM71.819,6.793l-.69-.041a1.542,1.542,0,0,0-.9.253,1.623,1.623,0,0,0-.564.711V13H68.319V5.6h1.2l.13,1.08a2.567,2.567,0,0,1,.776-.9,1.814,1.814,0,0,1,1.063-.321,1.664,1.664,0,0,1,.287.024A1.9,1.9,0,0,1,72,5.542Zm2.6-1.189.1.971a2.512,2.512,0,0,1,.919-.817,2.763,2.763,0,0,1,1.3-.291A2.288,2.288,0,0,1,78,5.809a2.068,2.068,0,0,1,.8,1.025,2.767,2.767,0,0,1,.926-1,2.423,2.423,0,0,1,1.336-.366,2.214,2.214,0,0,1,1.784.776A3.545,3.545,0,0,1,83.5,8.577V13H82.155V8.563a2.459,2.459,0,0,0-.376-1.548,1.371,1.371,0,0,0-1.121-.455,1.427,1.427,0,0,0-1.118.479,2.083,2.083,0,0,0-.5,1.21V13H77.684V8.563A2.425,2.425,0,0,0,77.3,7.042a1.34,1.34,0,0,0-1.111-.482,1.85,1.85,0,0,0-1.012.253,1.634,1.634,0,0,0-.608.711V13H73.22V5.6ZM85.381,8.96a9.15,9.15,0,0,1,1.087-4.6,6.292,6.292,0,0,1,2.283-2.543l.041.007.26.793a5.832,5.832,0,0,0-1.63,2.345,10.1,10.1,0,0,0-.694,3.985v.089a10.142,10.142,0,0,0,.69,3.985,6.344,6.344,0,0,0,1.634,2.406l-.26.738h-.041a6.294,6.294,0,0,1-2.283-2.54,9.146,9.146,0,0,1-1.087-4.6Zm7.451.062a9.123,9.123,0,0,1-1.09,4.6,6.338,6.338,0,0,1-2.28,2.54h-.041l-.26-.738a5.821,5.821,0,0,0,1.624-2.362,10.28,10.28,0,0,0,.7-4.03V8.946a9.935,9.935,0,0,0-.721-3.989,6.591,6.591,0,0,0-1.6-2.4l.26-.738h.041a6.336,6.336,0,0,1,2.28,2.543,9.127,9.127,0,0,1,1.09,4.6Z" transform="translate(1082 4874)" fill="#12263f"/>
  </g>
</svg>
