<svg xmlns="http://www.w3.org/2000/svg" width="820" height="357" viewBox="0 0 820 357">
  <g id="Grupo_1106331" data-name="Grupo 1106331" transform="translate(-390 -2983)">
    <path id="Trazado_890234" data-name="Trazado 890234" d="M0,0H820V357H0Z" transform="translate(390 2983)" fill="#fff"/>
    <path id="Trazado_890235" data-name="Trazado 890235" d="M35.213,19V4.781h4.961a5.867,5.867,0,0,1,4.3,1.665,5.74,5.74,0,0,1,1.689,4.272v2.354a5.719,5.719,0,0,1-1.689,4.272A5.885,5.885,0,0,1,40.174,19ZM38.064,6.979v9.834h2.109a2.784,2.784,0,0,0,2.266-1.05,4.109,4.109,0,0,0,.859-2.69V10.7a4.074,4.074,0,0,0-.859-2.676,2.789,2.789,0,0,0-2.266-1.045ZM51.229,19H48.377V8.434h2.852Zm0-13.1H48.377V3.766h2.852ZM59.285,16.07a.984.984,0,0,0-.454-.806,4.612,4.612,0,0,0-1.685-.591,6.719,6.719,0,0,1-2.817-1.123,2.453,2.453,0,0,1-.962-2.041A2.911,2.911,0,0,1,54.52,9.2a4.646,4.646,0,0,1,3.066-.957,5.014,5.014,0,0,1,3.208.957,2.8,2.8,0,0,1,1.157,2.383l-.02.059H59.178a1.383,1.383,0,0,0-.41-1.035,1.918,1.918,0,0,0-2.266-.059,1.063,1.063,0,0,0-.4.84.948.948,0,0,0,.415.8,4.62,4.62,0,0,0,1.685.552,6.855,6.855,0,0,1,2.9,1.147,2.517,2.517,0,0,1,.952,2.085A2.789,2.789,0,0,1,60.828,18.3a5.269,5.269,0,0,1-3.223.908,4.9,4.9,0,0,1-3.335-1.069A2.99,2.99,0,0,1,53.1,15.7l.02-.059H55.73a1.482,1.482,0,0,0,.557,1.23,2.3,2.3,0,0,0,1.377.381,1.958,1.958,0,0,0,1.206-.317A1.03,1.03,0,0,0,59.285,16.07ZM67.3,5.846V8.434H69.09v2H67.3v5.381a1.228,1.228,0,0,0,.259.879.909.909,0,0,0,.679.264,2.722,2.722,0,0,0,.391-.024,3.29,3.29,0,0,0,.381-.083l.234,2.061a5.773,5.773,0,0,1-.835.22,4.978,4.978,0,0,1-.884.073,3.039,3.039,0,0,1-2.271-.811,3.554,3.554,0,0,1-.8-2.568V10.436H62.918v-2h1.543V5.846Zm9.1,5.039-1.045-.029a1.9,1.9,0,0,0-1.045.264,1.671,1.671,0,0,0-.625.742V19H70.848V8.434h2.646L73.621,10A3.333,3.333,0,0,1,74.583,8.7a2.247,2.247,0,0,1,1.758-.43q.181.034.366.083ZM80.887,19H78.035V8.434h2.852Zm0-13.1H78.035V3.766h2.852ZM92.762,14.01a6.181,6.181,0,0,1-1.055,3.779,3.567,3.567,0,0,1-3.047,1.416,3.22,3.22,0,0,1-1.616-.391,3.34,3.34,0,0,1-1.167-1.143L85.643,19H83.23V3.766h2.842V9.557a3.228,3.228,0,0,1,1.1-.977,3.071,3.071,0,0,1,1.47-.342,3.5,3.5,0,0,1,3.066,1.519A6.971,6.971,0,0,1,92.762,13.8ZM89.92,13.8a5.5,5.5,0,0,0-.454-2.446,1.593,1.593,0,0,0-1.548-.9,2.128,2.128,0,0,0-1.123.278,1.929,1.929,0,0,0-.723.8V16a1.812,1.812,0,0,0,.728.732,2.342,2.342,0,0,0,1.138.254,1.621,1.621,0,0,0,1.543-.776,4.522,4.522,0,0,0,.439-2.2Zm11.074,3.633a3.587,3.587,0,0,1-1.24,1.309,3.288,3.288,0,0,1-1.748.459,3.213,3.213,0,0,1-2.612-1.133,5.434,5.434,0,0,1-.942-3.516V8.434h2.842v6.143a3.411,3.411,0,0,0,.376,1.9,1.351,1.351,0,0,0,1.167.513,2.841,2.841,0,0,0,1.172-.22,1.975,1.975,0,0,0,.8-.649V8.434h2.852V19H101.3Zm9.229-.42a1.587,1.587,0,0,0,1.182-.444,1.614,1.614,0,0,0,.439-1.187h2.6l.02.059a3.307,3.307,0,0,1-1.191,2.681,4.455,4.455,0,0,1-3.047,1.079,4.5,4.5,0,0,1-3.623-1.5,5.7,5.7,0,0,1-1.279-3.833V13.58a5.735,5.735,0,0,1,1.274-3.833A4.463,4.463,0,0,1,110.2,8.238a4.358,4.358,0,0,1,3.115,1.113,3.72,3.72,0,0,1,1.143,2.93l-.02.059h-2.6a2.109,2.109,0,0,0-.435-1.362,1.46,1.46,0,0,0-1.206-.542,1.627,1.627,0,0,0-1.567.884,4.847,4.847,0,0,0-.464,2.261v.293a4.829,4.829,0,0,0,.464,2.275A1.649,1.649,0,0,0,110.223,17.018Zm8.9,1.982h-2.852V8.434h2.852Zm0-13.1h-2.852V3.766h2.852Zm1.9,7.715a5.67,5.67,0,0,1,1.318-3.872,4.6,4.6,0,0,1,3.652-1.509,4.644,4.644,0,0,1,3.672,1.5,5.64,5.64,0,0,1,1.328,3.877v.205a5.649,5.649,0,0,1-1.323,3.882,5.223,5.223,0,0,1-7.324,0,5.649,5.649,0,0,1-1.323-3.882Zm2.842.205a4.6,4.6,0,0,0,.508,2.319,1.951,1.951,0,0,0,3.257,0,4.566,4.566,0,0,0,.513-2.314v-.205a4.52,4.52,0,0,0-.518-2.295,1.751,1.751,0,0,0-1.631-.889,1.73,1.73,0,0,0-1.616.894,4.561,4.561,0,0,0-.513,2.29Zm2.705-9.9h3.174l.02.059L127.059,6.52h-2.432Zm8.789,4.512.127,1.514a3.865,3.865,0,0,1,1.3-1.26,3.372,3.372,0,0,1,1.729-.449,3.142,3.142,0,0,1,2.5,1.03,4.884,4.884,0,0,1,.9,3.257V19h-2.861V12.535a2.529,2.529,0,0,0-.4-1.606,1.458,1.458,0,0,0-1.187-.474,2.49,2.49,0,0,0-1.118.239,2.183,2.183,0,0,0-.8.659V19H132.7V8.434ZM153.6,19.205a4.754,4.754,0,0,1-3.691-1.45,5.315,5.315,0,0,1-1.328-3.735v-.391a5.785,5.785,0,0,1,1.289-3.887,4.382,4.382,0,0,1,3.545-1.5,4.1,4.1,0,0,1,3.267,1.3,5.152,5.152,0,0,1,1.138,3.511v1.475h-6.3l-.029.059a2.855,2.855,0,0,0,.659,1.758,2.207,2.207,0,0,0,1.753.674,5.865,5.865,0,0,0,1.626-.2,6.634,6.634,0,0,0,1.382-.6l.771,1.758a5.293,5.293,0,0,1-1.719.869A7.622,7.622,0,0,1,153.6,19.205Zm-.186-8.77a1.584,1.584,0,0,0-1.323.591,2.964,2.964,0,0,0-.562,1.567l.02.049h3.477v-.215a2.468,2.468,0,0,0-.381-1.46A1.409,1.409,0,0,0,153.416,10.436Zm8.672-2,.127,1.514a3.865,3.865,0,0,1,1.3-1.26,3.372,3.372,0,0,1,1.729-.449,3.142,3.142,0,0,1,2.5,1.03,4.884,4.884,0,0,1,.9,3.257V19h-2.861V12.535a2.529,2.529,0,0,0-.4-1.606,1.458,1.458,0,0,0-1.187-.474,2.49,2.49,0,0,0-1.118.239,2.183,2.183,0,0,0-.8.659V19h-2.852V8.434ZM175.311,13.8a7.812,7.812,0,0,1,1.675-4.077,4.152,4.152,0,0,1,3.276-1.489,2.534,2.534,0,0,1,1.353.356,2.958,2.958,0,0,1,.981,1.021l.879-5.85h2.861L184.051,19h-2.432l-.049-1.3a4.369,4.369,0,0,1-1.348,1.118,3.462,3.462,0,0,1-1.621.386,3.039,3.039,0,0,1-2.769-1.445,5.389,5.389,0,0,1-.552-3.75Zm2.813.205a3.983,3.983,0,0,0,.127,2.207,1.4,1.4,0,0,0,1.416.771,2.386,2.386,0,0,0,1.108-.259,2.484,2.484,0,0,0,.864-.747l.674-4.473a1.736,1.736,0,0,0-.63-.776,1.791,1.791,0,0,0-1.021-.278,1.937,1.937,0,0,0-1.646.942,5.635,5.635,0,0,0-.864,2.407ZM192.488,19a4.63,4.63,0,0,1-.156-.767,5.769,5.769,0,0,1-.039-.825A4.854,4.854,0,0,1,190.94,18.7a3.261,3.261,0,0,1-1.792.508,3.119,3.119,0,0,1-2.4-.864,2.642,2.642,0,0,1-.576-2.319,3.3,3.3,0,0,1,1.543-2.437,6.792,6.792,0,0,1,3.633-.825h1.6l.127-.84a1.478,1.478,0,0,0-.22-1.2,1.405,1.405,0,0,0-1.138-.405,1.782,1.782,0,0,0-1.108.337,1.329,1.329,0,0,0-.522.923h-2.744l-.01-.059a3.216,3.216,0,0,1,1.509-2.334,5.767,5.767,0,0,1,3.374-.947,4.152,4.152,0,0,1,2.9.967,2.883,2.883,0,0,1,.8,2.734l-.654,4.365a7.824,7.824,0,0,0-.1,1.406A6.857,6.857,0,0,0,195.33,19Zm-2.324-1.9a2.706,2.706,0,0,0,1.367-.376,2.545,2.545,0,0,0,.947-.864l.225-1.484h-1.6a2.148,2.148,0,0,0-1.421.459,1.743,1.743,0,0,0-.649,1.094.952.952,0,0,0,.215.864A1.236,1.236,0,0,0,190.164,17.1Zm12.227-11.25L202,8.434h1.787l-.293,2h-1.8l-.8,5.381a1.13,1.13,0,0,0,.117.894.805.805,0,0,0,.645.249,2.964,2.964,0,0,0,.4-.024,3.085,3.085,0,0,0,.4-.083l-.078,2.061a6.358,6.358,0,0,1-.864.22,5.145,5.145,0,0,1-.894.073,2.636,2.636,0,0,1-2.124-.82,3.136,3.136,0,0,1-.435-2.559l.8-5.391h-1.533l.293-2h1.543l.391-2.588ZM210.193,19a4.63,4.63,0,0,1-.156-.767,5.769,5.769,0,0,1-.039-.825,4.854,4.854,0,0,1-1.353,1.289,3.261,3.261,0,0,1-1.792.508,3.119,3.119,0,0,1-2.4-.864,2.642,2.642,0,0,1-.576-2.319,3.3,3.3,0,0,1,1.543-2.437,6.792,6.792,0,0,1,3.633-.825h1.6l.127-.84a1.478,1.478,0,0,0-.22-1.2,1.405,1.405,0,0,0-1.138-.405,1.782,1.782,0,0,0-1.108.337,1.329,1.329,0,0,0-.522.923h-2.744l-.01-.059a3.216,3.216,0,0,1,1.509-2.334,5.767,5.767,0,0,1,3.374-.947,4.152,4.152,0,0,1,2.9.967,2.883,2.883,0,0,1,.8,2.734l-.654,4.365a7.824,7.824,0,0,0-.1,1.406A6.857,6.857,0,0,0,213.035,19Zm-2.324-1.9a2.706,2.706,0,0,0,1.367-.376,2.545,2.545,0,0,0,.947-.864l.225-1.484h-1.6a2.148,2.148,0,0,0-1.421.459,1.743,1.743,0,0,0-.649,1.094.952.952,0,0,0,.215.864A1.236,1.236,0,0,0,207.869,17.1Zm13.008-1.025a.831.831,0,0,0-.337-.811,4.3,4.3,0,0,0-1.606-.586,5.812,5.812,0,0,1-2.656-1.123,2.152,2.152,0,0,1-.684-2.041,3.416,3.416,0,0,1,1.47-2.339,5.289,5.289,0,0,1,3.208-.933,4.456,4.456,0,0,1,3.032.967,2.421,2.421,0,0,1,.864,2.373l-.02.059h-2.754a1.24,1.24,0,0,0-.264-1.045A1.456,1.456,0,0,0,220,10.2a1.833,1.833,0,0,0-1.118.342,1.234,1.234,0,0,0-.532.84.817.817,0,0,0,.3.8,4.324,4.324,0,0,0,1.616.547,5.9,5.9,0,0,1,2.729,1.147,2.23,2.23,0,0,1,.669,2.085,3.307,3.307,0,0,1-1.548,2.363,5.973,5.973,0,0,1-3.354.879,4.32,4.32,0,0,1-3.145-1.084,2.6,2.6,0,0,1-.869-2.422l.029-.059h2.607a1.3,1.3,0,0,0,.386,1.23,2.059,2.059,0,0,0,1.323.381,2.16,2.16,0,0,0,1.23-.322A1.214,1.214,0,0,0,220.877,16.07Zm8.691,3.135a4.106,4.106,0,0,1-3.428-1.47,4.591,4.591,0,0,1-.811-3.716l.059-.391a6.678,6.678,0,0,1,1.86-3.931,5.138,5.138,0,0,1,3.774-1.46,3.533,3.533,0,0,1,3.032,1.318,4.517,4.517,0,0,1,.649,3.5l-.215,1.475h-6.309l-.02.049a2.478,2.478,0,0,0,.371,1.782,1.933,1.933,0,0,0,1.66.659,6.264,6.264,0,0,0,1.65-.2,7.535,7.535,0,0,0,1.484-.591l.508,1.758a6.478,6.478,0,0,1-1.855.869A8.094,8.094,0,0,1,229.568,19.205Zm1.133-8.77a1.824,1.824,0,0,0-1.382.6,3.539,3.539,0,0,0-.815,1.553l.02.059h3.457l.029-.215a2.28,2.28,0,0,0-.151-1.475A1.219,1.219,0,0,0,230.7,10.436Zm10.166-4.59-.391,2.588h1.787l-.293,2h-1.8l-.8,5.381a1.13,1.13,0,0,0,.117.894.805.805,0,0,0,.645.249,2.964,2.964,0,0,0,.4-.024,3.085,3.085,0,0,0,.4-.083l-.078,2.061a6.358,6.358,0,0,1-.864.22,5.145,5.145,0,0,1-.894.073,2.636,2.636,0,0,1-2.124-.82,3.136,3.136,0,0,1-.435-2.559l.8-5.391H235.8l.293-2h1.543l.391-2.588Zm7.529,7.383a13.072,13.072,0,0,1,1.553-6.572,8.988,8.988,0,0,1,3.262-3.633l.059.01.371,1.133a8.332,8.332,0,0,0-2.329,3.35,14.425,14.425,0,0,0-.991,5.693v.127a14.489,14.489,0,0,0,.986,5.693,9.063,9.063,0,0,0,2.334,3.438l-.371,1.055h-.059a8.991,8.991,0,0,1-3.262-3.628,13.065,13.065,0,0,1-1.553-6.577ZM261.629,19q-.1-.479-.151-.845a6.2,6.2,0,0,1-.063-.737,4.486,4.486,0,0,1-1.4,1.274,3.584,3.584,0,0,1-1.86.513,3.454,3.454,0,0,1-2.515-.845,3.107,3.107,0,0,1-.864-2.329A2.729,2.729,0,0,1,256,13.663a5.724,5.724,0,0,1,3.325-.854h2.09V11.764a1.938,1.938,0,0,0-.566-1.47,2.224,2.224,0,0,0-1.6-.542,2.324,2.324,0,0,0-1.514.469,1.406,1.406,0,0,0-.576,1.123l-1.826.02-.02-.059A2.529,2.529,0,0,1,256.39,9.2a4.472,4.472,0,0,1,2.964-.957,4.363,4.363,0,0,1,2.891.913,3.235,3.235,0,0,1,1.094,2.632v5.088a9.9,9.9,0,0,0,.059,1.094A5.625,5.625,0,0,0,263.611,19Zm-3.193-1.406a3.424,3.424,0,0,0,1.885-.537,2.553,2.553,0,0,0,1.094-1.23V14.107h-2.158a2.8,2.8,0,0,0-1.86.586,1.752,1.752,0,0,0-.7,1.377,1.449,1.449,0,0,0,.439,1.113A1.84,1.84,0,0,0,258.436,17.594Zm9.512-.1h6.1V19h-8.4V17.652l5.713-7.7h-5.645V8.434h8V9.742Zm14.951-.059a3.579,3.579,0,0,1-1.279,1.309,3.5,3.5,0,0,1-1.807.459,3.4,3.4,0,0,1-2.7-1.1,5.124,5.124,0,0,1-.967-3.437V8.434h1.924v6.25a3.934,3.934,0,0,0,.5,2.324,1.852,1.852,0,0,0,1.553.635,3.164,3.164,0,0,0,1.694-.415,2.6,2.6,0,0,0,1.011-1.177V8.434h1.924V19h-1.729ZM289.637,19h-1.924V3.766h1.924Zm6.865-5.684a13.032,13.032,0,0,1-1.558,6.577,9.055,9.055,0,0,1-3.257,3.628h-.059l-.371-1.055a8.316,8.316,0,0,0,2.319-3.374,14.686,14.686,0,0,0,1-5.757v-.127a14.192,14.192,0,0,0-1.03-5.7,9.415,9.415,0,0,0-2.29-3.433l.371-1.055h.059a9.051,9.051,0,0,1,3.257,3.633,13.039,13.039,0,0,1,1.558,6.572Zm11.3,1.748.186.977h.059l.2-.977,1.738-6.631h2.979L309.363,19h-2.725L303.045,8.434h2.979ZM319.91,16.07a.984.984,0,0,0-.454-.806,4.612,4.612,0,0,0-1.685-.591,6.719,6.719,0,0,1-2.817-1.123,2.453,2.453,0,0,1-.962-2.041A2.911,2.911,0,0,1,315.145,9.2a4.646,4.646,0,0,1,3.066-.957,5.014,5.014,0,0,1,3.208.957,2.8,2.8,0,0,1,1.157,2.383l-.02.059H319.8a1.383,1.383,0,0,0-.41-1.035,1.918,1.918,0,0,0-2.266-.059,1.063,1.063,0,0,0-.4.84.948.948,0,0,0,.415.8,4.62,4.62,0,0,0,1.685.552,6.855,6.855,0,0,1,2.9,1.147,2.517,2.517,0,0,1,.952,2.085,2.789,2.789,0,0,1-1.221,2.334,5.269,5.269,0,0,1-3.223.908,4.9,4.9,0,0,1-3.335-1.069,2.99,2.99,0,0,1-1.167-2.437l.02-.059h2.607a1.482,1.482,0,0,0,.557,1.23,2.3,2.3,0,0,0,1.377.381,1.958,1.958,0,0,0,1.206-.317A1.03,1.03,0,0,0,319.91,16.07ZM327.674,19h-2.852V16.5h2.852Zm10.7-5.156V19h-2.852V4.781h5.439a5.6,5.6,0,0,1,3.857,1.25,4.191,4.191,0,0,1,1.406,3.291,4.161,4.161,0,0,1-1.406,3.281,5.629,5.629,0,0,1-3.857,1.24Zm0-2.2h2.588A2.372,2.372,0,0,0,342.771,11a2.31,2.31,0,0,0,.615-1.655,2.417,2.417,0,0,0-.61-1.694,2.33,2.33,0,0,0-1.812-.669h-2.588Zm9.111,1.973a5.67,5.67,0,0,1,1.318-3.872,4.6,4.6,0,0,1,3.652-1.509,4.644,4.644,0,0,1,3.672,1.5,5.64,5.64,0,0,1,1.328,3.877v.205a5.649,5.649,0,0,1-1.323,3.882,5.223,5.223,0,0,1-7.324,0,5.649,5.649,0,0,1-1.323-3.882Zm2.842.205a4.6,4.6,0,0,0,.508,2.319,1.951,1.951,0,0,0,3.257,0,4.566,4.566,0,0,0,.513-2.314v-.205a4.52,4.52,0,0,0-.518-2.295,1.751,1.751,0,0,0-1.631-.889,1.73,1.73,0,0,0-1.616.894,4.561,4.561,0,0,0-.513,2.29Zm18.418.186a6.181,6.181,0,0,1-1.055,3.779,3.567,3.567,0,0,1-3.047,1.416,3.22,3.22,0,0,1-1.616-.391,3.34,3.34,0,0,1-1.167-1.143L361.629,19h-2.412V3.766h2.842V9.557a3.228,3.228,0,0,1,1.1-.977,3.071,3.071,0,0,1,1.47-.342,3.5,3.5,0,0,1,3.066,1.519,6.971,6.971,0,0,1,1.055,4.048Zm-2.842-.205a5.5,5.5,0,0,0-.454-2.446,1.593,1.593,0,0,0-1.548-.9,2.128,2.128,0,0,0-1.123.278,1.929,1.929,0,0,0-.723.8V16a1.812,1.812,0,0,0,.728.732,2.342,2.342,0,0,0,1.138.254,1.621,1.621,0,0,0,1.543-.776,4.522,4.522,0,0,0,.439-2.2Zm7.6,5.2h-2.852V3.766H373.5Zm8.574,0a6,6,0,0,1-.269-.762,5.3,5.3,0,0,1-.161-.82,3.908,3.908,0,0,1-1.162,1.279,2.913,2.913,0,0,1-1.719.508,3.568,3.568,0,0,1-2.559-.854,3.061,3.061,0,0,1-.9-2.329,2.786,2.786,0,0,1,1.2-2.407A5.974,5.974,0,0,1,380,12.76h1.6v-.84a1.644,1.644,0,0,0-.4-1.182,1.572,1.572,0,0,0-1.191-.42,1.549,1.549,0,0,0-1.069.337,1.176,1.176,0,0,0-.376.923h-2.744l-.02-.059a2.68,2.68,0,0,1,1.167-2.31,5.069,5.069,0,0,1,3.228-.972,4.73,4.73,0,0,1,3.081.957,3.333,3.333,0,0,1,1.177,2.744V16.3a8.257,8.257,0,0,0,.112,1.4,7.008,7.008,0,0,0,.356,1.3Zm-2.607-1.9a2.429,2.429,0,0,0,1.328-.371,2,2,0,0,0,.8-.859V14.371H380a1.9,1.9,0,0,0-1.372.449,1.476,1.476,0,0,0-.464,1.1,1.1,1.1,0,0,0,.347.854A1.371,1.371,0,0,0,379.471,17.1ZM391,17.018a1.587,1.587,0,0,0,1.182-.444,1.614,1.614,0,0,0,.439-1.187h2.6l.02.059a3.307,3.307,0,0,1-1.191,2.681A4.455,4.455,0,0,1,391,19.205a4.5,4.5,0,0,1-3.623-1.5,5.7,5.7,0,0,1-1.279-3.833V13.58a5.735,5.735,0,0,1,1.274-3.833,4.463,4.463,0,0,1,3.608-1.509A4.358,4.358,0,0,1,394.1,9.352a3.721,3.721,0,0,1,1.143,2.93l-.02.059h-2.6a2.109,2.109,0,0,0-.435-1.362,1.46,1.46,0,0,0-1.206-.542,1.627,1.627,0,0,0-1.567.884,4.847,4.847,0,0,0-.464,2.261v.293a4.829,4.829,0,0,0,.464,2.275A1.649,1.649,0,0,0,391,17.018ZM399.9,19h-2.852V8.434H399.9Zm0-13.1h-2.852V3.766H399.9Zm1.9,7.715a5.67,5.67,0,0,1,1.318-3.872,4.6,4.6,0,0,1,3.652-1.509,4.644,4.644,0,0,1,3.672,1.5,5.64,5.64,0,0,1,1.328,3.877v.205a5.649,5.649,0,0,1-1.323,3.882,5.223,5.223,0,0,1-7.324,0,5.649,5.649,0,0,1-1.323-3.882Zm2.842.205a4.6,4.6,0,0,0,.508,2.319,1.951,1.951,0,0,0,3.257,0,4.566,4.566,0,0,0,.513-2.314v-.205a4.52,4.52,0,0,0-.518-2.295,1.751,1.751,0,0,0-1.631-.889,1.73,1.73,0,0,0-1.616.894,4.561,4.561,0,0,0-.513,2.29Zm2.705-9.9h3.174l.02.059L407.84,6.52h-2.432Zm8.789,4.512.127,1.514a3.865,3.865,0,0,1,1.3-1.26,3.371,3.371,0,0,1,1.729-.449,3.142,3.142,0,0,1,2.5,1.03,4.884,4.884,0,0,1,.9,3.257V19h-2.861V12.535a2.529,2.529,0,0,0-.4-1.606,1.458,1.458,0,0,0-1.187-.474,2.49,2.49,0,0,0-1.118.239,2.183,2.183,0,0,0-.8.659V19h-2.852V8.434Zm18.242,10.771a4.754,4.754,0,0,1-3.691-1.45,5.315,5.315,0,0,1-1.328-3.735v-.391a5.785,5.785,0,0,1,1.289-3.887,4.382,4.382,0,0,1,3.545-1.5,4.1,4.1,0,0,1,3.267,1.3,5.152,5.152,0,0,1,1.138,3.511v1.475h-6.3l-.029.059a2.855,2.855,0,0,0,.659,1.758,2.207,2.207,0,0,0,1.753.674,5.865,5.865,0,0,0,1.626-.2,6.634,6.634,0,0,0,1.382-.6l.771,1.758a5.293,5.293,0,0,1-1.719.869A7.622,7.622,0,0,1,434.383,19.205Zm-.186-8.77a1.584,1.584,0,0,0-1.323.591,2.964,2.964,0,0,0-.562,1.567l.02.049h3.477v-.215a2.468,2.468,0,0,0-.381-1.46A1.409,1.409,0,0,0,434.2,10.436Zm8.672-2L443,9.947a3.865,3.865,0,0,1,1.3-1.26,3.371,3.371,0,0,1,1.729-.449,3.142,3.142,0,0,1,2.5,1.03,4.884,4.884,0,0,1,.9,3.257V19h-2.861V12.535a2.529,2.529,0,0,0-.4-1.606,1.458,1.458,0,0,0-1.187-.474,2.49,2.49,0,0,0-1.118.239,2.183,2.183,0,0,0-.8.659V19h-2.852V8.434ZM456.111,13.8A6.843,6.843,0,0,1,457.2,9.771a3.516,3.516,0,0,1,3.047-1.533,3,3,0,0,1,1.563.4,3.507,3.507,0,0,1,1.152,1.143l.225-1.348h2.451V18.951a3.927,3.927,0,0,1-1.348,3.188,5.69,5.69,0,0,1-3.76,1.128,7.163,7.163,0,0,1-1.7-.22,7.891,7.891,0,0,1-1.66-.6l.479-2.129a6.544,6.544,0,0,0,1.353.474,6.7,6.7,0,0,0,1.509.161,2.552,2.552,0,0,0,1.724-.488,1.933,1.933,0,0,0,.552-1.523v-.957a3.19,3.19,0,0,1-1.1.908,3.253,3.253,0,0,1-1.455.313,3.586,3.586,0,0,1-3.027-1.426,6.069,6.069,0,0,1-1.084-3.77Zm2.852.205a4.341,4.341,0,0,0,.464,2.183,1.621,1.621,0,0,0,1.519.8,2.354,2.354,0,0,0,1.108-.239,1.828,1.828,0,0,0,.728-.7v-4.58a1.949,1.949,0,0,0-.728-.752,2.133,2.133,0,0,0-1.089-.264,1.6,1.6,0,0,0-1.523.928,5.288,5.288,0,0,0-.479,2.422Zm13.438,5.2a4.754,4.754,0,0,1-3.691-1.45,5.315,5.315,0,0,1-1.328-3.735v-.391a5.785,5.785,0,0,1,1.289-3.887,4.382,4.382,0,0,1,3.545-1.5,4.1,4.1,0,0,1,3.267,1.3,5.152,5.152,0,0,1,1.138,3.511v1.475h-6.3l-.029.059a2.855,2.855,0,0,0,.659,1.758,2.207,2.207,0,0,0,1.753.674,5.865,5.865,0,0,0,1.626-.2,6.634,6.634,0,0,0,1.382-.6l.771,1.758a5.293,5.293,0,0,1-1.719.869A7.622,7.622,0,0,1,472.4,19.205Zm-.186-8.77a1.584,1.584,0,0,0-1.323.591,2.964,2.964,0,0,0-.562,1.567l.02.049h3.477v-.215a2.468,2.468,0,0,0-.381-1.46A1.409,1.409,0,0,0,472.215,10.436Zm8.672-2,.127,1.514a3.865,3.865,0,0,1,1.3-1.26,3.371,3.371,0,0,1,1.729-.449,3.142,3.142,0,0,1,2.5,1.03,4.884,4.884,0,0,1,.9,3.257V19h-2.861V12.535a2.529,2.529,0,0,0-.4-1.606A1.458,1.458,0,0,0,483,10.455a2.49,2.49,0,0,0-1.118.239,2.183,2.183,0,0,0-.8.659V19H478.23V8.434Zm13.262,10.771a4.754,4.754,0,0,1-3.691-1.45,5.315,5.315,0,0,1-1.328-3.735v-.391a5.785,5.785,0,0,1,1.289-3.887,4.382,4.382,0,0,1,3.545-1.5,4.1,4.1,0,0,1,3.267,1.3,5.152,5.152,0,0,1,1.138,3.511v1.475h-6.3l-.029.059a2.855,2.855,0,0,0,.659,1.758,2.207,2.207,0,0,0,1.753.674,5.865,5.865,0,0,0,1.626-.2,6.634,6.634,0,0,0,1.382-.6l.771,1.758a5.293,5.293,0,0,1-1.719.869A7.622,7.622,0,0,1,494.148,19.205Zm-.186-8.77a1.584,1.584,0,0,0-1.323.591,2.964,2.964,0,0,0-.562,1.567l.02.049h3.477v-.215a2.468,2.468,0,0,0-.381-1.46A1.409,1.409,0,0,0,493.963,10.436Zm11.621.449-1.045-.029a1.9,1.9,0,0,0-1.045.264,1.671,1.671,0,0,0-.625.742V19h-2.842V8.434h2.646L502.8,10a3.333,3.333,0,0,1,.962-1.294,2.247,2.247,0,0,1,1.758-.43q.181.034.366.083ZM513.3,19a6,6,0,0,1-.269-.762,5.294,5.294,0,0,1-.161-.82,3.909,3.909,0,0,1-1.162,1.279,2.913,2.913,0,0,1-1.719.508,3.568,3.568,0,0,1-2.559-.854,3.061,3.061,0,0,1-.9-2.329,2.786,2.786,0,0,1,1.2-2.407,5.974,5.974,0,0,1,3.491-.854h1.6v-.84a1.644,1.644,0,0,0-.4-1.182,1.572,1.572,0,0,0-1.191-.42,1.549,1.549,0,0,0-1.069.337,1.176,1.176,0,0,0-.376.923h-2.744l-.02-.059a2.68,2.68,0,0,1,1.167-2.31,5.069,5.069,0,0,1,3.228-.972A4.73,4.73,0,0,1,514.5,9.2a3.333,3.333,0,0,1,1.177,2.744V16.3a8.254,8.254,0,0,0,.112,1.4,7.008,7.008,0,0,0,.356,1.3Zm-2.607-1.9a2.429,2.429,0,0,0,1.328-.371,2,2,0,0,0,.8-.859V14.371h-1.6a1.9,1.9,0,0,0-1.372.449,1.476,1.476,0,0,0-.464,1.1,1.1,1.1,0,0,0,.347.854A1.371,1.371,0,0,0,510.691,17.1ZM520.809,19h-2.852V3.766h2.852Zm7.52-5.771a13.072,13.072,0,0,1,1.553-6.572,8.988,8.988,0,0,1,3.262-3.633l.059.01.371,1.133a8.332,8.332,0,0,0-2.329,3.35,14.425,14.425,0,0,0-.991,5.693v.127a14.489,14.489,0,0,0,.986,5.693,9.063,9.063,0,0,0,2.334,3.438l-.371,1.055h-.059a8.991,8.991,0,0,1-3.262-3.628,13.065,13.065,0,0,1-1.553-6.577Zm11.738-3.1-.986-.059a2.2,2.2,0,0,0-1.284.361,2.318,2.318,0,0,0-.806,1.016V19h-1.924V8.434h1.719l.186,1.543A3.668,3.668,0,0,1,538.079,8.7a2.592,2.592,0,0,1,1.519-.459,2.377,2.377,0,0,1,.41.034,2.72,2.72,0,0,1,.322.073Zm1.357,3.486a5.817,5.817,0,0,1,1.27-3.862,4.7,4.7,0,0,1,6.919,0,5.8,5.8,0,0,1,1.274,3.867v.215a5.789,5.789,0,0,1-1.27,3.867,4.726,4.726,0,0,1-6.919,0,5.779,5.779,0,0,1-1.274-3.862Zm1.924.215a5.012,5.012,0,0,0,.708,2.773,2.557,2.557,0,0,0,4.194,0,4.985,4.985,0,0,0,.713-2.773v-.215a4.97,4.97,0,0,0-.718-2.764,2.353,2.353,0,0,0-2.1-1.1,2.32,2.32,0,0,0-2.085,1.1,5.023,5.023,0,0,0-.708,2.764Zm12.109-5.4V19.869a3.509,3.509,0,0,1-.84,2.515,3.066,3.066,0,0,1-2.334.884,3.186,3.186,0,0,1-.552-.044,4.361,4.361,0,0,1-.532-.132l.137-1.514a2.026,2.026,0,0,0,.391.083,3.26,3.26,0,0,0,.42.034,1.275,1.275,0,0,0,1.011-.43,2.1,2.1,0,0,0,.376-1.4V8.434ZM555.4,5.689h-1.924V3.766H555.4Zm2.568,7.93a5.817,5.817,0,0,1,1.27-3.862,4.7,4.7,0,0,1,6.919,0,5.8,5.8,0,0,1,1.274,3.867v.215a5.789,5.789,0,0,1-1.27,3.867,4.726,4.726,0,0,1-6.919,0,5.779,5.779,0,0,1-1.274-3.862Zm1.924.215a5.012,5.012,0,0,0,.708,2.773,2.557,2.557,0,0,0,4.194,0,4.985,4.985,0,0,0,.713-2.773v-.215a4.97,4.97,0,0,0-.718-2.764,2.353,2.353,0,0,0-2.1-1.1,2.32,2.32,0,0,0-2.085,1.1,5.023,5.023,0,0,0-.708,2.764Zm13.8-.518a13.033,13.033,0,0,1-1.558,6.577,9.055,9.055,0,0,1-3.257,3.628h-.059l-.371-1.055a8.316,8.316,0,0,0,2.319-3.374,14.686,14.686,0,0,0,1-5.757v-.127a14.193,14.193,0,0,0-1.03-5.7,9.415,9.415,0,0,0-2.29-3.433l.371-1.055h.059a9.051,9.051,0,0,1,3.257,3.633,13.039,13.039,0,0,1,1.558,6.572Z" transform="translate(496 2998)" fill="#12263f"/>
    <path id="Trazado_890236" data-name="Trazado 890236" d="M10.746,11.357,11.484,4.2h7.137V6.26H13.584l-.352,2.988a3.1,3.1,0,0,1,.905-.435,4.337,4.337,0,0,1,1.187-.189,3.392,3.392,0,0,1,2.764,1.1,4.682,4.682,0,0,1,.98,3.168,4.488,4.488,0,0,1-1.063,3.085,4.116,4.116,0,0,1-3.252,1.2,4.919,4.919,0,0,1-3.023-.936,2.924,2.924,0,0,1-1.213-2.571l.018-.044L13,13.52a1.618,1.618,0,0,0,.483,1.248,1.787,1.787,0,0,0,1.266.448,1.51,1.51,0,0,0,1.332-.6,2.955,2.955,0,0,0,.417-1.705,3.027,3.027,0,0,0-.457-1.762,1.544,1.544,0,0,0-1.354-.655,1.966,1.966,0,0,0-1.129.272,1.487,1.487,0,0,0-.558.738Zm18.6,1.011A5.016,5.016,0,0,1,28.161,15.9a4.057,4.057,0,0,1-3.133,1.283A4.092,4.092,0,0,1,21.873,15.9a5,5,0,0,1-1.187-3.533V8.844a5.035,5.035,0,0,1,1.182-3.533A4.054,4.054,0,0,1,25.01,4.019a4.071,4.071,0,0,1,3.142,1.292,5.012,5.012,0,0,1,1.191,3.533ZM26.786,8.58a3.312,3.312,0,0,0-.47-1.907,1.6,1.6,0,0,0-2.61,0,3.361,3.361,0,0,0-.461,1.907v4.034a3.369,3.369,0,0,0,.466,1.929,1.51,1.51,0,0,0,1.318.672,1.483,1.483,0,0,0,1.3-.672,3.394,3.394,0,0,0,.461-1.929Zm4.228-1.916a2.6,2.6,0,0,1,.734-1.89,3.165,3.165,0,0,1,4.1,0,2.609,2.609,0,0,1,.729,1.894v.677a2.583,2.583,0,0,1-.729,1.881,2.719,2.719,0,0,1-2.039.747,2.761,2.761,0,0,1-2.057-.747,2.566,2.566,0,0,1-.738-1.881Zm1.705.677A1.317,1.317,0,0,0,33,8.2a.98.98,0,0,0,.809.347.948.948,0,0,0,.787-.347,1.331,1.331,0,0,0,.277-.857V6.664A1.353,1.353,0,0,0,34.59,5.8a.96.96,0,0,0-.8-.356A.948.948,0,0,0,33,5.8a1.367,1.367,0,0,0-.277.866Zm4.412,6.521a2.585,2.585,0,0,1,.738-1.881,3.165,3.165,0,0,1,4.1,0,2.589,2.589,0,0,1,.734,1.885v.677a2.594,2.594,0,0,1-.729,1.89,2.719,2.719,0,0,1-2.039.747,2.767,2.767,0,0,1-2.061-.751,2.573,2.573,0,0,1-.743-1.885Zm1.705.677a1.277,1.277,0,0,0,.3.857.994.994,0,0,0,.8.356.954.954,0,0,0,.817-.33A1.443,1.443,0,0,0,41,14.539v-.677a1.34,1.34,0,0,0-.281-.857,1.081,1.081,0,0,0-1.6,0,1.354,1.354,0,0,0-.277.857Zm-4.605,1.5-1.248-.659,6.249-10,1.248.659Z" transform="translate(405 3003)" fill="#12263f"/>
    <path id="Trazado_890237" data-name="Trazado 890237" d="M14.613,9.477A1.775,1.775,0,0,0,15.971,9a1.881,1.881,0,0,0,.444-1.336,1.637,1.637,0,0,0-.466-1.2A1.74,1.74,0,0,0,14.648,6a1.7,1.7,0,0,0-1.182.431,1.412,1.412,0,0,0-.479,1.1H10.508l-.018-.053a2.9,2.9,0,0,1,1.16-2.479,4.629,4.629,0,0,1,3-.976,4.907,4.907,0,0,1,3.155.936A3.239,3.239,0,0,1,18.972,7.64a2.783,2.783,0,0,1-.505,1.613,3.453,3.453,0,0,1-1.384,1.156,3.232,3.232,0,0,1,1.547,1.147,3.132,3.132,0,0,1,.545,1.859,3.334,3.334,0,0,1-1.27,2.764,5.083,5.083,0,0,1-3.256,1.006,5.073,5.073,0,0,1-3.059-.949,3,3,0,0,1-1.266-2.663l.018-.053h2.5a1.612,1.612,0,0,0,.505,1.208,1.8,1.8,0,0,0,1.305.488,1.98,1.98,0,0,0,1.424-.519,1.731,1.731,0,0,0,.545-1.31,1.986,1.986,0,0,0-.51-1.5,2.081,2.081,0,0,0-1.494-.488H13.2V9.477Zm14.73,2.892A5.016,5.016,0,0,1,28.161,15.9a4.057,4.057,0,0,1-3.133,1.283A4.092,4.092,0,0,1,21.873,15.9a5,5,0,0,1-1.187-3.533V8.844a5.035,5.035,0,0,1,1.182-3.533A4.054,4.054,0,0,1,25.01,4.019a4.071,4.071,0,0,1,3.142,1.292,5.012,5.012,0,0,1,1.191,3.533ZM26.786,8.58a3.312,3.312,0,0,0-.47-1.907,1.6,1.6,0,0,0-2.61,0,3.361,3.361,0,0,0-.461,1.907v4.034a3.369,3.369,0,0,0,.466,1.929,1.51,1.51,0,0,0,1.318.672,1.483,1.483,0,0,0,1.3-.672,3.394,3.394,0,0,0,.461-1.929Zm4.228-1.916a2.6,2.6,0,0,1,.734-1.89,3.165,3.165,0,0,1,4.1,0,2.609,2.609,0,0,1,.729,1.894v.677a2.583,2.583,0,0,1-.729,1.881,2.719,2.719,0,0,1-2.039.747,2.761,2.761,0,0,1-2.057-.747,2.566,2.566,0,0,1-.738-1.881Zm1.705.677A1.317,1.317,0,0,0,33,8.2a.98.98,0,0,0,.809.347.948.948,0,0,0,.787-.347,1.331,1.331,0,0,0,.277-.857V6.664A1.353,1.353,0,0,0,34.59,5.8a.96.96,0,0,0-.8-.356A.948.948,0,0,0,33,5.8a1.367,1.367,0,0,0-.277.866Zm4.412,6.521a2.585,2.585,0,0,1,.738-1.881,3.165,3.165,0,0,1,4.1,0,2.589,2.589,0,0,1,.734,1.885v.677a2.594,2.594,0,0,1-.729,1.89,2.719,2.719,0,0,1-2.039.747,2.767,2.767,0,0,1-2.061-.751,2.573,2.573,0,0,1-.743-1.885Zm1.705.677a1.277,1.277,0,0,0,.3.857.994.994,0,0,0,.8.356.954.954,0,0,0,.817-.33A1.443,1.443,0,0,0,41,14.539v-.677a1.34,1.34,0,0,0-.281-.857,1.081,1.081,0,0,0-1.6,0,1.354,1.354,0,0,0-.277.857Zm-4.605,1.5-1.248-.659,6.249-10,1.248.659Z" transform="translate(405 3088)" fill="#12263f"/>
    <path id="Trazado_890238" data-name="Trazado 890238" d="M16.52,17H13.962V6.436H11.317V4.476l5.2-.457Zm12.823-4.632A5.016,5.016,0,0,1,28.161,15.9a4.057,4.057,0,0,1-3.133,1.283A4.092,4.092,0,0,1,21.873,15.9a5,5,0,0,1-1.187-3.533V8.844a5.035,5.035,0,0,1,1.182-3.533A4.054,4.054,0,0,1,25.01,4.019a4.071,4.071,0,0,1,3.142,1.292,5.012,5.012,0,0,1,1.191,3.533ZM26.786,8.58a3.312,3.312,0,0,0-.47-1.907,1.6,1.6,0,0,0-2.61,0,3.361,3.361,0,0,0-.461,1.907v4.034a3.369,3.369,0,0,0,.466,1.929,1.51,1.51,0,0,0,1.318.672,1.483,1.483,0,0,0,1.3-.672,3.394,3.394,0,0,0,.461-1.929Zm4.228-1.916a2.6,2.6,0,0,1,.734-1.89,3.165,3.165,0,0,1,4.1,0,2.609,2.609,0,0,1,.729,1.894v.677a2.583,2.583,0,0,1-.729,1.881,2.719,2.719,0,0,1-2.039.747,2.761,2.761,0,0,1-2.057-.747,2.566,2.566,0,0,1-.738-1.881Zm1.705.677A1.317,1.317,0,0,0,33,8.2a.98.98,0,0,0,.809.347.948.948,0,0,0,.787-.347,1.331,1.331,0,0,0,.277-.857V6.664A1.353,1.353,0,0,0,34.59,5.8a.96.96,0,0,0-.8-.356A.948.948,0,0,0,33,5.8a1.367,1.367,0,0,0-.277.866Zm4.412,6.521a2.585,2.585,0,0,1,.738-1.881,3.165,3.165,0,0,1,4.1,0,2.589,2.589,0,0,1,.734,1.885v.677a2.594,2.594,0,0,1-.729,1.89,2.719,2.719,0,0,1-2.039.747,2.767,2.767,0,0,1-2.061-.751,2.573,2.573,0,0,1-.743-1.885Zm1.705.677a1.277,1.277,0,0,0,.3.857.994.994,0,0,0,.8.356.954.954,0,0,0,.817-.33A1.443,1.443,0,0,0,41,14.539v-.677a1.34,1.34,0,0,0-.281-.857,1.081,1.081,0,0,0-1.6,0,1.354,1.354,0,0,0-.277.857Zm-4.605,1.5-1.248-.659,6.249-10,1.248.659Z" transform="translate(405 3173)" fill="#12263f"/>
    <path id="Trazado_890239" data-name="Trazado 890239" d="M24.18,12.368A5.016,5.016,0,0,1,23,15.9a4.057,4.057,0,0,1-3.133,1.283A4.092,4.092,0,0,1,16.709,15.9a5,5,0,0,1-1.187-3.533V8.844A5.035,5.035,0,0,1,16.7,5.311a4.054,4.054,0,0,1,3.142-1.292,4.071,4.071,0,0,1,3.142,1.292A5.012,5.012,0,0,1,24.18,8.844ZM21.622,8.58a3.312,3.312,0,0,0-.47-1.907,1.6,1.6,0,0,0-2.61,0A3.361,3.361,0,0,0,18.08,8.58v4.034a3.369,3.369,0,0,0,.466,1.929,1.51,1.51,0,0,0,1.318.672,1.483,1.483,0,0,0,1.3-.672,3.394,3.394,0,0,0,.461-1.929ZM25.85,6.664a2.6,2.6,0,0,1,.734-1.89,2.716,2.716,0,0,1,2.043-.756,2.734,2.734,0,0,1,2.057.751,2.609,2.609,0,0,1,.729,1.894v.677a2.583,2.583,0,0,1-.729,1.881,2.719,2.719,0,0,1-2.039.747,2.761,2.761,0,0,1-2.057-.747,2.566,2.566,0,0,1-.738-1.881Zm1.705.677a1.317,1.317,0,0,0,.281.857.98.98,0,0,0,.809.347.948.948,0,0,0,.787-.347,1.331,1.331,0,0,0,.277-.857V6.664a1.353,1.353,0,0,0-.281-.866.96.96,0,0,0-.8-.356.948.948,0,0,0-.8.356,1.367,1.367,0,0,0-.277.866Zm4.412,6.521a2.585,2.585,0,0,1,.738-1.881,3.165,3.165,0,0,1,4.1,0,2.589,2.589,0,0,1,.734,1.885v.677a2.594,2.594,0,0,1-.729,1.89,2.719,2.719,0,0,1-2.039.747,2.767,2.767,0,0,1-2.061-.751,2.573,2.573,0,0,1-.743-1.885Zm1.705.677a1.277,1.277,0,0,0,.3.857.994.994,0,0,0,.8.356.954.954,0,0,0,.817-.33,1.443,1.443,0,0,0,.246-.883v-.677a1.34,1.34,0,0,0-.281-.857,1.081,1.081,0,0,0-1.6,0,1.354,1.354,0,0,0-.277.857Zm-4.605,1.5-1.248-.659,6.249-10,1.248.659Z" transform="translate(405 3258)" fill="#12263f"/>
    <path id="Trazado_890240" data-name="Trazado 890240" d="M23.616,15.251a4.862,4.862,0,0,1-1.784,1.358,7.023,7.023,0,0,1-3.059.576,5.173,5.173,0,0,1-3.8-1.459A5.092,5.092,0,0,1,13.5,11.938V9.266a5.18,5.18,0,0,1,1.433-3.784,4.929,4.929,0,0,1,3.683-1.463A5.234,5.234,0,0,1,22.21,5.13a3.652,3.652,0,0,1,1.2,2.966l-.018.053H20.979a2.1,2.1,0,0,0-.589-1.586A2.376,2.376,0,0,0,18.677,6a2.3,2.3,0,0,0-1.9.91,3.657,3.657,0,0,0-.721,2.342v2.689A3.645,3.645,0,0,0,16.8,14.3a2.411,2.411,0,0,0,1.978.914,4.55,4.55,0,0,0,1.446-.185,2.2,2.2,0,0,0,.822-.466V12.087H18.58V10.312h5.036ZM30.6,9.7l-.94-.026a1.709,1.709,0,0,0-.94.237,1.5,1.5,0,0,0-.562.668V17H25.6V7.49h2.382L28.1,8.9a3,3,0,0,1,.866-1.165,2.022,2.022,0,0,1,1.582-.387q.163.031.33.075Zm7.163,5.9a3.229,3.229,0,0,1-1.116,1.178,2.959,2.959,0,0,1-1.573.413,2.892,2.892,0,0,1-2.351-1.02A4.89,4.89,0,0,1,31.878,13V7.49h2.558v5.528a3.07,3.07,0,0,0,.338,1.709,1.216,1.216,0,0,0,1.05.461,2.557,2.557,0,0,0,1.055-.2,1.778,1.778,0,0,0,.721-.584V7.49h2.566V17H38.039Zm12.911-3.085A5.462,5.462,0,0,1,49.7,15.9a3.227,3.227,0,0,1-2.725,1.283,3.045,3.045,0,0,1-1.327-.277,2.726,2.726,0,0,1-.993-.813v4.562H42.1V7.49h2.312l.149,1.125a3.047,3.047,0,0,1,1.015-.962,2.746,2.746,0,0,1,1.384-.338A3.165,3.165,0,0,1,49.7,8.694a6.159,6.159,0,0,1,.976,3.63Zm-2.566-.185a4.6,4.6,0,0,0-.448-2.18,1.462,1.462,0,0,0-1.371-.835,1.938,1.938,0,0,0-.989.237,1.693,1.693,0,0,0-.646.677V14.39A1.573,1.573,0,0,0,45.3,15a2.176,2.176,0,0,0,1.006.211,1.476,1.476,0,0,0,1.367-.729,3.851,3.851,0,0,0,.435-1.978Zm3.753-.167a5.1,5.1,0,0,1,1.187-3.485,4.136,4.136,0,0,1,3.287-1.358,4.18,4.18,0,0,1,3.3,1.354,5.076,5.076,0,0,1,1.2,3.489v.185a5.084,5.084,0,0,1-1.191,3.494,4.7,4.7,0,0,1-6.592,0,5.084,5.084,0,0,1-1.191-3.494Zm2.558.185a4.137,4.137,0,0,0,.457,2.087,1.756,1.756,0,0,0,2.931,0,4.11,4.11,0,0,0,.461-2.083v-.185a4.068,4.068,0,0,0-.466-2.065,1.576,1.576,0,0,0-1.468-.8,1.557,1.557,0,0,0-1.455.8,4.1,4.1,0,0,0-.461,2.061Zm19.345,1.9H69.618L68.757,17H66.076L70.392,4.2H73.02l4.3,12.8H74.637Zm-3.516-2.013h2.892L71.728,7.719h-.053Z" transform="translate(532 3303)" fill="#12263f"/>
    <path id="Trazado_890241" data-name="Trazado 890241" d="M23.607,15.251a4.862,4.862,0,0,1-1.784,1.358,7.023,7.023,0,0,1-3.059.576,5.173,5.173,0,0,1-3.8-1.459,5.092,5.092,0,0,1-1.477-3.788V9.266a5.18,5.18,0,0,1,1.433-3.784,4.929,4.929,0,0,1,3.683-1.463A5.234,5.234,0,0,1,22.2,5.13a3.652,3.652,0,0,1,1.2,2.966l-.018.053H20.971a2.1,2.1,0,0,0-.589-1.586A2.376,2.376,0,0,0,18.668,6a2.3,2.3,0,0,0-1.9.91,3.657,3.657,0,0,0-.721,2.342v2.689a3.645,3.645,0,0,0,.738,2.364,2.411,2.411,0,0,0,1.978.914,4.55,4.55,0,0,0,1.446-.185,2.2,2.2,0,0,0,.822-.466V12.087H18.571V10.312h5.036ZM30.595,9.7l-.94-.026a1.709,1.709,0,0,0-.94.237,1.5,1.5,0,0,0-.562.668V17H25.594V7.49h2.382L28.09,8.9a3,3,0,0,1,.866-1.165,2.022,2.022,0,0,1,1.582-.387q.163.031.33.075Zm7.163,5.9a3.229,3.229,0,0,1-1.116,1.178,2.959,2.959,0,0,1-1.573.413,2.892,2.892,0,0,1-2.351-1.02A4.89,4.89,0,0,1,31.869,13V7.49h2.558v5.528a3.07,3.07,0,0,0,.338,1.709,1.216,1.216,0,0,0,1.05.461,2.557,2.557,0,0,0,1.055-.2,1.778,1.778,0,0,0,.721-.584V7.49h2.566V17H38.03Zm12.911-3.085a5.462,5.462,0,0,1-.976,3.393,3.227,3.227,0,0,1-2.725,1.283,3.045,3.045,0,0,1-1.327-.277,2.726,2.726,0,0,1-.993-.813v4.562H42.091V7.49H44.4l.149,1.125a3.047,3.047,0,0,1,1.015-.962,2.746,2.746,0,0,1,1.384-.338,3.165,3.165,0,0,1,2.742,1.38,6.159,6.159,0,0,1,.976,3.63ZM48.1,12.324a4.6,4.6,0,0,0-.448-2.18,1.462,1.462,0,0,0-1.371-.835,1.938,1.938,0,0,0-.989.237,1.693,1.693,0,0,0-.646.677V14.39a1.573,1.573,0,0,0,.646.615,2.176,2.176,0,0,0,1.006.211,1.476,1.476,0,0,0,1.367-.729,3.851,3.851,0,0,0,.435-1.978Zm3.753-.167a5.1,5.1,0,0,1,1.187-3.485,4.136,4.136,0,0,1,3.287-1.358,4.18,4.18,0,0,1,3.3,1.354,5.076,5.076,0,0,1,1.2,3.489v.185a5.084,5.084,0,0,1-1.191,3.494,4.7,4.7,0,0,1-6.592,0,5.084,5.084,0,0,1-1.191-3.494Zm2.558.185a4.137,4.137,0,0,0,.457,2.087,1.756,1.756,0,0,0,2.931,0,4.11,4.11,0,0,0,.461-2.083v-.185a4.068,4.068,0,0,0-.466-2.065,1.576,1.576,0,0,0-1.468-.8,1.557,1.557,0,0,0-1.455.8,4.1,4.1,0,0,0-.461,2.061ZM67.087,17V4.2h4.192a6.087,6.087,0,0,1,3.524.883A2.991,2.991,0,0,1,76.069,7.71a2.717,2.717,0,0,1-1.793,2.619,2.757,2.757,0,0,1,1.8,1.037,3.114,3.114,0,0,1,.606,1.907,3.311,3.311,0,0,1-1.213,2.782A5.482,5.482,0,0,1,72.035,17Zm2.566-5.66v3.691h2.382a2.384,2.384,0,0,0,1.556-.444,1.608,1.608,0,0,0,.536-1.314,1.882,1.882,0,0,0-.527-1.433,2.233,2.233,0,0,0-1.591-.5Zm0-1.775h1.714a2.568,2.568,0,0,0,1.582-.422,1.452,1.452,0,0,0,.554-1.23,1.536,1.536,0,0,0-.558-1.31,2.742,2.742,0,0,0-1.666-.422H69.653Z" transform="translate(716 3303)" fill="#12263f"/>
    <path id="Trazado_890242" data-name="Trazado 890242" d="M23.616,15.251a4.862,4.862,0,0,1-1.784,1.358,7.023,7.023,0,0,1-3.059.576,5.173,5.173,0,0,1-3.8-1.459A5.092,5.092,0,0,1,13.5,11.938V9.266a5.18,5.18,0,0,1,1.433-3.784,4.929,4.929,0,0,1,3.683-1.463A5.234,5.234,0,0,1,22.21,5.13a3.652,3.652,0,0,1,1.2,2.966l-.018.053H20.979a2.1,2.1,0,0,0-.589-1.586A2.376,2.376,0,0,0,18.677,6a2.3,2.3,0,0,0-1.9.91,3.657,3.657,0,0,0-.721,2.342v2.689A3.645,3.645,0,0,0,16.8,14.3a2.411,2.411,0,0,0,1.978.914,4.55,4.55,0,0,0,1.446-.185,2.2,2.2,0,0,0,.822-.466V12.087H18.58V10.312h5.036ZM30.6,9.7l-.94-.026a1.709,1.709,0,0,0-.94.237,1.5,1.5,0,0,0-.562.668V17H25.6V7.49h2.382L28.1,8.9a3,3,0,0,1,.866-1.165,2.022,2.022,0,0,1,1.582-.387q.163.031.33.075Zm7.163,5.9a3.229,3.229,0,0,1-1.116,1.178,2.959,2.959,0,0,1-1.573.413,2.892,2.892,0,0,1-2.351-1.02A4.89,4.89,0,0,1,31.878,13V7.49h2.558v5.528a3.07,3.07,0,0,0,.338,1.709,1.216,1.216,0,0,0,1.05.461,2.557,2.557,0,0,0,1.055-.2,1.778,1.778,0,0,0,.721-.584V7.49h2.566V17H38.039Zm12.911-3.085A5.462,5.462,0,0,1,49.7,15.9a3.227,3.227,0,0,1-2.725,1.283,3.045,3.045,0,0,1-1.327-.277,2.726,2.726,0,0,1-.993-.813v4.562H42.1V7.49h2.312l.149,1.125a3.047,3.047,0,0,1,1.015-.962,2.746,2.746,0,0,1,1.384-.338A3.165,3.165,0,0,1,49.7,8.694a6.159,6.159,0,0,1,.976,3.63Zm-2.566-.185a4.6,4.6,0,0,0-.448-2.18,1.462,1.462,0,0,0-1.371-.835,1.938,1.938,0,0,0-.989.237,1.693,1.693,0,0,0-.646.677V14.39A1.573,1.573,0,0,0,45.3,15a2.176,2.176,0,0,0,1.006.211,1.476,1.476,0,0,0,1.367-.729,3.851,3.851,0,0,0,.435-1.978Zm3.753-.167a5.1,5.1,0,0,1,1.187-3.485,4.136,4.136,0,0,1,3.287-1.358,4.18,4.18,0,0,1,3.3,1.354,5.076,5.076,0,0,1,1.2,3.489v.185a5.084,5.084,0,0,1-1.191,3.494,4.7,4.7,0,0,1-6.592,0,5.084,5.084,0,0,1-1.191-3.494Zm2.558.185a4.137,4.137,0,0,0,.457,2.087,1.756,1.756,0,0,0,2.931,0,4.11,4.11,0,0,0,.461-2.083v-.185a4.068,4.068,0,0,0-.466-2.065,1.576,1.576,0,0,0-1.468-.8,1.557,1.557,0,0,0-1.455.8,4.1,4.1,0,0,0-.461,2.061Zm22.271.422.018.053a4.006,4.006,0,0,1-1.248,3.208,5.089,5.089,0,0,1-3.542,1.16A4.906,4.906,0,0,1,68.2,15.7a5.312,5.312,0,0,1-1.415-3.828V9.336a5.41,5.41,0,0,1,1.38-3.828,4.7,4.7,0,0,1,3.621-1.49,5.4,5.4,0,0,1,3.656,1.143,3.934,3.934,0,0,1,1.283,3.217l-.018.053h-2.5A2.516,2.516,0,0,0,73.622,6.6,2.474,2.474,0,0,0,71.789,6a2.069,2.069,0,0,0-1.8.927,4.1,4.1,0,0,0-.646,2.4v2.558a3.98,3.98,0,0,0,.681,2.408,2.214,2.214,0,0,0,1.894.932,2.253,2.253,0,0,0,1.718-.6,2.619,2.619,0,0,0,.567-1.85Z" transform="translate(899 3303)" fill="#12263f"/>
    <path id="Trazado_890243" data-name="Trazado 890243" d="M23.388,15.251A4.862,4.862,0,0,1,21.6,16.609a7.023,7.023,0,0,1-3.059.576,5.173,5.173,0,0,1-3.8-1.459,5.092,5.092,0,0,1-1.477-3.788V9.266A5.18,5.18,0,0,1,14.7,5.482a4.929,4.929,0,0,1,3.683-1.463A5.234,5.234,0,0,1,21.981,5.13a3.652,3.652,0,0,1,1.2,2.966l-.018.053H20.751a2.1,2.1,0,0,0-.589-1.586A2.376,2.376,0,0,0,18.448,6a2.3,2.3,0,0,0-1.9.91,3.657,3.657,0,0,0-.721,2.342v2.689a3.645,3.645,0,0,0,.738,2.364,2.411,2.411,0,0,0,1.978.914,4.55,4.55,0,0,0,1.446-.185,2.2,2.2,0,0,0,.822-.466V12.087H18.352V10.312h5.036ZM30.375,9.7l-.94-.026a1.709,1.709,0,0,0-.94.237,1.5,1.5,0,0,0-.562.668V17H25.374V7.49h2.382L27.87,8.9a3,3,0,0,1,.866-1.165,2.022,2.022,0,0,1,1.582-.387q.163.031.33.075Zm7.163,5.9a3.229,3.229,0,0,1-1.116,1.178,2.959,2.959,0,0,1-1.573.413,2.892,2.892,0,0,1-2.351-1.02A4.89,4.89,0,0,1,31.649,13V7.49h2.558v5.528a3.07,3.07,0,0,0,.338,1.709,1.216,1.216,0,0,0,1.05.461,2.557,2.557,0,0,0,1.055-.2,1.778,1.778,0,0,0,.721-.584V7.49h2.566V17H37.811Zm12.911-3.085a5.462,5.462,0,0,1-.976,3.393,3.227,3.227,0,0,1-2.725,1.283,3.045,3.045,0,0,1-1.327-.277,2.726,2.726,0,0,1-.993-.813v4.562H41.871V7.49h2.312l.149,1.125a3.047,3.047,0,0,1,1.015-.962,2.746,2.746,0,0,1,1.384-.338,3.165,3.165,0,0,1,2.742,1.38,6.159,6.159,0,0,1,.976,3.63Zm-2.566-.185a4.6,4.6,0,0,0-.448-2.18,1.462,1.462,0,0,0-1.371-.835,1.938,1.938,0,0,0-.989.237,1.693,1.693,0,0,0-.646.677V14.39a1.573,1.573,0,0,0,.646.615,2.176,2.176,0,0,0,1.006.211,1.476,1.476,0,0,0,1.367-.729,3.851,3.851,0,0,0,.435-1.978Zm3.753-.167a5.1,5.1,0,0,1,1.187-3.485,4.136,4.136,0,0,1,3.287-1.358,4.18,4.18,0,0,1,3.3,1.354,5.076,5.076,0,0,1,1.2,3.489v.185a5.084,5.084,0,0,1-1.191,3.494,4.7,4.7,0,0,1-6.592,0,5.084,5.084,0,0,1-1.191-3.494Zm2.558.185a4.137,4.137,0,0,0,.457,2.087,1.756,1.756,0,0,0,2.931,0,4.11,4.11,0,0,0,.461-2.083v-.185a4.068,4.068,0,0,0-.466-2.065,1.576,1.576,0,0,0-1.468-.8,1.557,1.557,0,0,0-1.455.8,4.1,4.1,0,0,0-.461,2.061ZM66.867,17V4.2h4.465A5.28,5.28,0,0,1,75.2,5.7,5.166,5.166,0,0,1,76.72,9.547v2.118A5.147,5.147,0,0,1,75.2,15.51,5.3,5.3,0,0,1,71.332,17ZM69.434,6.181v8.851h1.9a2.506,2.506,0,0,0,2.039-.945,3.7,3.7,0,0,0,.773-2.421V9.529a3.667,3.667,0,0,0-.773-2.408,2.51,2.51,0,0,0-2.039-.94Z" transform="translate(1083 3303)" fill="#12263f"/>
    <path id="Trazado_890108" data-name="Trazado 890108" d="M-4308-8571v-123.5" transform="translate(4776 11702)" fill="none" stroke="#c2c2c2" stroke-width="2"/>
    <path id="Trazado_890244" data-name="Trazado 890244" d="M0,0H51V216H0Z" transform="translate(521 3063)" fill="#3498db"/>
    <path id="Trazado_890245" data-name="Trazado 890245" d="M0,0H51V148H0Z" transform="translate(582 3131)" fill="#e74c3c"/>
    <path id="Trazado_890246" data-name="Trazado 890246" d="M0,0H51V174H0Z" transform="translate(705 3105)" fill="#3498db"/>
    <path id="Trazado_890247" data-name="Trazado 890247" d="M0,0H51V198H0Z" transform="translate(766 3081)" fill="#e74c3c"/>
    <path id="Trazado_890248" data-name="Trazado 890248" d="M0,0H51V77H0Z" transform="translate(888 3202)" fill="#3498db"/>
    <path id="Trazado_890249" data-name="Trazado 890249" d="M0,0H51V198H0Z" transform="translate(949 3081)" fill="#e74c3c"/>
    <path id="Trazado_890250" data-name="Trazado 890250" d="M0,0H51V148H0Z" transform="translate(1072 3131)" fill="#3498db"/>
    <path id="Trazado_890251" data-name="Trazado 890251" d="M0,0H51V99H0Z" transform="translate(1133 3180)" fill="#e74c3c"/>
    <path id="Trazado_890109" data-name="Trazado 890109" d="M-4308-8597h728.667" transform="translate(4776 11702)" fill="none" stroke="#c2c2c2" stroke-width="2" stroke-dasharray="5 7"/>
    <path id="Trazado_890110" data-name="Trazado 890110" d="M-4308-8597h728.667" transform="translate(4776 11789)" fill="none" stroke="#c2c2c2" stroke-width="2" stroke-dasharray="5 7"/>
    <path id="Trazado_890111" data-name="Trazado 890111" d="M-4308-8644.667v221.334h728" transform="translate(4776 11702)" fill="none" stroke="#12263f" stroke-width="2"/>
  </g>
</svg>
